<?xml version="1.0" encoding="utf-8"?>
<!DOCTYPE svg PUBLIC "-//W3C//DTD SVG 1.1//EN" "http://www.w3.org/Graphics/SVG/1.1/DTD/svg11.dtd">
<svg  xmlns="http://www.w3.org/2000/svg" width="512" height="800" viewBox="0 0 512 800"
	 overflow="visible" enable-background="new 0 0 512 800" xml:space="preserve">
<rect fill="none" width="512" height="800"/>
<g transform="translate(-5, 40)">
	
		<radialGradient id="XMLID_7_" cx="321.0322" cy="489.6855" r="255.9795" gradientTransform="matrix(0.4518 0 0 -0.4518 -1.9531 323.3293)" gradientUnits="userSpaceOnUse">
		<stop  offset="0" style="stop-color:#FFFFFF"/>
		<stop  offset="0.05" style="stop-color:#FDFDFD"/>
		<stop  offset="0.1" style="stop-color:#F9FAFA"/>
		<stop  offset="0.15" style="stop-color:#F3F4F5"/>
		<stop  offset="0.2" style="stop-color:#EBECEE"/>
		<stop  offset="0.25" style="stop-color:#E0E2E5"/>
		<stop  offset="0.3" style="stop-color:#D4D7DB"/>
		<stop  offset="0.35" style="stop-color:#C6CACF"/>
		<stop  offset="0.4" style="stop-color:#B7BCC2"/>
		<stop  offset="0.45" style="stop-color:#A7ADB5"/>
		<stop  offset="0.5" style="stop-color:#979EA8"/>
		<stop  offset="0.55" style="stop-color:#868F9A"/>
		<stop  offset="0.6" style="stop-color:#76808D"/>
		<stop  offset="0.65" style="stop-color:#677280"/>
		<stop  offset="0.7" style="stop-color:#596574"/>
		<stop  offset="0.75" style="stop-color:#4D5A6A"/>
		<stop  offset="0.8" style="stop-color:#425061"/>
		<stop  offset="0.85" style="stop-color:#3A485A"/>
		<stop  offset="0.9" style="stop-color:#344255"/>
		<stop  offset="1" style="stop-color:#2F3E51"/>
	</radialGradient>
	<path fill="url(#XMLID_7_)" d="M27.438-13.562v231.303h231.304V-13.562H27.438z"/>
	<g transform="translate(522, 0)">
		
			<radialGradient id="XMLID_8_" cx="-200.9658" cy="489.6855" r="255.98" gradientTransform="matrix(0.4518 0 0 -0.4518 -52.2923 323.3293)" gradientUnits="userSpaceOnUse">
			<stop  offset="0" style="stop-color:#FFFFFF"/>
			<stop  offset="0.05" style="stop-color:#FDFDFD"/>
			<stop  offset="0.1" style="stop-color:#F7F7F8"/>
			<stop  offset="0.15" style="stop-color:#EEEFF0"/>
			<stop  offset="0.2" style="stop-color:#E1E4E6"/>
			<stop  offset="0.25" style="stop-color:#D3D6DA"/>
			<stop  offset="0.3" style="stop-color:#C2C6CC"/>
			<stop  offset="0.35" style="stop-color:#AFB5BC"/>
			<stop  offset="0.4" style="stop-color:#9DA4AD"/>
			<stop  offset="0.45" style="stop-color:#8A929D"/>
			<stop  offset="0.5" style="stop-color:#78828E"/>
			<stop  offset="0.55" style="stop-color:#677280"/>
			<stop  offset="0.6" style="stop-color:#596574"/>
			<stop  offset="0.65" style="stop-color:#4C5969"/>
			<stop  offset="0.7" style="stop-color:#425061"/>
			<stop  offset="0.75" style="stop-color:#3A485A"/>
			<stop  offset="0.8" style="stop-color:#354356"/>
			<stop  offset="0.85" style="stop-color:#314053"/>
			<stop  offset="0.9" style="stop-color:#2F3E51"/>
			<stop  offset="1" style="stop-color:#2F3E51"/>
		</radialGradient>
		<path fill="url(#XMLID_8_)" d="M-258.741-13.562v231.303h231.304V-13.562H-258.741z"/>
	</g>
	<g transform="translate(0, 522)">
		
			<radialGradient id="XMLID_9_" cx="321.0322" cy="-32.3164" r="255.98" gradientTransform="matrix(0.4518 0 0 -0.4518 -1.9531 -198.69)" gradientUnits="userSpaceOnUse">
			<stop  offset="0" style="stop-color:#FFFFFF"/>
			<stop  offset="0.05" style="stop-color:#FCFCFC"/>
			<stop  offset="0.1" style="stop-color:#F4F5F6"/>
			<stop  offset="0.15" style="stop-color:#E8EAEC"/>
			<stop  offset="0.2" style="stop-color:#D9DBDF"/>
			<stop  offset="0.25" style="stop-color:#C6CACF"/>
			<stop  offset="0.3" style="stop-color:#B2B7BE"/>
			<stop  offset="0.35" style="stop-color:#9CA4AC"/>
			<stop  offset="0.4" style="stop-color:#88909B"/>
			<stop  offset="0.45" style="stop-color:#747E8B"/>
			<stop  offset="0.5" style="stop-color:#636E7C"/>
			<stop  offset="0.55" style="stop-color:#54606F"/>
			<stop  offset="0.6" style="stop-color:#475565"/>
			<stop  offset="0.65" style="stop-color:#3E4C5D"/>
			<stop  offset="0.7" style="stop-color:#374658"/>
			<stop  offset="0.75" style="stop-color:#334254"/>
			<stop  offset="0.8" style="stop-color:#303F52"/>
			<stop  offset="0.85" style="stop-color:#2F3E51"/>
			<stop  offset="0.9" style="stop-color:#2F3E51"/>
			<stop  offset="1" style="stop-color:#2F3E51"/>
		</radialGradient>
		<path fill="url(#XMLID_9_)" d="M27.438-299.741v231.304h231.304v-231.304H27.438z"/>
	</g>
	<g transform="translate(522, 522)">
		
			<radialGradient id="XMLID_10_" cx="-200.9658" cy="-32.3164" r="255.9805" gradientTransform="matrix(0.4518 0 0 -0.4518 -52.2923 -198.69)" gradientUnits="userSpaceOnUse">
			<stop  offset="0" style="stop-color:#FFFFFF"/>
			<stop  offset="0.05" style="stop-color:#FBFCFC"/>
			<stop  offset="0.1" style="stop-color:#F2F3F4"/>
			<stop  offset="0.15" style="stop-color:#E3E5E8"/>
			<stop  offset="0.2" style="stop-color:#D0D4D8"/>
			<stop  offset="0.25" style="stop-color:#BBBFC6"/>
			<stop  offset="0.3" style="stop-color:#A3AAB2"/>
			<stop  offset="0.35" style="stop-color:#8C949F"/>
			<stop  offset="0.4" style="stop-color:#77808D"/>
			<stop  offset="0.45" style="stop-color:#636F7D"/>
			<stop  offset="0.5" style="stop-color:#53606F"/>
			<stop  offset="0.55" style="stop-color:#475465"/>
			<stop  offset="0.6" style="stop-color:#3D4B5D"/>
			<stop  offset="0.65" style="stop-color:#374557"/>
			<stop  offset="0.7" style="stop-color:#334154"/>
			<stop  offset="0.75" style="stop-color:#303F52"/>
			<stop  offset="0.8" style="stop-color:#2F3E51"/>
			<stop  offset="0.85" style="stop-color:#2F3E51"/>
			<stop  offset="0.9" style="stop-color:#2F3E51"/>
			<stop  offset="1" style="stop-color:#2F3E51"/>
		</radialGradient>
		<path fill="url(#XMLID_10_)" d="M-258.741-299.741v231.304h231.304v-231.304H-258.741z"/>
	</g>
	<g transform="translate(0, 1044)">
		
			<radialGradient id="XMLID_11_" cx="321.0322" cy="-554.3164" r="255.979" gradientTransform="matrix(0.4518 0 0 -0.4518 -1.9531 -720.7083)" gradientUnits="userSpaceOnUse">
			<stop  offset="0" style="stop-color:#FFFFFF"/>
			<stop  offset="0.05" style="stop-color:#FBFBFB"/>
			<stop  offset="0.1" style="stop-color:#F0F1F2"/>
			<stop  offset="0.15" style="stop-color:#DEE1E4"/>
			<stop  offset="0.2" style="stop-color:#C8CCD1"/>
			<stop  offset="0.25" style="stop-color:#B0B6BD"/>
			<stop  offset="0.3" style="stop-color:#979EA8"/>
			<stop  offset="0.35" style="stop-color:#7E8893"/>
			<stop  offset="0.4" style="stop-color:#697481"/>
			<stop  offset="0.45" style="stop-color:#576372"/>
			<stop  offset="0.5" style="stop-color:#495666"/>
			<stop  offset="0.55" style="stop-color:#3E4C5E"/>
			<stop  offset="0.6" style="stop-color:#374558"/>
			<stop  offset="0.65" style="stop-color:#334154"/>
			<stop  offset="0.7" style="stop-color:#303F52"/>
			<stop  offset="0.75" style="stop-color:#2F3E51"/>
			<stop  offset="0.8" style="stop-color:#2F3E51"/>
			<stop  offset="0.85" style="stop-color:#2F3E51"/>
			<stop  offset="0.9" style="stop-color:#2F3E51"/>
			<stop  offset="1" style="stop-color:#2F3E51"/>
		</radialGradient>
		<path fill="url(#XMLID_11_)" d="M27.438-585.92v231.303h231.304V-585.92H27.438z"/>
	</g>
	<g transform="translate(522, 1044)">
		
			<radialGradient id="XMLID_12_" cx="-200.9658" cy="-554.3164" r="255.9795" gradientTransform="matrix(0.4518 0 0 -0.4518 -52.2923 -720.7083)" gradientUnits="userSpaceOnUse">
			<stop  offset="0" style="stop-color:#FFFFFF"/>
			<stop  offset="0.05" style="stop-color:#F9FAFA"/>
			<stop  offset="0.1" style="stop-color:#EBECEE"/>
			<stop  offset="0.15" style="stop-color:#D5D8DC"/>
			<stop  offset="0.2" style="stop-color:#BABFC5"/>
			<stop  offset="0.25" style="stop-color:#9DA4AD"/>
			<stop  offset="0.3" style="stop-color:#818A96"/>
			<stop  offset="0.35" style="stop-color:#697381"/>
			<stop  offset="0.4" style="stop-color:#556170"/>
			<stop  offset="0.45" style="stop-color:#465364"/>
			<stop  offset="0.5" style="stop-color:#3C4A5B"/>
			<stop  offset="0.55" style="stop-color:#354456"/>
			<stop  offset="0.6" style="stop-color:#314053"/>
			<stop  offset="0.65" style="stop-color:#303F51"/>
			<stop  offset="0.7" style="stop-color:#2F3E51"/>
			<stop  offset="0.75" style="stop-color:#2F3E51"/>
			<stop  offset="0.8" style="stop-color:#2F3E51"/>
			<stop  offset="0.85" style="stop-color:#2F3E51"/>
			<stop  offset="0.9" style="stop-color:#2F3E51"/>
			<stop  offset="1" style="stop-color:#2F3E51"/>
		</radialGradient>
		<path fill="url(#XMLID_12_)" d="M-258.741-585.92v231.303h231.304V-585.92H-258.741z"/>
	</g>
</g>
<g>
	<path d="M98.769,768.961c0-0.033,0-0.102,0.034-0.237c0.068-0.255,0.102-0.307,0.17-0.34c0.017,0,0.255-0.018,0.51-0.018
		c0.816-0.017,0.969-0.067,1.071-0.271c0-0.018,2.38-9.316,2.38-9.537c0-0.085-0.017-0.103-0.068-0.119
		c-0.119-0.034-0.357-0.051-0.816-0.068h-0.476c-0.119-0.119-0.153-0.119-0.068-0.459c0.068-0.255,0.068-0.221,0.17-0.323h8.483
		c0.051,0.052,0.119,0.103,0.119,0.188c0,0.102-0.493,3.723-0.51,3.774c-0.034,0.102-0.102,0.118-0.391,0.118h-0.255
		c-0.068-0.051-0.119-0.085-0.119-0.204c0-0.067,0.017-0.17,0.034-0.374c0.068-0.544,0.085-0.73,0.085-1.088
		c0-1.24-0.476-1.547-1.649-1.614c-0.17,0-0.782-0.018-1.36-0.018s-1.139,0.018-1.207,0.018c-0.17,0.017-0.238,0.067-0.272,0.136
		c-0.017,0.034-0.289,1.054-0.595,2.261l-0.544,2.193h0.816c0.867-0.018,0.986-0.018,1.258-0.119c0.527-0.17,0.765-0.527,1.02-1.496
		c0.085-0.34,0-0.374,0.459-0.374h0.255c0.051,0.034,0.119,0.102,0.119,0.17s-1.071,4.386-1.105,4.471
		c-0.034,0.103-0.102,0.119-0.391,0.119h-0.255c-0.068-0.067-0.119-0.085-0.119-0.204c0.085-0.255,0.187-0.918,0.187-1.121
		c0-0.341-0.136-0.493-0.391-0.562c-0.221-0.085-0.34-0.102-1.224-0.102h-0.816l-0.544,2.158c-0.306,1.19-0.544,2.193-0.544,2.228
		c0,0.085,0.051,0.136,0.221,0.17c0.187,0.017,0.697,0.051,1.139,0.051c0.391,0,0.51,0,0.51,0.136c0,0.103-0.102,0.493-0.119,0.545
		c-0.034,0.067-0.051,0.085-0.306,0.085c-0.714,0-1.394-0.018-2.431-0.018c-1.003,0-1.564,0.018-2.176,0.018
		C98.82,769.132,98.769,769.098,98.769,768.961z"/>
	<path d="M113.507,763.079c-0.017,0.204-0.017,0.289-0.051,0.408c-0.034,0.103-1.513,4.165-1.547,4.268
		c-0.051,0.17-0.102,0.407-0.102,0.611c0,0.238,0.085,0.34,0.272,0.34c0.221,0,0.442-0.102,0.646-0.289
		c0.306-0.322,0.544-0.815,0.765-1.581c0.068-0.271,0.068-0.288,0.323-0.288h0.102c0.255,0,0.289,0,0.323,0.033
		c0.034,0.034,0.068,0.068,0.068,0.137c0,0.051-0.017,0.118-0.051,0.221c-0.323,1.071-0.867,2.022-1.853,2.346
		c-0.136,0.034-0.17,0.034-0.408,0.034c-0.884,0-1.394-0.595-1.394-1.377c0-0.153,0.017-0.306,0.051-0.459
		c0.017-0.102,1.513-4.165,1.53-4.233c0.068-0.237,0.102-0.459,0.102-0.629c0-0.255-0.051-0.356-0.306-0.356
		c-0.238,0.017-0.425,0.119-0.629,0.322c-0.289,0.323-0.51,0.766-0.714,1.496c-0.068,0.272-0.085,0.289-0.136,0.323
		c-0.017,0.018-0.153,0.018-0.323,0.018h-0.272c-0.034-0.034-0.102-0.086-0.102-0.153c0-0.051,0.017-0.119,0.068-0.255
		c0.255-0.901,0.765-1.7,1.292-2.074c0.204-0.136,0.476-0.255,0.697-0.289h0.306C112.998,761.651,113.507,762.229,113.507,763.079z
		 M113.49,757.996c0.391,0,0.68,0.272,0.68,0.663c0,0.544-0.527,0.969-1.003,0.969c-0.391,0-0.663-0.289-0.663-0.663
		C112.504,758.489,112.963,757.996,113.49,757.996z"/>
	<path d="M115.854,771.902c0,0,0,0.018,0.017,0.018c0.085,0.033,0.442,0.067,0.765,0.085c0.391,0,0.561-0.018,0.799-0.103
		c0.561-0.204,1.105-0.782,1.36-1.428c0.051-0.136,0.51-1.955,0.51-1.973c-0.017,0-0.051,0.034-0.119,0.068
		c-0.442,0.357-0.833,0.562-1.513,0.562c-0.272,0-0.306,0-0.493-0.052c-1.071-0.271-1.683-1.258-1.683-2.703
		c0.068-2.006,1.36-3.739,2.72-4.42c0.323-0.152,0.68-0.271,0.969-0.306c0.068,0,0.221-0.017,0.357-0.017
		c0.68,0.067,1.003,0.34,1.326,0.748c0,0,0.017-0.018,0.017-0.034c0.102-0.188,0.476-0.374,0.748-0.374
		c0.221,0.017,0.51,0.187,0.51,0.441c0,0.374-1.972,7.99-1.989,8.041c-0.051,0.188-0.204,0.477-0.306,0.646
		c-0.578,0.884-1.717,1.53-3.06,1.53c-1.105,0-2.261-0.188-2.261-1.122c0-0.596,0.51-1.021,1.02-1.021
		c0.357,0,0.68,0.238,0.68,0.612C116.228,771.579,115.854,771.852,115.854,771.902z M117.792,768.502c0.17,0,0.204,0,0.357-0.051
		c0.459-0.152,0.901-0.526,1.326-1.122c0.085-0.119,0.17-0.237,0.187-0.255c0.017-0.051,0.85-3.366,0.85-3.434
		c0-0.068-0.068-0.357-0.119-0.511c-0.17-0.544-0.476-0.866-1.003-0.866c-0.068,0-0.136,0.017-0.204,0.017
		c-0.306,0.085-0.68,0.34-0.969,0.663c-0.425,0.527-0.646,1.088-1.003,2.482c-0.238,0.935-0.306,1.325-0.323,1.768
		C116.891,767.958,117.095,768.502,117.792,768.502z"/>
	<path d="M123.384,768.299c0-0.289,0.119-0.493,0.255-0.697c0.221-0.255,0.578-0.51,1.003-0.51c0.476,0,0.85,0.322,0.85,0.833
		c0,0.663-0.595,1.224-1.275,1.224C123.758,769.148,123.384,768.843,123.384,768.299z"/>
	<path d="M130.507,760.24c0-1.377,1.292-2.244,2.533-2.396h0.255c0.255,0,0.595,0,0.748,0.017c0.408,0.068,0.765,0.187,1.139,0.357
		c0.748,0.374,1.224,0.918,1.411,1.598c0.034,0.119,0.051,0.289,0.051,0.459c0,1.377-0.986,2.482-2.176,2.924
		c-0.034,0.018-0.051,0.018-0.051,0.034c0,0.051,0.578,0.085,1.292,0.561c0.867,0.562,1.394,1.411,1.394,2.381
		c0,0.459-0.102,0.9-0.323,1.343c-0.527,1.139-1.853,2.006-3.4,2.006c-1.496,0-2.754-0.697-3.162-1.751
		c-0.119-0.255-0.17-0.578-0.17-0.833c0-0.646,0.493-1.071,1.071-1.071c0.629,0,1.088,0.459,1.088,1.071
		c0,0.527-0.323,0.935-0.816,1.054l-0.119,0.034c0.527,0.442,1.275,0.765,2.108,0.765c0.595,0,1.105-0.322,1.411-0.9
		c0.221-0.425,0.289-0.867,0.289-1.717v-0.341c0-1.054-0.408-1.818-1.088-2.158c-0.255-0.103-0.255-0.103-1.037-0.119l-0.714-0.018
		l-0.051-0.034c-0.034-0.051-0.034-0.067-0.034-0.271s0-0.204,0.051-0.255c0.034-0.034,0.068-0.051,0.085-0.051
		c0.051,0,0.884-0.068,0.986-0.085c1.037-0.137,1.53-1.326,1.53-2.618c0-0.748-0.153-1.207-0.595-1.479
		c-0.255-0.17-0.459-0.238-0.799-0.238c-0.51,0-1.088,0.171-1.496,0.459c-0.136,0.086-0.357,0.307-0.34,0.323
		c0,0,0.051,0.018,0.119,0.034c0.459,0.051,0.799,0.493,0.799,0.986c0,0.526-0.391,0.969-1.003,0.969
		C130.864,761.277,130.507,760.835,130.507,760.24z"/>
	<path d="M139.653,768.299c0-0.289,0.119-0.493,0.255-0.697c0.221-0.255,0.578-0.51,1.003-0.51c0.476,0,0.85,0.322,0.85,0.833
		c0,0.663-0.595,1.224-1.275,1.224C140.027,769.148,139.653,768.843,139.653,768.299z M140.962,763.063
		c0-0.663,0.595-1.241,1.258-1.241c0.476,0,0.85,0.323,0.85,0.816c0,0.68-0.629,1.24-1.275,1.24
		C141.302,763.878,140.962,763.504,140.962,763.063z"/>
	<path d="M149.853,765c0-0.271,0.017-0.561,0.034-0.765c0.187-1.513,0.867-3.043,1.921-4.318c0.204-0.237,0.833-0.884,1.071-1.07
		c1.139-0.952,2.431-1.53,3.706-1.666h0.272c0.255,0,0.578,0,0.714,0.017c0.765,0.153,1.411,0.561,1.819,1.19
		c0.034,0.067,0.068,0.102,0.085,0.102l0.629-0.646c0.34-0.357,0.646-0.663,0.663-0.663c0.017-0.018,0.051-0.018,0.102-0.018
		c0.119,0,0.238,0.018,0.238,0.119c0,0.085-0.085,0.425-0.544,2.329c-0.323,1.258-0.595,2.329-0.612,2.38
		c-0.034,0.119-0.051,0.136-0.391,0.136h-0.272c-0.068-0.067-0.102-0.067-0.102-0.221c0.017-0.051,0.034-0.187,0.034-0.306
		c0.034-0.188,0.068-0.578,0.068-0.833c0-1.564-0.561-2.822-2.074-2.822c-1.326,0-2.55,0.765-3.332,1.513
		c-0.68,0.697-1.19,1.53-1.581,2.618c-0.272,0.766-0.527,1.785-0.629,2.533c-0.051,0.357-0.085,0.697-0.085,1.003
		c0,1.854,1.105,3.128,2.941,3.128c1.003,0,2.006-0.544,2.397-1.359c0.136-0.307,0.493-1.785,0.493-1.87
		c0-0.103-0.034-0.137-0.204-0.153c-0.187-0.034-0.68-0.068-1.122-0.068h-0.374c-0.051-0.051-0.119-0.102-0.119-0.187
		c0-0.103,0.085-0.442,0.119-0.51c0.051-0.052,0.051-0.085,0.272-0.085c0.731,0,1.615,0.033,2.346,0.033
		c0.748,0,1.394,0,1.751-0.033h0.153c0.119,0.118,0.153,0.118,0.068,0.459c-0.068,0.237-0.068,0.221-0.17,0.322h-0.221
		c-0.425,0-0.731,0-0.833,0.238c0,0.085-0.918,3.553-0.918,3.553c-0.034,0.052-0.068,0.085-0.102,0.085
		c-0.085,0-0.204-0.136-0.323-0.255c-0.272-0.271-0.391-0.441-0.527-0.663c-0.714,0.714-1.802,1.275-3.213,1.275
		C151.57,769.522,149.853,767.669,149.853,765z"/>
	<path d="M161.736,764.235c0.017-0.102,0.136-0.527,0.238-0.85c0.34-1.055,0.782-1.581,1.377-1.734
		c0.068-0.017,0.136-0.017,0.221-0.017c0.782,0,1.309,0.407,1.496,0.985l0.204-0.204c0.34-0.356,0.646-0.544,1.02-0.663
		c0.221-0.085,0.459-0.118,0.697-0.118c0.867,0,1.7,0.476,1.7,1.359c0,0.612-0.425,1.122-1.02,1.122
		c-0.34,0-0.663-0.204-0.663-0.595c0-0.425,0.238-0.782,0.544-0.918c0.068-0.034,0.119-0.068,0.119-0.085
		c-0.136-0.136-0.493-0.255-0.782-0.255c-0.085,0-0.153,0-0.221,0.017c-0.544,0.103-1.054,0.612-1.513,1.513l-0.136,0.256
		l-0.578,2.362c-0.408,1.615-0.612,2.38-0.646,2.465c-0.136,0.272-0.442,0.459-0.748,0.459c-0.323,0-0.527-0.187-0.544-0.492
		c0-0.103,0.051-0.289,0.663-2.771c0.357-1.445,0.68-2.72,0.68-2.805c0.034-0.153,0.051-0.307,0.051-0.442
		c0-0.306-0.068-0.561-0.34-0.561c-0.068,0-0.153,0.017-0.221,0.067c-0.289,0.188-0.51,0.714-0.816,1.938
		c-0.085,0.17,0,0.153-0.391,0.153h-0.289C161.787,764.371,161.736,764.337,161.736,764.235z"/>
	<path d="M176.033,762.434c0,0.34-1.156,4.606-1.258,5.219c-0.034,0.136-0.034,0.34-0.034,0.51c0,0.272,0.017,0.493,0.221,0.527
		c0.153,0.051,0.289,0,0.425-0.153c0.238-0.255,0.408-0.68,0.646-1.614c0.102-0.357,0.085-0.374,0.374-0.374h0.085
		c0.255,0,0.289,0,0.323,0.033c0.034,0.034,0.051,0.052,0.051,0.119c0,0.051-0.017,0.136-0.034,0.255
		c-0.238,0.851-0.459,1.514-0.935,1.989c-0.221,0.221-0.51,0.391-0.884,0.391c-0.561,0-0.969-0.203-1.241-0.561
		c-0.085-0.102-0.238-0.391-0.238-0.442c0-0.017-0.068,0.052-0.17,0.137c-0.629,0.578-1.241,0.866-1.853,0.866
		c-0.204,0-0.408-0.033-0.612-0.102c-0.918-0.306-1.547-1.258-1.547-2.567c0-0.391,0.068-0.799,0.17-1.24
		c0.374-1.514,1.394-2.873,2.618-3.469c0.391-0.187,0.68-0.322,1.156-0.322c0.459,0,0.765,0.102,1.037,0.306
		c0.17,0.136,0.306,0.323,0.425,0.476c0.068-0.221,0.391-0.441,0.714-0.441C175.727,761.975,176.033,762.161,176.033,762.434z
		 M173.296,762.264c-0.34,0-0.714,0.204-1.054,0.561c-0.51,0.527-0.765,1.122-1.156,2.669c-0.238,1.003-0.323,1.377-0.323,1.819
		v0.136c0,0.595,0.085,0.867,0.391,1.105c0.119,0.102,0.289,0.152,0.476,0.152c0.204,0,0.442-0.067,0.663-0.204
		c0.306-0.187,0.663-0.526,0.952-0.9c0.306-0.408,0.221-0.188,0.714-2.143c0.306-1.224,0.425-1.751,0.425-1.802
		c0-0.136-0.085-0.459-0.153-0.646C174.061,762.553,173.772,762.264,173.296,762.264z"/>
	<path d="M185.756,757.351c0.085,0,0.204,0.034,0.204,0.136s-0.119,0.646-1.224,5.049l-1.292,5.151
		c-0.017,0.102-0.017,0.271-0.017,0.425c0,0.306,0,0.527,0.221,0.578c0.153,0.051,0.289,0,0.425-0.153
		c0.238-0.255,0.408-0.68,0.646-1.614c0.102-0.357,0.085-0.374,0.374-0.374h0.085c0.255,0,0.289,0,0.323,0.033
		c0.068,0.052,0.068,0.119,0.017,0.374c-0.238,0.851-0.459,1.514-0.935,1.989c-0.221,0.221-0.51,0.391-0.884,0.391
		c-0.561,0-0.969-0.203-1.241-0.561c-0.085-0.102-0.238-0.391-0.238-0.442c0-0.017-0.068,0.052-0.17,0.137
		c-0.629,0.578-1.241,0.866-1.853,0.866c-0.204,0-0.408-0.033-0.612-0.102c-0.918-0.306-1.547-1.258-1.547-2.567
		c0-0.391,0.068-0.799,0.17-1.24c0.459-1.87,1.87-3.417,3.383-3.74c0.136-0.034,0.289-0.034,0.459-0.034
		c1.02,0,1.309,0.697,1.36,0.697c0.051,0,0.918-3.672,0.918-3.672c0-0.153-0.017-0.222-0.102-0.272
		c-0.102-0.034-0.306-0.068-0.68-0.085h-0.357c-0.119-0.119-0.153-0.085-0.068-0.459c0.051-0.204,0.085-0.323,0.221-0.323
		C183.376,757.537,185.739,757.351,185.756,757.351z M181.982,762.264c-0.34,0-0.714,0.204-1.054,0.561
		c-0.51,0.527-0.765,1.122-1.156,2.669c-0.238,1.003-0.323,1.377-0.323,1.819v0.136c0,0.425,0.017,0.527,0.119,0.748
		c0.153,0.34,0.425,0.51,0.748,0.51c0.136,0,0.289-0.033,0.442-0.102c0.459-0.188,1.19-0.918,1.411-1.36
		c0.068-0.119,0.901-3.468,0.901-3.587s-0.085-0.459-0.153-0.646C182.748,762.553,182.458,762.264,181.982,762.264z"/>
	<path d="M189.989,763.079c-0.017,0.204-0.017,0.289-0.051,0.408c-0.034,0.103-1.513,4.165-1.547,4.268
		c-0.051,0.17-0.102,0.407-0.102,0.611c0,0.238,0.085,0.34,0.272,0.34c0.221,0,0.442-0.102,0.646-0.289
		c0.306-0.322,0.544-0.815,0.765-1.581c0.068-0.271,0.068-0.288,0.323-0.288h0.102c0.255,0,0.289,0,0.323,0.033
		c0.034,0.034,0.068,0.068,0.068,0.137c0,0.051-0.017,0.118-0.051,0.221c-0.323,1.071-0.867,2.022-1.853,2.346
		c-0.136,0.034-0.17,0.034-0.408,0.034c-0.884,0-1.394-0.595-1.394-1.377c0-0.153,0.017-0.306,0.051-0.459
		c0.017-0.102,1.513-4.165,1.53-4.233c0.068-0.237,0.102-0.459,0.102-0.629c0-0.255-0.051-0.356-0.306-0.356
		c-0.238,0.017-0.425,0.119-0.629,0.322c-0.289,0.323-0.51,0.766-0.714,1.496c-0.068,0.272-0.085,0.289-0.136,0.323
		c-0.017,0.018-0.153,0.018-0.323,0.018h-0.272c-0.034-0.034-0.102-0.086-0.102-0.153c0-0.051,0.017-0.119,0.068-0.255
		c0.255-0.901,0.765-1.7,1.292-2.074c0.204-0.136,0.476-0.255,0.697-0.289h0.306C189.479,761.651,189.989,762.229,189.989,763.079z
		 M189.972,757.996c0.391,0,0.68,0.272,0.68,0.663c0,0.544-0.527,0.969-1.003,0.969c-0.391,0-0.663-0.289-0.663-0.663
		C188.986,758.489,189.445,757.996,189.972,757.996z"/>
	<path d="M193.44,767.023c0,0.85,0.306,1.445,0.901,1.649c0.068,0.017,0.187,0.017,0.323,0.017c0.17,0,0.357,0,0.51-0.034
		c0.867-0.153,1.717-0.646,2.295-1.36c0.119-0.136,0.17-0.203,0.238-0.203c0.102,0,0.408,0.34,0.442,0.407
		c0.034,0.068,0,0.137-0.187,0.341c-0.663,0.765-1.649,1.292-2.771,1.462c-0.153,0.017-0.374,0.017-0.578,0.017
		c-0.816,0-1.292-0.238-1.717-0.663c-0.51-0.51-0.85-1.36-0.85-2.329c0-0.459,0.034-0.765,0.136-1.173
		c0.323-1.445,1.394-2.686,2.856-3.247c0.289-0.119,0.782-0.238,1.054-0.255c0.034,0,0.17-0.017,0.272-0.017h0.051
		c0.884,0,1.547,0.441,1.751,1.139c0.034,0.085,0.051,0.204,0.051,0.34c0,0.442-0.153,0.765-0.34,1.054
		c-0.663,0.97-2.159,1.19-3.944,1.19h-0.221C193.593,765.833,193.44,766.496,193.44,767.023z M196.347,762.264
		c-0.204,0-0.408,0.033-0.612,0.102c-0.748,0.255-1.309,0.833-1.649,1.717c-0.068,0.153-0.204,0.578-0.204,0.629
		c0,0.018,0.068,0.018,0.425,0.018c1.105-0.034,1.734-0.136,2.193-0.374c0.493-0.238,0.799-0.595,0.799-1.225
		C197.299,762.62,196.891,762.264,196.347,762.264z"/>
	<path d="M199.322,764.27c0-0.068,0.17-0.663,0.272-0.952c0.204-0.612,0.391-0.969,0.68-1.258c0.238-0.255,0.493-0.425,0.901-0.425
		c0.748,0,1.224,0.356,1.462,0.9c0.017,0.068,0.051,0.153,0.068,0.188v0.067l0.221-0.221c0.527-0.527,1.173-0.935,2.159-0.935
		c1.122,0,1.904,0.629,1.904,1.768c0,0.323-0.068,0.731-0.204,1.258c-0.187,0.681-0.391,1.326-0.765,2.38
		c-0.238,0.663-0.289,0.833-0.323,1.071c-0.017,0.103-0.034,0.188-0.034,0.272c0,0.187,0.068,0.306,0.289,0.306
		c0.272,0,0.425-0.102,0.629-0.272c0.306-0.322,0.544-0.815,0.765-1.581c0.068-0.271,0.068-0.288,0.323-0.288h0.102
		c0.255,0,0.289,0,0.323,0.033c0.034,0.034,0.068,0.068,0.068,0.137c0,0.051-0.017,0.118-0.051,0.221
		c-0.323,1.071-0.867,2.022-1.853,2.346c-0.136,0.034-0.17,0.034-0.408,0.034c-0.867,0-1.394-0.527-1.394-1.394
		c0-0.289,0.017-0.408,0.272-1.071c0.476-1.343,0.799-2.397,0.901-3.061c0.034-0.152,0.034-0.374,0.034-0.577
		c0-0.153,0-0.307-0.017-0.392c-0.102-0.306-0.289-0.561-0.663-0.561c-0.068,0-0.136,0-0.221,0.017
		c-0.765,0.103-1.411,0.629-1.989,1.615c-0.255,0.441-0.204,0.271-0.799,2.686c-0.374,1.496-0.561,2.21-0.595,2.295
		c-0.136,0.272-0.442,0.459-0.748,0.459c-0.323,0-0.527-0.187-0.544-0.492c0-0.103,0.051-0.289,0.663-2.771
		c0.357-1.445,0.68-2.72,0.68-2.805c0.034-0.153,0.051-0.307,0.051-0.442c0-0.34-0.102-0.561-0.374-0.561h-0.051
		c-0.153,0.033-0.34,0.221-0.493,0.526c-0.136,0.289-0.272,0.731-0.459,1.479c-0.085,0.17,0,0.153-0.391,0.153h-0.289
		C199.39,764.389,199.322,764.32,199.322,764.27z"/>
	<path d="M209.08,762.434c0-0.085,0.102-0.477,0.136-0.51c0.051-0.103,0.034-0.103,0.918-0.103h0.799l0.323-1.36
		c0.374-1.496,0.391-1.547,0.561-1.717c0.119-0.119,0.323-0.238,0.561-0.238c0.34,0,0.561,0.204,0.578,0.493
		c0,0.153-0.646,2.754-0.68,2.788c0,0.034,0.034,0.034,0.765,0.034h0.782c0.051,0.051,0.119,0.103,0.119,0.188
		c0,0.203-0.153,0.526-0.221,0.595h-1.649l-1.258,5.083c-0.017,0.102-0.017,0.271-0.017,0.425c0,0.306,0.017,0.544,0.221,0.578
		c0.102,0.034,0.323,0.017,0.476-0.051c0.544-0.17,1.105-0.867,1.479-1.836c0.102-0.255,0.102-0.255,0.442-0.255
		c0.255,0,0.289,0,0.323,0.033c0.085,0.068,0.085,0.119-0.017,0.357s-0.289,0.612-0.425,0.85c-0.34,0.544-0.799,1.003-1.224,1.259
		c-0.34,0.187-0.697,0.288-1.037,0.288c-0.901,0-1.547-0.662-1.547-1.563c0-0.442,1.241-5.134,1.241-5.134
		c0-0.034-0.034-0.034-0.765-0.034h-0.765C209.148,762.553,209.08,762.519,209.08,762.434z"/>
	<path d="M219.467,762.757c0-0.034-0.136-0.188-0.221-0.256c-0.187-0.152-0.408-0.221-0.765-0.221c-0.646,0-1.003,0.289-1.241,0.731
		c-0.102,0.221-0.153,0.425-0.153,0.611c0,0.238,0.085,0.442,0.238,0.578c0.119,0.119,0.221,0.153,0.714,0.255
		c0.782,0.17,0.935,0.204,1.343,0.578c0.306,0.307,0.578,0.782,0.578,1.343c0,0.918-0.561,1.803-1.054,2.228
		c-0.578,0.459-1.309,0.73-2.142,0.73c-0.527,0-0.901-0.085-1.292-0.255c-0.408-0.204-0.629-0.425-0.799-0.765
		c-0.119-0.204-0.136-0.34-0.136-0.629c0-0.663,0.34-1.19,1.003-1.19c0.357,0,0.68,0.238,0.68,0.646s-0.255,0.73-0.561,0.884
		c-0.085,0.034-0.153,0.068-0.17,0.068c-0.051,0-0.034,0.051,0.068,0.152c0.255,0.289,0.714,0.459,1.258,0.459
		c0.34,0,0.697-0.067,0.969-0.204c0.527-0.271,0.918-0.884,0.918-1.444c0-0.255-0.068-0.442-0.238-0.629
		c-0.204-0.204-0.34-0.272-0.969-0.408c-0.51-0.119-0.612-0.136-0.782-0.238c-0.34-0.153-0.561-0.391-0.714-0.73
		c-0.136-0.255-0.153-0.426-0.153-0.748c0-0.697,0.238-1.174,0.527-1.615c0.442-0.612,1.156-1.054,2.159-1.054
		c0.969,0,1.819,0.492,1.819,1.462c0,0.611-0.374,1.054-0.901,1.054c-0.374,0-0.527-0.221-0.578-0.544
		C218.872,763.13,219.161,762.927,219.467,762.757z"/>
	<path d="M231.061,757.911c-0.136-0.051-0.272-0.119-0.408-0.119c-0.255,0-0.391,0.204-0.493,0.392
		c-0.067,0.136-0.153,0.526-0.306,1.258c-0.119,0.612-0.459,2.329-0.459,2.363c0,0.017,0.255,0.017,0.884,0.017h0.867
		c0.136,0.103,0.153,0.119,0.067,0.459c-0.067,0.204-0.067,0.221-0.152,0.306l-0.918,0.018h-0.901l-0.459,2.363
		c-0.578,3.009-0.646,3.314-0.85,4.113c-0.289,1.207-0.578,1.938-0.952,2.499c-0.357,0.544-0.748,0.867-1.19,1.003
		c-0.085,0.034-0.221,0.034-0.356,0.034c-0.782,0-1.377-0.441-1.377-1.189c0-0.596,0.374-1.105,1.02-1.105
		c0.374,0,0.663,0.255,0.663,0.663c0,0.068,0,0.119-0.017,0.188c-0.103,0.34-0.341,0.561-0.612,0.714
		c0,0.051,0.289,0.119,0.391,0.119c0.238,0,0.357-0.188,0.493-0.392c0.085-0.204,0.119-0.289,0.238-0.85l0.34-1.599
		c0.136-0.629,0.306-1.377,0.357-1.683c0.102-0.425,0.951-4.828,0.951-4.862c0-0.017-0.34-0.017-0.748-0.017h-0.747
		c-0.137-0.103-0.153-0.119-0.068-0.459c0.068-0.272,0.068-0.221,0.17-0.323h0.765c0.731,0,0.782,0,0.782-0.034
		c0.018-0.017,0.068-0.34,0.153-0.714c0.306-1.666,0.476-2.261,0.782-2.788c0.306-0.544,0.866-0.969,1.428-1.088
		c0.085-0.017,0.187-0.034,0.289-0.034c0.782,0,1.411,0.459,1.411,1.19c0,0.646-0.392,1.122-1.021,1.122
		c-0.374,0-0.663-0.255-0.663-0.663C230.414,758.336,230.754,758.099,231.061,757.911z"/>
	<path d="M235.888,761.635c1.548,0,2.567,1.173,2.567,2.839c0,2.006-1.615,4.335-3.808,4.794c-0.204,0.051-0.426,0.067-0.646,0.067
		c-1.632,0-2.584-1.189-2.584-2.821c0-0.374,0.017-0.544,0.085-0.867c0.238-1.19,0.969-2.329,1.854-3.043
		C234.001,762.094,234.817,761.635,235.888,761.635z M234.086,768.706c0.34,0,0.68-0.118,1.037-0.356
		c0.663-0.425,1.105-1.105,1.411-2.125c0.204-0.681,0.476-1.632,0.476-2.432c0-0.561-0.119-0.9-0.407-1.189
		c-0.238-0.238-0.408-0.34-0.851-0.34c-0.102,0-0.187,0.017-0.255,0.017c-0.799,0.153-1.547,0.867-1.972,1.87
		c-0.222,0.527-0.544,1.785-0.663,2.516c-0.018,0.137-0.018,0.289-0.018,0.459C232.845,768.026,233.236,768.706,234.086,768.706z"/>
	<path d="M239.629,764.235c0.017-0.102,0.136-0.527,0.237-0.85c0.34-1.055,0.782-1.581,1.377-1.734
		c0.068-0.017,0.137-0.017,0.222-0.017c0.781,0,1.309,0.407,1.496,0.985l0.204-0.204c0.34-0.356,0.646-0.544,1.02-0.663
		c0.221-0.085,0.459-0.118,0.697-0.118c0.867,0,1.7,0.476,1.7,1.359c0,0.612-0.426,1.122-1.021,1.122
		c-0.34,0-0.663-0.204-0.663-0.595c0-0.425,0.238-0.782,0.544-0.918c0.068-0.034,0.119-0.068,0.119-0.085
		c-0.136-0.136-0.493-0.255-0.782-0.255c-0.085,0-0.152,0-0.221,0.017c-0.544,0.103-1.054,0.612-1.513,1.513l-0.137,0.256
		l-0.577,2.362c-0.408,1.615-0.612,2.38-0.646,2.465c-0.136,0.272-0.442,0.459-0.748,0.459c-0.323,0-0.527-0.187-0.544-0.492
		c0-0.103,0.051-0.289,0.663-2.771c0.356-1.445,0.68-2.72,0.68-2.805c0.034-0.153,0.051-0.307,0.051-0.442
		c0-0.306-0.067-0.561-0.34-0.561c-0.067,0-0.152,0.017-0.221,0.067c-0.289,0.188-0.51,0.714-0.816,1.938
		c-0.085,0.17,0,0.153-0.391,0.153h-0.289C239.68,764.371,239.629,764.337,239.629,764.235z"/>
	<path d="M251.053,764.27c0-0.068,0.17-0.663,0.271-0.952c0.204-0.612,0.392-0.969,0.68-1.258c0.238-0.255,0.493-0.425,0.901-0.425
		c0.748,0,1.224,0.356,1.462,0.9c0.018,0.068,0.051,0.153,0.068,0.188v0.067l0.221-0.221c0.527-0.527,1.173-0.935,2.159-0.935
		c1.122,0,1.904,0.629,1.904,1.768c0,0.323-0.068,0.731-0.204,1.258c-0.188,0.681-0.392,1.326-0.766,2.38
		c-0.237,0.663-0.289,0.833-0.322,1.071c-0.018,0.103-0.034,0.188-0.034,0.272c0,0.187,0.067,0.306,0.289,0.306
		c0.271,0,0.425-0.102,0.629-0.272c0.306-0.322,0.544-0.815,0.765-1.581c0.068-0.271,0.068-0.288,0.323-0.288h0.102
		c0.256,0,0.289,0,0.323,0.033c0.034,0.034,0.068,0.068,0.068,0.137c0,0.051-0.018,0.118-0.051,0.221
		c-0.323,1.071-0.867,2.022-1.854,2.346c-0.136,0.034-0.17,0.034-0.408,0.034c-0.866,0-1.394-0.527-1.394-1.394
		c0-0.289,0.017-0.408,0.271-1.071c0.477-1.343,0.8-2.397,0.901-3.061c0.034-0.152,0.034-0.374,0.034-0.577
		c0-0.153,0-0.307-0.018-0.392c-0.102-0.306-0.288-0.561-0.662-0.561c-0.068,0-0.137,0-0.222,0.017
		c-0.765,0.103-1.411,0.629-1.989,1.615c-0.255,0.441-0.203,0.271-0.799,2.686c-0.374,1.496-0.561,2.21-0.595,2.295
		c-0.136,0.272-0.442,0.459-0.748,0.459c-0.323,0-0.527-0.187-0.544-0.492c0-0.103,0.051-0.289,0.663-2.771
		c0.356-1.445,0.68-2.72,0.68-2.805c0.034-0.153,0.051-0.307,0.051-0.442c0-0.34-0.102-0.561-0.374-0.561h-0.051
		c-0.152,0.033-0.34,0.221-0.493,0.526c-0.136,0.289-0.271,0.731-0.459,1.479c-0.085,0.17,0,0.153-0.391,0.153h-0.289
		C251.12,764.389,251.053,764.32,251.053,764.27z"/>
	<path d="M265.808,766.207h4.947c4.761,0,4.947,0,5.016,0.034c0.136,0.068,0.187,0.188,0.187,0.307c0,0.118-0.051,0.237-0.187,0.306
		c-0.068,0.034-0.255,0.034-5.016,0.034h-4.947c-0.136-0.085-0.255-0.17-0.255-0.34
		C265.553,766.377,265.672,766.292,265.808,766.207z M276.519,763.59h-4.947c-4.42,0-4.931,0-4.998-0.034
		c-0.136-0.052-0.204-0.188-0.204-0.307s0.068-0.237,0.204-0.306c0.051-0.034,0.238-0.034,4.998-0.034h4.947
		c0.136,0.085,0.255,0.17,0.255,0.34S276.654,763.504,276.519,763.59z"/>
	<path d="M281.72,760.802c0-1.615,1.411-2.976,3.146-2.976c1.989,0,3.315,1.19,3.604,2.856c0.018,0.152,0.034,0.356,0.034,0.561
		c0,0.748-0.187,1.258-0.595,1.854c-0.357,0.526-0.799,0.985-1.921,1.955c-0.595,0.51-0.544,0.459-1.7,1.563l-1.003,0.952
		l1.292,0.017c1.717,0,2.737-0.033,2.839-0.085c0.051-0.017,0.119-0.187,0.17-0.356c0.085-0.238,0.103-0.392,0.238-1.156v-0.051
		h0.68v0.051c-0.051,0.103-0.425,3.009-0.476,3.111v0.051h-6.308v-0.323c0-0.289,0-0.34,0.034-0.391
		c0.018-0.018,0.663-0.748,1.429-1.615c1.921-2.125,2.006-2.244,2.38-2.72c0.765-1.037,1.139-1.854,1.139-2.839
		c0-1.429-0.765-2.636-2.227-2.636c-0.766,0-1.225,0.34-1.599,0.885c-0.067,0.136-0.153,0.271-0.153,0.288
		c0,0.018,0.034,0.018,0.086,0.018c0.595,0,0.951,0.493,0.951,1.02c0,0.544-0.391,1.021-1.02,1.021
		C282.094,761.855,281.72,761.379,281.72,760.802z"/>
	<path d="M292.022,769.148c-0.511,0-0.851-0.272-0.851-0.782c0-0.663,0.511-1.122,1.037-1.258c0.051,0,0.153-0.017,0.221-0.017
		c0.578,0,0.885,0.407,0.885,1.139c0,0.204-0.018,0.408-0.034,0.51c-0.238,1.105-0.765,2.074-1.411,2.806
		c-0.306,0.356-0.867,0.9-1.003,0.9c-0.103,0-0.323-0.323-0.323-0.391c0-0.068,0.068-0.119,0.188-0.222
		c0.204-0.152,0.544-0.51,0.748-0.747c0.492-0.578,0.815-1.19,1.02-1.837c0.034-0.102,0.068-0.203,0.068-0.221
		C292.566,769.013,292.345,769.148,292.022,769.148z"/>
	<path d="M300.012,760.24c0-1.377,1.292-2.244,2.533-2.396h0.255c0.255,0,0.595,0,0.748,0.017c0.408,0.068,0.765,0.187,1.139,0.357
		c0.748,0.374,1.225,0.918,1.411,1.598c0.034,0.119,0.052,0.289,0.052,0.459c0,1.377-0.986,2.482-2.177,2.924
		c-0.034,0.018-0.051,0.018-0.051,0.034c0,0.051,0.578,0.085,1.292,0.561c0.867,0.562,1.395,1.411,1.395,2.381
		c0,0.459-0.103,0.9-0.323,1.343c-0.527,1.139-1.854,2.006-3.4,2.006c-1.496,0-2.754-0.697-3.162-1.751
		c-0.119-0.255-0.17-0.578-0.17-0.833c0-0.646,0.493-1.071,1.071-1.071c0.629,0,1.088,0.459,1.088,1.071
		c0,0.527-0.323,0.935-0.816,1.054l-0.118,0.034c0.526,0.442,1.274,0.765,2.107,0.765c0.595,0,1.105-0.322,1.411-0.9
		c0.221-0.425,0.289-0.867,0.289-1.717v-0.341c0-1.054-0.408-1.818-1.088-2.158c-0.255-0.103-0.255-0.103-1.037-0.119l-0.714-0.018
		l-0.051-0.034c-0.034-0.051-0.034-0.067-0.034-0.271s0-0.204,0.051-0.255c0.034-0.034,0.068-0.051,0.085-0.051
		c0.051,0,0.884-0.068,0.986-0.085c1.037-0.137,1.529-1.326,1.529-2.618c0-0.748-0.152-1.207-0.595-1.479
		c-0.255-0.17-0.459-0.238-0.799-0.238c-0.51,0-1.088,0.171-1.496,0.459c-0.136,0.086-0.357,0.307-0.34,0.323
		c0,0,0.051,0.018,0.119,0.034c0.459,0.051,0.799,0.493,0.799,0.986c0,0.526-0.391,0.969-1.003,0.969
		C300.369,761.277,300.012,760.835,300.012,760.24z"/>
	<path d="M309.991,769.148c-0.511,0-0.851-0.272-0.851-0.782c0-0.663,0.511-1.122,1.037-1.258c0.051,0,0.153-0.017,0.221-0.017
		c0.578,0,0.885,0.407,0.885,1.139c0,0.204-0.018,0.408-0.034,0.51c-0.238,1.105-0.765,2.074-1.411,2.806
		c-0.306,0.356-0.867,0.9-1.003,0.9c-0.103,0-0.323-0.323-0.323-0.391c0-0.068,0.068-0.119,0.188-0.222
		c0.204-0.152,0.544-0.51,0.748-0.747c0.492-0.578,0.815-1.19,1.02-1.837c0.034-0.102,0.068-0.203,0.068-0.221
		C310.535,769.013,310.313,769.148,309.991,769.148z"/>
	<path d="M322.469,769.098c-0.459,0-2.04,0-2.278,0.051h-0.152v-0.782h0.526c0.544-0.017,0.766-0.034,0.901-0.085
		c0.085-0.017,0.17-0.102,0.204-0.17c0.017-0.034,0.017-0.34,0.017-0.918v-0.85h-4.403v-0.782l2.567-3.927
		c1.615-2.448,2.602-3.944,2.635-3.962c0.034-0.033,0.068-0.033,0.357-0.033h0.306l0.103,0.102v7.82h1.563v0.782h-1.563v0.866
		c0,0.936,0,0.919,0.102,1.021c0.119,0.102,0.272,0.119,0.969,0.136h0.493v0.782h-0.152
		C324.424,769.098,322.911,769.098,322.469,769.098z M321.789,759.884l-3.724,5.66l1.854,0.018h1.87V759.884z"/>
	<path d="M327.96,769.148c-0.511,0-0.851-0.272-0.851-0.782c0-0.663,0.511-1.122,1.037-1.258c0.051,0,0.153-0.017,0.221-0.017
		c0.578,0,0.885,0.407,0.885,1.139c0,0.204-0.018,0.408-0.034,0.51c-0.238,1.105-0.765,2.074-1.411,2.806
		c-0.306,0.356-0.867,0.9-1.003,0.9c-0.103,0-0.323-0.323-0.323-0.391c0-0.068,0.068-0.119,0.188-0.222
		c0.204-0.152,0.544-0.51,0.748-0.747c0.492-0.578,0.815-1.19,1.02-1.837c0.034-0.102,0.068-0.203,0.068-0.221
		C328.504,769.013,328.282,769.148,327.96,769.148z"/>
	<path d="M337.564,766.496c0,0.544-0.493,0.936-0.936,0.936h-0.118l0.051,0.085c0.323,0.68,1.02,1.258,2.022,1.258
		c0.867,0,1.411-0.391,1.734-1.02c0.238-0.46,0.323-1.122,0.323-2.177c0-1.309-0.119-1.903-0.459-2.362
		c-0.272-0.341-0.527-0.562-1.088-0.562c-0.918,0-1.615,0.493-2.006,1.156c-0.086,0.152-0.119,0.17-0.374,0.17
		c-0.238,0-0.289-0.018-0.323-0.103c-0.034-0.067-0.034-0.322-0.034-2.975c0-0.918-0.017-1.598-0.017-2.091
		c0-0.646,0.017-0.952,0.102-0.952c0.017-0.017,0.051-0.034,0.068-0.034c0.017,0,0.152,0.051,0.306,0.103
		c0.68,0.271,1.377,0.441,2.261,0.441c0.799,0,1.599-0.17,2.313-0.476c0.102-0.051,0.17-0.068,0.221-0.068
		c0.103,0,0.136,0.103,0.136,0.306v0.222c-0.765,0.918-1.853,1.648-3.484,1.648c-0.323,0-0.663-0.033-0.952-0.102l-0.17-0.034v2.924
		c0.526-0.425,1.088-0.781,1.989-0.781c0.237,0,0.476,0.033,0.696,0.085c1.496,0.374,2.584,1.836,2.584,3.638
		c0,2.04-1.598,3.791-3.74,3.791c-0.799,0-1.325-0.204-1.818-0.595c-0.153-0.103-0.442-0.392-0.562-0.562
		c-0.356-0.425-0.561-0.952-0.646-1.513c0-0.103-0.018-0.221-0.018-0.323c0-0.663,0.408-1.02,0.97-1.02
		C337.14,765.511,337.564,765.918,337.564,766.496z"/>
	<path d="M345.929,769.148c-0.511,0-0.851-0.272-0.851-0.782c0-0.663,0.511-1.122,1.037-1.258c0.051,0,0.153-0.017,0.221-0.017
		c0.578,0,0.885,0.407,0.885,1.139c0,0.204-0.018,0.408-0.034,0.51c-0.238,1.105-0.765,2.074-1.411,2.806
		c-0.306,0.356-0.867,0.9-1.003,0.9c-0.103,0-0.323-0.323-0.323-0.391c0-0.068,0.068-0.119,0.188-0.222
		c0.204-0.152,0.544-0.51,0.748-0.747c0.492-0.578,0.815-1.19,1.02-1.837c0.034-0.102,0.068-0.203,0.068-0.221
		C346.473,769.013,346.251,769.148,345.929,769.148z"/>
	<path d="M358.032,758.506c-0.952,0-1.513,0.408-1.989,1.021c-0.526,0.731-0.799,1.87-0.799,3.434c0,0.052,0.017,0.068,0.017,0.068
		c0.018,0,0.085-0.136,0.137-0.221c0.407-0.596,0.935-1.021,1.887-1.021c0.561,0,0.935,0.085,1.377,0.323
		c0.544,0.306,1.139,0.969,1.479,1.649c0.255,0.595,0.356,0.951,0.356,1.818v0.307c0,0.306-0.017,0.459-0.085,0.73
		c-0.136,0.697-0.476,1.292-1.054,1.887c-0.51,0.527-1.003,0.816-1.632,0.952c-0.204,0.052-0.442,0.068-0.681,0.068
		c-0.204,0-0.408-0.017-0.578-0.051c-0.799-0.153-1.529-0.646-2.006-1.36c-0.68-1.071-1.003-2.533-1.003-4.284
		c0-2.481,0.918-4.352,2.448-5.354c0.578-0.408,1.224-0.646,1.989-0.646c1.309,0,2.192,0.748,2.192,1.972
		c0,0.578-0.356,0.936-0.9,0.936c-0.527,0-0.901-0.323-0.901-0.901c0-0.561,0.323-0.815,0.799-0.9
		C358.814,758.659,358.475,758.54,358.032,758.506z M357.114,762.399c-0.408,0-0.748,0.119-1.021,0.391
		c-0.526,0.527-0.833,1.479-0.833,2.687c0,0.884,0.103,1.802,0.204,2.091c0.204,0.629,0.748,1.224,1.547,1.224
		c0.612,0,1.021-0.221,1.326-0.646c0.374-0.527,0.392-1.207,0.392-2.278v-0.271v-0.272c0-1.088-0.018-1.802-0.392-2.312
		C358.032,762.62,357.709,762.399,357.114,762.399z"/>
	<path d="M373.894,762.434c0,0.34-1.156,4.606-1.259,5.219c-0.033,0.136-0.033,0.34-0.033,0.51c0,0.272,0.017,0.493,0.221,0.527
		c0.153,0.051,0.289,0,0.425-0.153c0.238-0.255,0.408-0.68,0.646-1.614c0.102-0.357,0.085-0.374,0.374-0.374h0.085
		c0.255,0,0.289,0,0.322,0.033c0.034,0.034,0.052,0.052,0.052,0.119c0,0.051-0.018,0.136-0.034,0.255
		c-0.238,0.851-0.459,1.514-0.936,1.989c-0.221,0.221-0.51,0.391-0.884,0.391c-0.561,0-0.969-0.203-1.241-0.561
		c-0.085-0.102-0.237-0.391-0.237-0.442c0-0.017-0.068,0.052-0.17,0.137c-0.63,0.578-1.241,0.866-1.854,0.866
		c-0.204,0-0.408-0.033-0.612-0.102c-0.918-0.306-1.547-1.258-1.547-2.567c0-0.391,0.068-0.799,0.17-1.24
		c0.374-1.514,1.395-2.873,2.618-3.469c0.392-0.187,0.68-0.322,1.156-0.322c0.459,0,0.765,0.102,1.037,0.306
		c0.17,0.136,0.306,0.323,0.425,0.476c0.068-0.221,0.391-0.441,0.714-0.441C373.587,761.975,373.894,762.161,373.894,762.434z
		 M371.156,762.264c-0.34,0-0.714,0.204-1.054,0.561c-0.511,0.527-0.766,1.122-1.156,2.669c-0.238,1.003-0.323,1.377-0.323,1.819
		v0.136c0,0.595,0.085,0.867,0.391,1.105c0.119,0.102,0.289,0.152,0.477,0.152c0.204,0,0.442-0.067,0.663-0.204
		c0.306-0.187,0.663-0.526,0.952-0.9c0.306-0.408,0.221-0.188,0.714-2.143c0.306-1.224,0.425-1.751,0.425-1.802
		c0-0.136-0.085-0.459-0.153-0.646C371.921,762.553,371.632,762.264,371.156,762.264z"/>
	<path d="M375.458,764.27c0-0.068,0.17-0.663,0.271-0.952c0.204-0.612,0.392-0.969,0.68-1.258c0.238-0.255,0.493-0.425,0.901-0.425
		c0.748,0,1.225,0.356,1.462,0.9c0.018,0.068,0.051,0.153,0.068,0.188v0.067l0.221-0.221c0.527-0.527,1.173-0.935,2.159-0.935
		c1.122,0,1.904,0.629,1.904,1.768c0,0.323-0.068,0.731-0.204,1.258c-0.188,0.681-0.392,1.326-0.766,2.38
		c-0.237,0.663-0.288,0.833-0.322,1.071c-0.018,0.103-0.034,0.188-0.034,0.272c0,0.187,0.068,0.306,0.289,0.306
		c0.271,0,0.425-0.102,0.629-0.272c0.306-0.322,0.544-0.815,0.765-1.581c0.068-0.271,0.068-0.288,0.323-0.288h0.102
		c0.256,0,0.289,0,0.323,0.033c0.034,0.034,0.068,0.068,0.068,0.137c0,0.051-0.018,0.118-0.051,0.221
		c-0.323,1.071-0.867,2.022-1.854,2.346c-0.136,0.034-0.17,0.034-0.408,0.034c-0.866,0-1.394-0.527-1.394-1.394
		c0-0.289,0.017-0.408,0.271-1.071c0.477-1.343,0.8-2.397,0.901-3.061c0.034-0.152,0.034-0.374,0.034-0.577
		c0-0.153,0-0.307-0.018-0.392c-0.102-0.306-0.288-0.561-0.662-0.561c-0.068,0-0.137,0-0.222,0.017
		c-0.765,0.103-1.411,0.629-1.989,1.615c-0.255,0.441-0.203,0.271-0.799,2.686c-0.374,1.496-0.561,2.21-0.595,2.295
		c-0.136,0.272-0.442,0.459-0.748,0.459c-0.323,0-0.527-0.187-0.544-0.492c0-0.103,0.051-0.289,0.663-2.771
		c0.356-1.445,0.68-2.72,0.68-2.805c0.034-0.153,0.051-0.307,0.051-0.442c0-0.34-0.102-0.561-0.374-0.561h-0.051
		c-0.152,0.033-0.34,0.221-0.493,0.526c-0.136,0.289-0.271,0.731-0.459,1.479c-0.085,0.17,0,0.153-0.391,0.153h-0.289
		C375.525,764.389,375.458,764.32,375.458,764.27z"/>
	<path d="M393.172,757.351c0.085,0,0.203,0.034,0.203,0.136s-0.118,0.646-1.224,5.049l-1.292,5.151
		c-0.017,0.102-0.017,0.271-0.017,0.425c0,0.306,0,0.527,0.221,0.578c0.153,0.051,0.289,0,0.425-0.153
		c0.238-0.255,0.408-0.68,0.646-1.614c0.102-0.357,0.085-0.374,0.374-0.374h0.085c0.255,0,0.289,0,0.322,0.033
		c0.068,0.052,0.068,0.119,0.018,0.374c-0.238,0.851-0.459,1.514-0.936,1.989c-0.221,0.221-0.51,0.391-0.884,0.391
		c-0.561,0-0.969-0.203-1.241-0.561c-0.085-0.102-0.237-0.391-0.237-0.442c0-0.017-0.068,0.052-0.17,0.137
		c-0.63,0.578-1.241,0.866-1.854,0.866c-0.204,0-0.408-0.033-0.612-0.102c-0.918-0.306-1.547-1.258-1.547-2.567
		c0-0.391,0.068-0.799,0.17-1.24c0.459-1.87,1.87-3.417,3.384-3.74c0.136-0.034,0.288-0.034,0.459-0.034
		c1.02,0,1.309,0.697,1.359,0.697s0.918-3.672,0.918-3.672c0-0.153-0.017-0.222-0.102-0.272c-0.103-0.034-0.307-0.068-0.681-0.085
		h-0.356c-0.119-0.119-0.153-0.085-0.068-0.459c0.052-0.204,0.085-0.323,0.222-0.323
		C390.791,757.537,393.154,757.351,393.172,757.351z M389.397,762.264c-0.34,0-0.714,0.204-1.054,0.561
		c-0.511,0.527-0.766,1.122-1.156,2.669c-0.238,1.003-0.323,1.377-0.323,1.819v0.136c0,0.425,0.018,0.527,0.119,0.748
		c0.153,0.34,0.425,0.51,0.748,0.51c0.136,0,0.289-0.033,0.442-0.102c0.459-0.188,1.189-0.918,1.41-1.36
		c0.068-0.119,0.901-3.468,0.901-3.587s-0.085-0.459-0.153-0.646C390.162,762.553,389.873,762.264,389.397,762.264z"/>
	<path d="M399.597,763.453l-0.306-0.221c-0.17-0.103-0.392-0.255-0.459-0.34c-0.477-0.408-0.799-0.969-0.936-1.615
		c-0.033-0.153-0.033-0.221-0.033-0.527c0-0.578,0.067-0.85,0.271-1.224c0.477-0.986,1.479-1.7,2.754-1.7
		c1.53,0,2.788,0.884,3.061,2.159c0.017,0.102,0.017,0.255,0.017,0.408c0,0.187,0,0.374-0.034,0.51
		c-0.17,0.765-0.68,1.394-1.547,1.938c-0.102,0.067-0.204,0.118-0.204,0.136c-0.017,0,0.952,0.646,0.986,0.68
		c0.68,0.544,1.275,1.395,1.275,2.533c0,1.819-1.479,3.332-3.536,3.332c-1.445,0-2.499-0.629-3.077-1.53
		c-0.272-0.391-0.425-0.833-0.425-1.479C397.404,765.034,398.39,764.116,399.597,763.453z M400.923,768.791
		c0.952,0,1.751-0.459,2.125-1.036c0.188-0.289,0.289-0.612,0.289-0.936c0-0.459-0.204-0.918-0.595-1.292
		c-0.17-0.17-0.188-0.17-1.411-0.969c-0.578-0.374-1.071-0.681-1.088-0.697c-0.018,0-0.103,0.051-0.204,0.102
		c-0.681,0.442-1.19,1.037-1.411,1.7c-0.085,0.272-0.136,0.544-0.136,0.816C398.492,767.856,399.682,768.791,400.923,768.791z
		 M401.348,758.54c-0.119-0.017-0.374-0.017-0.561-0.017c-0.681,0-1.156,0.255-1.514,0.612c-0.255,0.237-0.425,0.526-0.425,0.935
		c0,0.493,0.289,0.935,0.612,1.156c0.051,0.051,0.544,0.374,1.088,0.714l0.986,0.646c0.136-0.102,0.34-0.203,0.526-0.374
		c0.511-0.407,0.918-0.985,0.918-1.784C402.979,759.391,402.181,758.71,401.348,758.54z"/>
	<path d="M407.519,767.108c0.612,0,1.037,0.476,1.037,1.003c0,0.612-0.493,1.037-1.02,1.037c-0.612,0-1.037-0.493-1.037-1.02
		C406.499,767.551,406.94,767.108,407.519,767.108z"/>
</g>
<g>
	<path fill="#F16422" d="M35.2,243.848c0-0.064,0.16-0.624,0.256-0.896c0.192-0.576,0.368-0.912,0.64-1.184
		c0.224-0.24,0.464-0.4,0.848-0.4c0.704,0,1.152,0.336,1.376,0.848c0.016,0.064,0.048,0.144,0.064,0.176v0.064l0.208-0.208
		c0.496-0.496,1.104-0.88,2.032-0.88c1.056,0,1.792,0.592,1.792,1.664c0,0.304-0.064,0.688-0.192,1.184
		c-0.176,0.64-0.368,1.248-0.72,2.24c-0.224,0.624-0.272,0.784-0.304,1.008c-0.016,0.096-0.032,0.176-0.032,0.256
		c0,0.176,0.064,0.288,0.272,0.288c0.256,0,0.4-0.096,0.592-0.256c0.288-0.304,0.512-0.768,0.72-1.488
		c0.064-0.256,0.064-0.272,0.304-0.272h0.096c0.24,0,0.272,0,0.304,0.032c0.032,0.032,0.064,0.064,0.064,0.128
		c0,0.048-0.016,0.112-0.048,0.208c-0.304,1.008-0.816,1.904-1.744,2.208c-0.128,0.032-0.16,0.032-0.384,0.032
		c-0.816,0-1.312-0.496-1.312-1.312c0-0.272,0.016-0.384,0.256-1.008c0.448-1.264,0.752-2.256,0.848-2.88
		c0.032-0.144,0.032-0.352,0.032-0.544c0-0.144,0-0.288-0.016-0.368c-0.096-0.288-0.272-0.528-0.624-0.528
		c-0.064,0-0.128,0-0.208,0.016c-0.72,0.096-1.328,0.592-1.872,1.52c-0.24,0.416-0.192,0.256-0.752,2.528
		c-0.352,1.408-0.528,2.08-0.56,2.16c-0.128,0.256-0.416,0.432-0.704,0.432c-0.304,0-0.496-0.176-0.512-0.464
		c0-0.096,0.048-0.272,0.624-2.608c0.336-1.36,0.64-2.56,0.64-2.64c0.032-0.144,0.048-0.288,0.048-0.416
		c0-0.32-0.096-0.528-0.352-0.528h-0.048c-0.144,0.032-0.32,0.208-0.464,0.496c-0.128,0.272-0.256,0.688-0.432,1.392
		c-0.08,0.16,0,0.144-0.368,0.144h-0.272C35.264,243.959,35.2,243.896,35.2,243.848z"/>
	<path fill="#F16422" d="M45.888,245.671h4.656c4.48,0,4.656,0,4.72,0.032c0.128,0.064,0.176,0.176,0.176,0.288
		c0,0.112-0.048,0.224-0.176,0.288c-0.064,0.032-0.24,0.032-4.72,0.032h-4.656c-0.128-0.08-0.24-0.16-0.24-0.32
		C45.648,245.832,45.76,245.751,45.888,245.671z M55.968,243.208h-4.656c-4.16,0-4.64,0-4.704-0.032
		c-0.128-0.048-0.192-0.176-0.192-0.288c0-0.112,0.064-0.224,0.192-0.288c0.048-0.032,0.224-0.032,4.704-0.032h4.656
		c0.128,0.08,0.24,0.16,0.24,0.32C56.208,243.047,56.096,243.127,55.968,243.208z"/>
	<path fill="#F16422" d="M57.664,240.583c0-1.52,1.328-2.8,2.96-2.8c1.872,0,3.12,1.12,3.392,2.688
		c0.016,0.144,0.032,0.336,0.032,0.528c0,0.704-0.176,1.184-0.56,1.744c-0.336,0.496-0.752,0.928-1.808,1.84
		c-0.56,0.48-0.512,0.432-1.6,1.472l-0.944,0.896l1.216,0.016c1.616,0,2.576-0.032,2.672-0.08c0.048-0.016,0.112-0.176,0.16-0.336
		c0.08-0.224,0.096-0.368,0.224-1.088v-0.048h0.64v0.048c-0.048,0.096-0.4,2.832-0.448,2.928v0.048h-5.936v-0.304
		c0-0.272,0-0.32,0.032-0.368c0.016-0.016,0.624-0.704,1.344-1.52c1.808-2,1.888-2.112,2.24-2.56
		c0.72-0.976,1.072-1.744,1.072-2.672c0-1.344-0.72-2.48-2.096-2.48c-0.72,0-1.152,0.32-1.504,0.832
		c-0.064,0.128-0.144,0.256-0.144,0.272s0.032,0.016,0.08,0.016c0.56,0,0.896,0.464,0.896,0.96c0,0.512-0.368,0.96-0.96,0.96
		C58.016,241.576,57.664,241.127,57.664,240.583z"/>
</g>
<g>
	<path fill="#F16422" d="M35.2,479.67c0-0.064,0.16-0.624,0.256-0.896c0.192-0.576,0.368-0.912,0.64-1.184
		c0.224-0.24,0.464-0.4,0.848-0.4c0.704,0,1.152,0.336,1.376,0.848c0.016,0.064,0.048,0.145,0.064,0.177v0.063l0.208-0.207
		c0.496-0.496,1.104-0.881,2.032-0.881c1.056,0,1.792,0.592,1.792,1.664c0,0.305-0.064,0.688-0.192,1.184
		c-0.176,0.641-0.368,1.248-0.72,2.24c-0.224,0.625-0.272,0.784-0.304,1.008c-0.016,0.097-0.032,0.177-0.032,0.256
		c0,0.177,0.064,0.289,0.272,0.289c0.256,0,0.4-0.096,0.592-0.256c0.288-0.305,0.512-0.769,0.72-1.488
		c0.064-0.256,0.064-0.271,0.304-0.271h0.096c0.24,0,0.272,0,0.304,0.031c0.032,0.032,0.064,0.064,0.064,0.128
		c0,0.048-0.016,0.112-0.048,0.208c-0.304,1.008-0.816,1.904-1.744,2.208c-0.128,0.032-0.16,0.032-0.384,0.032
		c-0.816,0-1.312-0.496-1.312-1.313c0-0.271,0.016-0.384,0.256-1.008c0.448-1.264,0.752-2.256,0.848-2.88
		c0.032-0.144,0.032-0.353,0.032-0.544c0-0.145,0-0.288-0.016-0.368c-0.096-0.288-0.272-0.528-0.624-0.528
		c-0.064,0-0.128,0-0.208,0.017c-0.72,0.096-1.328,0.592-1.872,1.521c-0.24,0.416-0.192,0.256-0.752,2.527
		c-0.352,1.408-0.528,2.08-0.56,2.16c-0.128,0.256-0.416,0.432-0.704,0.432c-0.304,0-0.496-0.176-0.512-0.464
		c0-0.096,0.048-0.272,0.624-2.608c0.336-1.359,0.64-2.56,0.64-2.64c0.032-0.144,0.048-0.288,0.048-0.416
		c0-0.319-0.096-0.528-0.352-0.528h-0.048c-0.144,0.033-0.32,0.209-0.464,0.496c-0.128,0.272-0.256,0.688-0.432,1.393
		c-0.08,0.16,0,0.145-0.368,0.145h-0.272C35.264,479.781,35.2,479.718,35.2,479.67z"/>
	<path fill="#F16422" d="M45.888,481.494h4.656c4.48,0,4.656,0,4.72,0.031c0.128,0.064,0.176,0.176,0.176,0.289
		c0,0.111-0.048,0.223-0.176,0.287c-0.064,0.032-0.24,0.032-4.72,0.032h-4.656c-0.128-0.08-0.24-0.16-0.24-0.319
		C45.648,481.654,45.76,481.574,45.888,481.494z M55.968,479.029h-4.656c-4.16,0-4.64,0-4.704-0.031
		c-0.128-0.049-0.192-0.176-0.192-0.288s0.064-0.224,0.192-0.288c0.048-0.032,0.224-0.032,4.704-0.032h4.656
		c0.128,0.08,0.24,0.16,0.24,0.32C56.208,478.869,56.096,478.949,55.968,479.029z"/>
	<path fill="#F16422" d="M62.192,484.214c-0.432,0-1.92,0-2.144,0.048h-0.144v-0.736H60.4c0.512-0.016,0.72-0.031,0.848-0.08
		c0.08-0.016,0.16-0.096,0.192-0.16c0.016-0.031,0.016-0.319,0.016-0.863v-0.801h-4.144v-0.735l2.416-3.696
		c1.52-2.304,2.448-3.711,2.48-3.728c0.032-0.032,0.064-0.032,0.336-0.032h0.288l0.096,0.096v7.36h1.472v0.735h-1.472v0.816
		c0,0.881,0,0.864,0.096,0.961c0.112,0.096,0.256,0.111,0.912,0.127h0.464v0.736h-0.144
		C64.032,484.214,62.608,484.214,62.192,484.214z M61.552,475.542l-3.504,5.327l1.744,0.017h1.76V475.542z"/>
</g>
<g>
	<path fill="#F16422" d="M35.2,715.49c0-0.064,0.16-0.624,0.256-0.896c0.192-0.576,0.368-0.912,0.64-1.184
		c0.224-0.24,0.464-0.4,0.848-0.4c0.704,0,1.152,0.336,1.376,0.848c0.016,0.064,0.048,0.145,0.064,0.177v0.063l0.208-0.207
		c0.496-0.496,1.104-0.881,2.032-0.881c1.056,0,1.792,0.592,1.792,1.664c0,0.305-0.064,0.688-0.192,1.184
		c-0.176,0.641-0.368,1.248-0.72,2.24c-0.224,0.625-0.272,0.784-0.304,1.008c-0.016,0.097-0.032,0.177-0.032,0.256
		c0,0.177,0.064,0.289,0.272,0.289c0.256,0,0.4-0.096,0.592-0.256c0.288-0.305,0.512-0.769,0.72-1.488
		c0.064-0.256,0.064-0.271,0.304-0.271h0.096c0.24,0,0.272,0,0.304,0.031c0.032,0.032,0.064,0.064,0.064,0.128
		c0,0.048-0.016,0.112-0.048,0.208c-0.304,1.008-0.816,1.904-1.744,2.208c-0.128,0.032-0.16,0.032-0.384,0.032
		c-0.816,0-1.312-0.496-1.312-1.313c0-0.271,0.016-0.384,0.256-1.008c0.448-1.264,0.752-2.256,0.848-2.88
		c0.032-0.144,0.032-0.353,0.032-0.544c0-0.145,0-0.288-0.016-0.368c-0.096-0.288-0.272-0.528-0.624-0.528
		c-0.064,0-0.128,0-0.208,0.017c-0.72,0.096-1.328,0.592-1.872,1.521c-0.24,0.416-0.192,0.256-0.752,2.527
		c-0.352,1.408-0.528,2.08-0.56,2.16c-0.128,0.256-0.416,0.432-0.704,0.432c-0.304,0-0.496-0.176-0.512-0.464
		c0-0.096,0.048-0.272,0.624-2.608c0.336-1.359,0.64-2.56,0.64-2.64c0.032-0.144,0.048-0.288,0.048-0.416
		c0-0.319-0.096-0.528-0.352-0.528h-0.048c-0.144,0.033-0.32,0.209-0.464,0.496c-0.128,0.272-0.256,0.688-0.432,1.393
		c-0.08,0.16,0,0.145-0.368,0.145h-0.272C35.264,715.602,35.2,715.538,35.2,715.49z"/>
	<path fill="#F16422" d="M45.888,717.314h4.656c4.48,0,4.656,0,4.72,0.031c0.128,0.064,0.176,0.176,0.176,0.289
		c0,0.111-0.048,0.223-0.176,0.287c-0.064,0.032-0.24,0.032-4.72,0.032h-4.656c-0.128-0.08-0.24-0.16-0.24-0.319
		C45.648,717.475,45.76,717.395,45.888,717.314z M55.968,714.85h-4.656c-4.16,0-4.64,0-4.704-0.031
		c-0.128-0.049-0.192-0.176-0.192-0.288s0.064-0.224,0.192-0.288c0.048-0.032,0.224-0.032,4.704-0.032h4.656
		c0.128,0.08,0.24,0.16,0.24,0.32C56.208,714.689,56.096,714.77,55.968,714.85z"/>
	<path fill="#F16422" d="M61.84,710.066c-0.896,0-1.424,0.384-1.872,0.96c-0.496,0.688-0.752,1.76-0.752,3.231
		c0,0.049,0.016,0.064,0.016,0.064c0.016,0,0.08-0.128,0.128-0.208c0.384-0.56,0.88-0.96,1.776-0.96c0.528,0,0.88,0.08,1.296,0.304
		c0.512,0.288,1.072,0.912,1.392,1.552c0.24,0.561,0.336,0.896,0.336,1.713v0.287c0,0.288-0.016,0.432-0.08,0.688
		c-0.128,0.655-0.448,1.216-0.992,1.776c-0.48,0.496-0.944,0.768-1.536,0.896c-0.192,0.048-0.416,0.063-0.64,0.063
		c-0.192,0-0.384-0.016-0.544-0.047c-0.752-0.145-1.44-0.609-1.888-1.281c-0.64-1.008-0.944-2.383-0.944-4.031
		c0-2.336,0.864-4.096,2.304-5.04c0.544-0.384,1.152-0.608,1.872-0.608c1.232,0,2.064,0.705,2.064,1.856
		c0,0.544-0.336,0.88-0.848,0.88c-0.496,0-0.848-0.305-0.848-0.848c0-0.528,0.304-0.769,0.752-0.848
		C62.576,710.21,62.256,710.098,61.84,710.066z M60.976,713.73c-0.384,0-0.704,0.111-0.96,0.367
		c-0.496,0.496-0.784,1.393-0.784,2.528c0,0.832,0.096,1.696,0.192,1.968c0.192,0.592,0.704,1.152,1.456,1.152
		c0.576,0,0.96-0.208,1.248-0.607c0.352-0.496,0.368-1.137,0.368-2.145v-0.256v-0.256c0-1.024-0.016-1.696-0.368-2.176
		C61.84,713.938,61.536,713.73,60.976,713.73z"/>
</g>
<g>
	<path fill="#F16422" d="M271.021,243.848c0-0.064,0.159-0.624,0.256-0.896c0.191-0.576,0.367-0.912,0.64-1.184
		c0.224-0.24,0.464-0.4,0.848-0.4c0.704,0,1.151,0.336,1.376,0.848c0.016,0.064,0.049,0.144,0.064,0.176v0.064l0.207-0.208
		c0.496-0.496,1.104-0.88,2.033-0.88c1.055,0,1.791,0.592,1.791,1.664c0,0.304-0.063,0.688-0.191,1.184
		c-0.176,0.64-0.368,1.248-0.721,2.24c-0.224,0.624-0.271,0.784-0.304,1.008c-0.016,0.096-0.032,0.176-0.032,0.256
		c0,0.176,0.064,0.288,0.272,0.288c0.256,0,0.399-0.096,0.592-0.256c0.288-0.304,0.513-0.768,0.72-1.488
		c0.064-0.256,0.064-0.272,0.305-0.272h0.096c0.24,0,0.271,0,0.305,0.032c0.031,0.032,0.063,0.064,0.063,0.128
		c0,0.048-0.017,0.112-0.048,0.208c-0.305,1.008-0.816,1.904-1.744,2.208c-0.128,0.032-0.16,0.032-0.385,0.032
		c-0.815,0-1.312-0.496-1.312-1.312c0-0.272,0.017-0.384,0.257-1.008c0.447-1.264,0.752-2.256,0.848-2.88
		c0.031-0.144,0.031-0.352,0.031-0.544c0-0.144,0-0.288-0.016-0.368c-0.096-0.288-0.271-0.528-0.624-0.528
		c-0.063,0-0.128,0-0.208,0.016c-0.72,0.096-1.328,0.592-1.872,1.52c-0.239,0.416-0.192,0.256-0.752,2.528
		c-0.353,1.408-0.528,2.08-0.56,2.16c-0.129,0.256-0.416,0.432-0.704,0.432c-0.304,0-0.496-0.176-0.513-0.464
		c0-0.096,0.049-0.272,0.625-2.608c0.336-1.36,0.64-2.56,0.64-2.64c0.032-0.144,0.048-0.288,0.048-0.416
		c0-0.32-0.096-0.528-0.352-0.528h-0.049c-0.144,0.032-0.32,0.208-0.463,0.496c-0.129,0.272-0.257,0.688-0.433,1.392
		c-0.08,0.16,0,0.144-0.368,0.144h-0.271C271.085,243.959,271.021,243.896,271.021,243.848z"/>
	<path fill="#F16422" d="M281.709,245.671h4.656c4.479,0,4.655,0,4.719,0.032c0.129,0.064,0.177,0.176,0.177,0.288
		c0,0.112-0.048,0.224-0.177,0.288c-0.063,0.032-0.239,0.032-4.719,0.032h-4.656c-0.129-0.08-0.24-0.16-0.24-0.32
		C281.469,245.832,281.58,245.751,281.709,245.671z M291.789,243.208h-4.656c-4.16,0-4.641,0-4.704-0.032
		c-0.128-0.048-0.192-0.176-0.192-0.288c0-0.112,0.064-0.224,0.192-0.288c0.048-0.032,0.224-0.032,4.704-0.032h4.656
		c0.127,0.08,0.24,0.16,0.24,0.32C292.029,243.047,291.916,243.127,291.789,243.208z"/>
	<path fill="#F16422" d="M293.789,240.056c0-1.296,1.215-2.112,2.383-2.256h0.24c0.24,0,0.561,0,0.705,0.016
		c0.383,0.064,0.719,0.176,1.071,0.336c0.704,0.352,1.151,0.864,1.328,1.504c0.032,0.112,0.048,0.272,0.048,0.432
		c0,1.296-0.928,2.336-2.048,2.752c-0.032,0.016-0.048,0.016-0.048,0.032c0,0.048,0.544,0.08,1.216,0.528
		c0.815,0.528,1.312,1.328,1.312,2.24c0,0.432-0.096,0.848-0.304,1.264c-0.496,1.072-1.743,1.888-3.2,1.888
		c-1.408,0-2.592-0.656-2.976-1.648c-0.112-0.24-0.16-0.544-0.16-0.784c0-0.608,0.464-1.008,1.009-1.008
		c0.592,0,1.023,0.432,1.023,1.008c0,0.496-0.305,0.88-0.768,0.992l-0.113,0.032c0.496,0.416,1.201,0.72,1.984,0.72
		c0.561,0,1.041-0.304,1.328-0.848c0.208-0.4,0.271-0.816,0.271-1.616v-0.32c0-0.992-0.383-1.712-1.023-2.032
		c-0.24-0.096-0.24-0.096-0.977-0.112l-0.672-0.016l-0.047-0.032c-0.033-0.048-0.033-0.064-0.033-0.256s0-0.192,0.049-0.24
		c0.031-0.032,0.064-0.048,0.08-0.048c0.048,0,0.832-0.064,0.928-0.08c0.977-0.128,1.439-1.248,1.439-2.464
		c0-0.704-0.144-1.136-0.56-1.392c-0.239-0.16-0.432-0.224-0.752-0.224c-0.479,0-1.024,0.16-1.407,0.432
		c-0.129,0.08-0.336,0.288-0.32,0.304c0,0,0.048,0.016,0.111,0.032c0.432,0.048,0.752,0.464,0.752,0.928
		c0,0.496-0.367,0.912-0.943,0.912C294.125,241.032,293.789,240.616,293.789,240.056z"/>
</g>
<g>
	<path fill="#F16422" d="M271.021,479.67c0-0.064,0.159-0.624,0.256-0.896c0.191-0.576,0.367-0.912,0.64-1.184
		c0.224-0.24,0.464-0.4,0.848-0.4c0.704,0,1.151,0.336,1.376,0.848c0.016,0.064,0.049,0.145,0.064,0.177v0.063l0.207-0.207
		c0.496-0.496,1.104-0.881,2.033-0.881c1.055,0,1.791,0.592,1.791,1.664c0,0.305-0.063,0.688-0.191,1.184
		c-0.176,0.641-0.368,1.248-0.721,2.24c-0.224,0.625-0.271,0.784-0.304,1.008c-0.016,0.097-0.032,0.177-0.032,0.256
		c0,0.177,0.064,0.289,0.272,0.289c0.256,0,0.399-0.096,0.592-0.256c0.288-0.305,0.513-0.769,0.72-1.488
		c0.064-0.256,0.064-0.271,0.305-0.271h0.096c0.24,0,0.271,0,0.305,0.031c0.031,0.032,0.063,0.064,0.063,0.128
		c0,0.048-0.017,0.112-0.048,0.208c-0.305,1.008-0.816,1.904-1.744,2.208c-0.128,0.032-0.16,0.032-0.385,0.032
		c-0.815,0-1.312-0.496-1.312-1.313c0-0.271,0.017-0.384,0.257-1.008c0.447-1.264,0.752-2.256,0.848-2.88
		c0.031-0.144,0.031-0.353,0.031-0.544c0-0.145,0-0.288-0.016-0.368c-0.096-0.288-0.271-0.528-0.624-0.528
		c-0.063,0-0.128,0-0.208,0.017c-0.72,0.096-1.328,0.592-1.872,1.521c-0.239,0.416-0.192,0.256-0.752,2.527
		c-0.353,1.408-0.528,2.08-0.56,2.16c-0.129,0.256-0.416,0.432-0.704,0.432c-0.304,0-0.496-0.176-0.513-0.464
		c0-0.096,0.049-0.272,0.625-2.608c0.336-1.359,0.64-2.56,0.64-2.64c0.032-0.144,0.048-0.288,0.048-0.416
		c0-0.319-0.096-0.528-0.352-0.528h-0.049c-0.144,0.033-0.32,0.209-0.463,0.496c-0.129,0.272-0.257,0.688-0.433,1.393
		c-0.08,0.16,0,0.145-0.368,0.145h-0.271C271.085,479.781,271.021,479.718,271.021,479.67z"/>
	<path fill="#F16422" d="M281.709,481.494h4.656c4.479,0,4.655,0,4.719,0.031c0.129,0.064,0.177,0.176,0.177,0.289
		c0,0.111-0.048,0.223-0.177,0.287c-0.063,0.032-0.239,0.032-4.719,0.032h-4.656c-0.129-0.08-0.24-0.16-0.24-0.319
		C281.469,481.654,281.58,481.574,281.709,481.494z M291.789,479.029h-4.656c-4.16,0-4.641,0-4.704-0.031
		c-0.128-0.049-0.192-0.176-0.192-0.288s0.064-0.224,0.192-0.288c0.048-0.032,0.224-0.032,4.704-0.032h4.656
		c0.127,0.08,0.24,0.16,0.24,0.32C292.029,478.869,291.916,478.949,291.789,479.029z"/>
	<path fill="#F16422" d="M295.309,481.766c0,0.512-0.464,0.88-0.88,0.88h-0.112l0.049,0.08c0.303,0.64,0.959,1.185,1.903,1.185
		c0.815,0,1.328-0.369,1.632-0.961c0.225-0.432,0.305-1.056,0.305-2.047c0-1.232-0.113-1.793-0.433-2.225
		c-0.256-0.32-0.496-0.527-1.024-0.527c-0.863,0-1.52,0.463-1.888,1.088c-0.079,0.144-0.112,0.16-0.353,0.16
		c-0.223,0-0.271-0.017-0.303-0.097c-0.033-0.063-0.033-0.304-0.033-2.8c0-0.864-0.016-1.504-0.016-1.969
		c0-0.607,0.016-0.896,0.096-0.896c0.017-0.016,0.049-0.032,0.064-0.032s0.145,0.049,0.288,0.096
		c0.64,0.257,1.296,0.416,2.128,0.416c0.752,0,1.504-0.159,2.176-0.447c0.096-0.048,0.16-0.064,0.209-0.064
		c0.096,0,0.127,0.096,0.127,0.289v0.207c-0.72,0.864-1.744,1.553-3.279,1.553c-0.305,0-0.625-0.032-0.896-0.097l-0.16-0.032v2.752
		c0.496-0.399,1.024-0.735,1.873-0.735c0.223,0,0.447,0.032,0.655,0.079c1.407,0.353,2.433,1.729,2.433,3.425
		c0,1.92-1.505,3.567-3.521,3.567c-0.752,0-1.248-0.191-1.712-0.56c-0.145-0.097-0.416-0.368-0.528-0.528
		c-0.336-0.399-0.528-0.896-0.608-1.424c0-0.096-0.016-0.208-0.016-0.304c0-0.624,0.385-0.96,0.912-0.96
		C294.908,480.838,295.309,481.222,295.309,481.766z"/>
</g>
<g>
	<path fill="#F16422" d="M271.021,715.49c0-0.064,0.159-0.624,0.256-0.896c0.191-0.576,0.367-0.912,0.64-1.184
		c0.224-0.24,0.464-0.4,0.848-0.4c0.704,0,1.151,0.336,1.376,0.848c0.016,0.064,0.049,0.145,0.064,0.177v0.063l0.207-0.207
		c0.496-0.496,1.104-0.881,2.033-0.881c1.055,0,1.791,0.592,1.791,1.664c0,0.305-0.063,0.688-0.191,1.184
		c-0.176,0.641-0.368,1.248-0.721,2.24c-0.224,0.625-0.271,0.784-0.304,1.008c-0.016,0.097-0.032,0.177-0.032,0.256
		c0,0.177,0.064,0.289,0.272,0.289c0.256,0,0.399-0.096,0.592-0.256c0.288-0.305,0.513-0.769,0.72-1.488
		c0.064-0.256,0.064-0.271,0.305-0.271h0.096c0.24,0,0.271,0,0.305,0.031c0.031,0.032,0.063,0.064,0.063,0.128
		c0,0.048-0.017,0.112-0.048,0.208c-0.305,1.008-0.816,1.904-1.744,2.208c-0.128,0.032-0.16,0.032-0.385,0.032
		c-0.815,0-1.312-0.496-1.312-1.313c0-0.271,0.017-0.384,0.257-1.008c0.447-1.264,0.752-2.256,0.848-2.88
		c0.031-0.144,0.031-0.353,0.031-0.544c0-0.145,0-0.288-0.016-0.368c-0.096-0.288-0.271-0.528-0.624-0.528
		c-0.063,0-0.128,0-0.208,0.017c-0.72,0.096-1.328,0.592-1.872,1.521c-0.239,0.416-0.192,0.256-0.752,2.527
		c-0.353,1.408-0.528,2.08-0.56,2.16c-0.129,0.256-0.416,0.432-0.704,0.432c-0.304,0-0.496-0.176-0.513-0.464
		c0-0.096,0.049-0.272,0.625-2.608c0.336-1.359,0.64-2.56,0.64-2.64c0.032-0.144,0.048-0.288,0.048-0.416
		c0-0.319-0.096-0.528-0.352-0.528h-0.049c-0.144,0.033-0.32,0.209-0.463,0.496c-0.129,0.272-0.257,0.688-0.433,1.393
		c-0.08,0.16,0,0.145-0.368,0.145h-0.271C271.085,715.602,271.021,715.538,271.021,715.49z"/>
	<path fill="#F16422" d="M281.709,717.314h4.656c4.479,0,4.655,0,4.719,0.031c0.129,0.064,0.177,0.176,0.177,0.289
		c0,0.111-0.048,0.223-0.177,0.287c-0.063,0.032-0.239,0.032-4.719,0.032h-4.656c-0.129-0.08-0.24-0.16-0.24-0.319
		C281.469,717.475,281.58,717.395,281.709,717.314z M291.789,714.85h-4.656c-4.16,0-4.641,0-4.704-0.031
		c-0.128-0.049-0.192-0.176-0.192-0.288s0.064-0.224,0.192-0.288c0.048-0.032,0.224-0.032,4.704-0.032h4.656
		c0.127,0.08,0.24,0.16,0.24,0.32C292.029,714.689,291.916,714.77,291.789,714.85z"/>
	<path fill="#F16422" d="M295.437,714.723l-0.288-0.209c-0.16-0.096-0.367-0.24-0.432-0.319c-0.448-0.384-0.752-0.912-0.881-1.521
		c-0.031-0.144-0.031-0.207-0.031-0.496c0-0.543,0.064-0.8,0.256-1.151c0.447-0.929,1.393-1.601,2.592-1.601
		c1.439,0,2.624,0.832,2.881,2.032c0.016,0.097,0.016,0.24,0.016,0.384c0,0.176,0,0.353-0.032,0.48
		c-0.16,0.72-0.64,1.313-1.456,1.824c-0.096,0.063-0.191,0.111-0.191,0.127c-0.017,0,0.896,0.609,0.928,0.641
		c0.64,0.512,1.199,1.313,1.199,2.384c0,1.712-1.392,3.136-3.328,3.136c-1.359,0-2.352-0.592-2.896-1.439
		c-0.256-0.368-0.399-0.784-0.399-1.393C293.373,716.21,294.301,715.346,295.437,714.723z M296.685,719.746
		c0.896,0,1.647-0.432,2-0.977c0.176-0.271,0.272-0.576,0.272-0.879c0-0.433-0.192-0.865-0.561-1.217
		c-0.16-0.16-0.176-0.16-1.328-0.912c-0.544-0.352-1.008-0.64-1.023-0.656c-0.017,0-0.096,0.049-0.192,0.097
		c-0.64,0.416-1.12,0.976-1.328,1.601c-0.08,0.256-0.128,0.512-0.128,0.768C294.396,718.866,295.517,719.746,296.685,719.746z
		 M297.084,710.098c-0.111-0.016-0.352-0.016-0.527-0.016c-0.641,0-1.088,0.24-1.424,0.576c-0.24,0.225-0.4,0.496-0.4,0.88
		c0,0.464,0.271,0.88,0.576,1.088c0.048,0.048,0.512,0.353,1.023,0.673l0.928,0.607c0.129-0.096,0.32-0.192,0.496-0.352
		c0.48-0.385,0.865-0.929,0.865-1.681C298.621,710.898,297.869,710.258,297.084,710.098z"/>
</g>
</svg>
