<?xml version="1.0" encoding="utf-8"?>
<!-- Generator: Adobe Illustrator 12.0.0, SVG Export Plug-In . SVG Version: 6.00 Build 51448)  -->
<!DOCTYPE svg PUBLIC "-//W3C//DTD SVG 1.1//EN" "http://www.w3.org/Graphics/SVG/1.1/DTD/svg11.dtd" [
	<!ENTITY ns_svg "http://www.w3.org/2000/svg">
	<!ENTITY ns_xlink "http://www.w3.org/1999/xlink">
]>
<svg  version="1.1" id="Layer_1" xmlns="&ns_svg;" xmlns:xlink="&ns_xlink;" width="512" height="800" viewBox="0 0 512 800"
	 overflow="visible" enable-background="new 0 0 512 800" xml:space="preserve">
<g transform="translate(-5, 40)">
	
		<radialGradient id="XMLID_7_" cx="323.2461" cy="496.3252" r="255.9795" gradientTransform="matrix(0.4518 0 0 -0.4518 -1.9531 323.3293)" gradientUnits="userSpaceOnUse">
		<stop  offset="0" style="stop-color:#FFFFFF"/>
		<stop  offset="0.05" style="stop-color:#FDFDFD"/>
		<stop  offset="0.1" style="stop-color:#F9FAFA"/>
		<stop  offset="0.15" style="stop-color:#F3F4F5"/>
		<stop  offset="0.2" style="stop-color:#EBECEE"/>
		<stop  offset="0.25" style="stop-color:#E0E2E5"/>
		<stop  offset="0.3" style="stop-color:#D4D7DB"/>
		<stop  offset="0.35" style="stop-color:#C6CACF"/>
		<stop  offset="0.4" style="stop-color:#B7BCC2"/>
		<stop  offset="0.45" style="stop-color:#A7ADB5"/>
		<stop  offset="0.5" style="stop-color:#979EA8"/>
		<stop  offset="0.55" style="stop-color:#868F9A"/>
		<stop  offset="0.6" style="stop-color:#76808D"/>
		<stop  offset="0.65" style="stop-color:#677280"/>
		<stop  offset="0.7" style="stop-color:#596574"/>
		<stop  offset="0.75" style="stop-color:#4D5A6A"/>
		<stop  offset="0.8" style="stop-color:#425061"/>
		<stop  offset="0.85" style="stop-color:#3A485A"/>
		<stop  offset="0.9" style="stop-color:#344255"/>
		<stop  offset="1" style="stop-color:#2F3E51"/>
	</radialGradient>
	<path fill="url(#XMLID_7_)" d="M28.438-16.562v231.303h231.304V-16.562H28.438z"/>
	<g transform="translate(522, 0)">
		
			<radialGradient id="XMLID_8_" cx="-198.7539" cy="496.3252" r="255.98" gradientTransform="matrix(0.4518 0 0 -0.4518 -52.2923 323.3293)" gradientUnits="userSpaceOnUse">
			<stop  offset="0" style="stop-color:#FFFFFF"/>
			<stop  offset="0.05" style="stop-color:#FDFDFD"/>
			<stop  offset="0.1" style="stop-color:#F7F7F8"/>
			<stop  offset="0.15" style="stop-color:#EEEFF0"/>
			<stop  offset="0.2" style="stop-color:#E1E4E6"/>
			<stop  offset="0.25" style="stop-color:#D3D6DA"/>
			<stop  offset="0.3" style="stop-color:#C2C6CC"/>
			<stop  offset="0.35" style="stop-color:#AFB5BC"/>
			<stop  offset="0.4" style="stop-color:#9DA4AD"/>
			<stop  offset="0.45" style="stop-color:#8A929D"/>
			<stop  offset="0.5" style="stop-color:#78828E"/>
			<stop  offset="0.55" style="stop-color:#677280"/>
			<stop  offset="0.6" style="stop-color:#596574"/>
			<stop  offset="0.65" style="stop-color:#4C5969"/>
			<stop  offset="0.7" style="stop-color:#425061"/>
			<stop  offset="0.75" style="stop-color:#3A485A"/>
			<stop  offset="0.8" style="stop-color:#354356"/>
			<stop  offset="0.85" style="stop-color:#314053"/>
			<stop  offset="0.9" style="stop-color:#2F3E51"/>
			<stop  offset="1" style="stop-color:#2F3E51"/>
		</radialGradient>
		<path fill="url(#XMLID_8_)" d="M-257.741-16.562v231.303h231.304V-16.562H-257.741z"/>
	</g>
	<g transform="translate(0, 522)">
		
			<radialGradient id="XMLID_9_" cx="323.2461" cy="-25.6768" r="255.98" gradientTransform="matrix(0.4518 0 0 -0.4518 -1.9531 -198.69)" gradientUnits="userSpaceOnUse">
			<stop  offset="0" style="stop-color:#FFFFFF"/>
			<stop  offset="0.05" style="stop-color:#FCFCFC"/>
			<stop  offset="0.1" style="stop-color:#F4F5F6"/>
			<stop  offset="0.15" style="stop-color:#E8EAEC"/>
			<stop  offset="0.2" style="stop-color:#D9DBDF"/>
			<stop  offset="0.25" style="stop-color:#C6CACF"/>
			<stop  offset="0.3" style="stop-color:#B2B7BE"/>
			<stop  offset="0.35" style="stop-color:#9CA4AC"/>
			<stop  offset="0.4" style="stop-color:#88909B"/>
			<stop  offset="0.45" style="stop-color:#747E8B"/>
			<stop  offset="0.5" style="stop-color:#636E7C"/>
			<stop  offset="0.55" style="stop-color:#54606F"/>
			<stop  offset="0.6" style="stop-color:#475565"/>
			<stop  offset="0.65" style="stop-color:#3E4C5D"/>
			<stop  offset="0.7" style="stop-color:#374658"/>
			<stop  offset="0.75" style="stop-color:#334254"/>
			<stop  offset="0.8" style="stop-color:#303F52"/>
			<stop  offset="0.85" style="stop-color:#2F3E51"/>
			<stop  offset="0.9" style="stop-color:#2F3E51"/>
			<stop  offset="1" style="stop-color:#2F3E51"/>
		</radialGradient>
		<path fill="url(#XMLID_9_)" d="M28.438-302.741v231.304h231.304v-231.304H28.438z"/>
	</g>
	<g transform="translate(522, 522)">
		
			<radialGradient id="XMLID_10_" cx="-198.7539" cy="-25.6768" r="255.9805" gradientTransform="matrix(0.4518 0 0 -0.4518 -52.2923 -198.69)" gradientUnits="userSpaceOnUse">
			<stop  offset="0" style="stop-color:#FFFFFF"/>
			<stop  offset="0.05" style="stop-color:#FBFCFC"/>
			<stop  offset="0.1" style="stop-color:#F2F3F4"/>
			<stop  offset="0.15" style="stop-color:#E3E5E8"/>
			<stop  offset="0.2" style="stop-color:#D0D4D8"/>
			<stop  offset="0.25" style="stop-color:#BBBFC6"/>
			<stop  offset="0.3" style="stop-color:#A3AAB2"/>
			<stop  offset="0.35" style="stop-color:#8C949F"/>
			<stop  offset="0.4" style="stop-color:#77808D"/>
			<stop  offset="0.45" style="stop-color:#636F7D"/>
			<stop  offset="0.5" style="stop-color:#53606F"/>
			<stop  offset="0.55" style="stop-color:#475465"/>
			<stop  offset="0.6" style="stop-color:#3D4B5D"/>
			<stop  offset="0.65" style="stop-color:#374557"/>
			<stop  offset="0.7" style="stop-color:#334154"/>
			<stop  offset="0.75" style="stop-color:#303F52"/>
			<stop  offset="0.8" style="stop-color:#2F3E51"/>
			<stop  offset="0.85" style="stop-color:#2F3E51"/>
			<stop  offset="0.9" style="stop-color:#2F3E51"/>
			<stop  offset="1" style="stop-color:#2F3E51"/>
		</radialGradient>
		<path fill="url(#XMLID_10_)" d="M-257.741-302.741v231.304h231.304v-231.304H-257.741z"/>
	</g>
	<g transform="translate(0, 1044)">
		
			<radialGradient id="XMLID_11_" cx="323.2461" cy="-547.6758" r="255.979" gradientTransform="matrix(0.4518 0 0 -0.4518 -1.9531 -720.7083)" gradientUnits="userSpaceOnUse">
			<stop  offset="0" style="stop-color:#FFFFFF"/>
			<stop  offset="0.05" style="stop-color:#FBFBFB"/>
			<stop  offset="0.1" style="stop-color:#F0F1F2"/>
			<stop  offset="0.15" style="stop-color:#DEE1E4"/>
			<stop  offset="0.2" style="stop-color:#C8CCD1"/>
			<stop  offset="0.25" style="stop-color:#B0B6BD"/>
			<stop  offset="0.3" style="stop-color:#979EA8"/>
			<stop  offset="0.35" style="stop-color:#7E8893"/>
			<stop  offset="0.4" style="stop-color:#697481"/>
			<stop  offset="0.45" style="stop-color:#576372"/>
			<stop  offset="0.5" style="stop-color:#495666"/>
			<stop  offset="0.55" style="stop-color:#3E4C5E"/>
			<stop  offset="0.6" style="stop-color:#374558"/>
			<stop  offset="0.65" style="stop-color:#334154"/>
			<stop  offset="0.7" style="stop-color:#303F52"/>
			<stop  offset="0.75" style="stop-color:#2F3E51"/>
			<stop  offset="0.8" style="stop-color:#2F3E51"/>
			<stop  offset="0.85" style="stop-color:#2F3E51"/>
			<stop  offset="0.9" style="stop-color:#2F3E51"/>
			<stop  offset="1" style="stop-color:#2F3E51"/>
		</radialGradient>
		<path fill="url(#XMLID_11_)" d="M28.438-588.92v231.303h231.304V-588.92H28.438z"/>
	</g>
	<g transform="translate(522, 1044)">
		
			<radialGradient id="XMLID_12_" cx="-198.7539" cy="-547.6758" r="255.9795" gradientTransform="matrix(0.4518 0 0 -0.4518 -52.2923 -720.7083)" gradientUnits="userSpaceOnUse">
			<stop  offset="0" style="stop-color:#FFFFFF"/>
			<stop  offset="0.05" style="stop-color:#F9FAFA"/>
			<stop  offset="0.1" style="stop-color:#EBECEE"/>
			<stop  offset="0.15" style="stop-color:#D5D8DC"/>
			<stop  offset="0.2" style="stop-color:#BABFC5"/>
			<stop  offset="0.25" style="stop-color:#9DA4AD"/>
			<stop  offset="0.3" style="stop-color:#818A96"/>
			<stop  offset="0.35" style="stop-color:#697381"/>
			<stop  offset="0.4" style="stop-color:#556170"/>
			<stop  offset="0.45" style="stop-color:#465364"/>
			<stop  offset="0.5" style="stop-color:#3C4A5B"/>
			<stop  offset="0.55" style="stop-color:#354456"/>
			<stop  offset="0.6" style="stop-color:#314053"/>
			<stop  offset="0.65" style="stop-color:#303F51"/>
			<stop  offset="0.7" style="stop-color:#2F3E51"/>
			<stop  offset="0.75" style="stop-color:#2F3E51"/>
			<stop  offset="0.8" style="stop-color:#2F3E51"/>
			<stop  offset="0.85" style="stop-color:#2F3E51"/>
			<stop  offset="0.9" style="stop-color:#2F3E51"/>
			<stop  offset="1" style="stop-color:#2F3E51"/>
		</radialGradient>
		<path fill="url(#XMLID_12_)" d="M-257.741-588.92v231.303h231.304V-588.92H-257.741z"/>
	</g>
</g>
<g>
	<path d="M99.769,765.961c0-0.033,0-0.102,0.034-0.237c0.068-0.255,0.102-0.307,0.17-0.34c0.017,0,0.255-0.018,0.51-0.018
		c0.816-0.017,0.969-0.067,1.071-0.271c0-0.018,2.38-9.316,2.38-9.537c0-0.085-0.017-0.103-0.068-0.119
		c-0.119-0.034-0.357-0.051-0.816-0.068h-0.476c-0.119-0.119-0.153-0.119-0.068-0.459c0.068-0.255,0.068-0.221,0.17-0.323h8.483
		c0.051,0.052,0.119,0.103,0.119,0.188c0,0.102-0.493,3.723-0.51,3.774c-0.034,0.102-0.102,0.118-0.391,0.118h-0.255
		c-0.068-0.051-0.119-0.085-0.119-0.204c0-0.067,0.017-0.17,0.034-0.374c0.068-0.544,0.085-0.73,0.085-1.088
		c0-1.24-0.476-1.547-1.649-1.614c-0.17,0-0.782-0.018-1.36-0.018s-1.139,0.018-1.207,0.018c-0.17,0.017-0.238,0.067-0.272,0.136
		c-0.017,0.034-0.289,1.054-0.595,2.261l-0.544,2.193h0.816c0.867-0.018,0.986-0.018,1.258-0.119c0.527-0.17,0.765-0.527,1.02-1.496
		c0.085-0.34,0-0.374,0.459-0.374h0.255c0.051,0.034,0.119,0.102,0.119,0.17s-1.071,4.386-1.105,4.471
		c-0.034,0.103-0.102,0.119-0.391,0.119h-0.255c-0.068-0.067-0.119-0.085-0.119-0.204c0.085-0.255,0.187-0.918,0.187-1.121
		c0-0.341-0.136-0.493-0.391-0.562c-0.221-0.085-0.34-0.102-1.224-0.102h-0.816l-0.544,2.158c-0.306,1.19-0.544,2.193-0.544,2.228
		c0,0.085,0.051,0.136,0.221,0.17c0.187,0.017,0.697,0.051,1.139,0.051c0.391,0,0.51,0,0.51,0.136c0,0.103-0.102,0.493-0.119,0.545
		c-0.034,0.067-0.051,0.085-0.306,0.085c-0.714,0-1.394-0.018-2.431-0.018c-1.003,0-1.564,0.018-2.176,0.018
		C99.82,766.132,99.769,766.098,99.769,765.961z"/>
	<path d="M114.507,760.079c-0.017,0.204-0.017,0.289-0.051,0.408c-0.034,0.103-1.513,4.165-1.547,4.268
		c-0.051,0.17-0.102,0.407-0.102,0.611c0,0.238,0.085,0.34,0.272,0.34c0.221,0,0.442-0.102,0.646-0.289
		c0.306-0.322,0.544-0.815,0.765-1.581c0.068-0.271,0.068-0.288,0.323-0.288h0.102c0.255,0,0.289,0,0.323,0.033
		c0.034,0.034,0.068,0.068,0.068,0.137c0,0.051-0.017,0.118-0.051,0.221c-0.323,1.071-0.867,2.022-1.853,2.346
		c-0.136,0.034-0.17,0.034-0.408,0.034c-0.884,0-1.394-0.595-1.394-1.377c0-0.153,0.017-0.306,0.051-0.459
		c0.017-0.102,1.513-4.165,1.53-4.233c0.068-0.237,0.102-0.459,0.102-0.629c0-0.255-0.051-0.356-0.306-0.356
		c-0.238,0.017-0.425,0.119-0.629,0.322c-0.289,0.323-0.51,0.766-0.714,1.496c-0.068,0.272-0.085,0.289-0.136,0.323
		c-0.017,0.018-0.153,0.018-0.323,0.018h-0.272c-0.034-0.034-0.102-0.086-0.102-0.153c0-0.051,0.017-0.119,0.068-0.255
		c0.255-0.901,0.765-1.7,1.292-2.074c0.204-0.136,0.476-0.255,0.697-0.289h0.306C113.998,758.651,114.507,759.229,114.507,760.079z
		 M114.49,754.996c0.391,0,0.68,0.272,0.68,0.663c0,0.544-0.527,0.969-1.003,0.969c-0.391,0-0.663-0.289-0.663-0.663
		C113.504,755.489,113.963,754.996,114.49,754.996z"/>
	<path d="M116.854,768.902c0,0,0,0.018,0.017,0.018c0.085,0.033,0.442,0.067,0.765,0.085c0.391,0,0.561-0.018,0.799-0.103
		c0.561-0.204,1.105-0.782,1.36-1.428c0.051-0.136,0.51-1.955,0.51-1.973c-0.017,0-0.051,0.034-0.119,0.068
		c-0.442,0.357-0.833,0.562-1.513,0.562c-0.272,0-0.306,0-0.493-0.052c-1.071-0.271-1.683-1.258-1.683-2.703
		c0.068-2.006,1.36-3.739,2.72-4.42c0.323-0.152,0.68-0.271,0.969-0.306c0.068,0,0.221-0.017,0.357-0.017
		c0.68,0.067,1.003,0.34,1.326,0.748c0,0,0.017-0.018,0.017-0.034c0.102-0.188,0.476-0.374,0.748-0.374
		c0.221,0.017,0.51,0.187,0.51,0.441c0,0.374-1.972,7.99-1.989,8.041c-0.051,0.188-0.204,0.477-0.306,0.646
		c-0.578,0.884-1.717,1.53-3.06,1.53c-1.105,0-2.261-0.188-2.261-1.122c0-0.596,0.51-1.021,1.02-1.021
		c0.357,0,0.68,0.238,0.68,0.612C117.228,768.579,116.854,768.852,116.854,768.902z M118.792,765.502c0.17,0,0.204,0,0.357-0.051
		c0.459-0.152,0.901-0.526,1.326-1.122c0.085-0.119,0.17-0.237,0.187-0.255c0.017-0.051,0.85-3.366,0.85-3.434
		c0-0.068-0.068-0.357-0.119-0.511c-0.17-0.544-0.476-0.866-1.003-0.866c-0.068,0-0.136,0.017-0.204,0.017
		c-0.306,0.085-0.68,0.34-0.969,0.663c-0.425,0.527-0.646,1.088-1.003,2.482c-0.238,0.935-0.306,1.325-0.323,1.768
		C117.891,764.958,118.095,765.502,118.792,765.502z"/>
	<path d="M124.384,765.299c0-0.289,0.119-0.493,0.255-0.697c0.221-0.255,0.578-0.51,1.003-0.51c0.476,0,0.85,0.322,0.85,0.833
		c0,0.663-0.595,1.224-1.275,1.224C124.758,766.148,124.384,765.843,124.384,765.299z"/>
	<path d="M135.995,766.098c-0.459,0-2.04,0-2.278,0.051h-0.153v-0.782h0.527c0.544-0.017,0.765-0.034,0.901-0.085
		c0.085-0.017,0.17-0.102,0.204-0.17c0.017-0.034,0.017-0.34,0.017-0.918v-0.85h-4.403v-0.782l2.567-3.927
		c1.615-2.448,2.601-3.944,2.635-3.962c0.034-0.033,0.068-0.033,0.357-0.033h0.306l0.102,0.102v7.82h1.564v0.782h-1.564v0.866
		c0,0.936,0,0.919,0.102,1.021c0.119,0.102,0.272,0.119,0.969,0.136h0.493v0.782h-0.153
		C137.95,766.098,136.437,766.098,135.995,766.098z M135.315,756.884l-3.723,5.66l1.853,0.018h1.87V756.884z"/>
	<path d="M140.653,765.299c0-0.289,0.119-0.493,0.255-0.697c0.221-0.255,0.578-0.51,1.003-0.51c0.476,0,0.85,0.322,0.85,0.833
		c0,0.663-0.595,1.224-1.275,1.224C141.027,766.148,140.653,765.843,140.653,765.299z M141.962,760.063
		c0-0.663,0.595-1.241,1.258-1.241c0.476,0,0.85,0.323,0.85,0.816c0,0.68-0.629,1.24-1.275,1.24
		C142.302,760.878,141.962,760.504,141.962,760.063z"/>
	<path d="M150.853,762c0-0.271,0.017-0.561,0.034-0.765c0.187-1.513,0.867-3.043,1.921-4.318c0.204-0.237,0.833-0.884,1.071-1.07
		c1.139-0.952,2.431-1.53,3.706-1.666h0.272c0.255,0,0.578,0,0.714,0.017c0.765,0.153,1.411,0.561,1.819,1.19
		c0.034,0.067,0.068,0.102,0.085,0.102l0.629-0.646c0.34-0.357,0.646-0.663,0.663-0.663c0.017-0.018,0.051-0.018,0.102-0.018
		c0.119,0,0.238,0.018,0.238,0.119c0,0.085-0.085,0.425-0.544,2.329c-0.323,1.258-0.595,2.329-0.612,2.38
		c-0.034,0.119-0.051,0.136-0.391,0.136h-0.272c-0.068-0.067-0.102-0.067-0.102-0.221c0.017-0.051,0.034-0.187,0.034-0.306
		c0.034-0.188,0.068-0.578,0.068-0.833c0-1.564-0.561-2.822-2.074-2.822c-1.326,0-2.55,0.765-3.332,1.513
		c-0.68,0.697-1.19,1.53-1.581,2.618c-0.272,0.766-0.527,1.785-0.629,2.533c-0.051,0.357-0.085,0.697-0.085,1.003
		c0,1.854,1.105,3.128,2.941,3.128c1.003,0,2.006-0.544,2.397-1.359c0.136-0.307,0.493-1.785,0.493-1.87
		c0-0.103-0.034-0.137-0.204-0.153c-0.187-0.034-0.68-0.068-1.122-0.068h-0.374c-0.051-0.051-0.119-0.102-0.119-0.187
		c0-0.103,0.085-0.442,0.119-0.51c0.051-0.052,0.051-0.085,0.272-0.085c0.731,0,1.615,0.033,2.346,0.033
		c0.748,0,1.394,0,1.751-0.033h0.153c0.119,0.118,0.153,0.118,0.068,0.459c-0.068,0.237-0.068,0.221-0.17,0.322h-0.221
		c-0.425,0-0.731,0-0.833,0.238c0,0.085-0.918,3.553-0.918,3.553c-0.034,0.052-0.068,0.085-0.102,0.085
		c-0.085,0-0.204-0.136-0.323-0.255c-0.272-0.271-0.391-0.441-0.527-0.663c-0.714,0.714-1.802,1.275-3.213,1.275
		C152.57,766.522,150.853,764.669,150.853,762z"/>
	<path d="M162.736,761.235c0.017-0.102,0.136-0.527,0.238-0.85c0.34-1.055,0.782-1.581,1.377-1.734
		c0.068-0.017,0.136-0.017,0.221-0.017c0.782,0,1.309,0.407,1.496,0.985l0.204-0.204c0.34-0.356,0.646-0.544,1.02-0.663
		c0.221-0.085,0.459-0.118,0.697-0.118c0.867,0,1.7,0.476,1.7,1.359c0,0.612-0.425,1.122-1.02,1.122
		c-0.34,0-0.663-0.204-0.663-0.595c0-0.425,0.238-0.782,0.544-0.918c0.068-0.034,0.119-0.068,0.119-0.085
		c-0.136-0.136-0.493-0.255-0.782-0.255c-0.085,0-0.153,0-0.221,0.017c-0.544,0.103-1.054,0.612-1.513,1.513l-0.136,0.256
		l-0.578,2.362c-0.408,1.615-0.612,2.38-0.646,2.465c-0.136,0.272-0.442,0.459-0.748,0.459c-0.323,0-0.527-0.187-0.544-0.492
		c0-0.103,0.051-0.289,0.663-2.771c0.357-1.445,0.68-2.72,0.68-2.805c0.034-0.153,0.051-0.307,0.051-0.442
		c0-0.306-0.068-0.561-0.34-0.561c-0.068,0-0.153,0.017-0.221,0.067c-0.289,0.188-0.51,0.714-0.816,1.938
		c-0.085,0.17,0,0.153-0.391,0.153h-0.289C162.787,761.371,162.736,761.337,162.736,761.235z"/>
	<path d="M177.033,759.434c0,0.34-1.156,4.606-1.258,5.219c-0.034,0.136-0.034,0.34-0.034,0.51c0,0.272,0.017,0.493,0.221,0.527
		c0.153,0.051,0.289,0,0.425-0.153c0.238-0.255,0.408-0.68,0.646-1.614c0.102-0.357,0.085-0.374,0.374-0.374h0.085
		c0.255,0,0.289,0,0.323,0.033c0.034,0.034,0.051,0.052,0.051,0.119c0,0.051-0.017,0.136-0.034,0.255
		c-0.238,0.851-0.459,1.514-0.935,1.989c-0.221,0.221-0.51,0.391-0.884,0.391c-0.561,0-0.969-0.203-1.241-0.561
		c-0.085-0.102-0.238-0.391-0.238-0.442c0-0.017-0.068,0.052-0.17,0.137c-0.629,0.578-1.241,0.866-1.853,0.866
		c-0.204,0-0.408-0.033-0.612-0.102c-0.918-0.306-1.547-1.258-1.547-2.567c0-0.391,0.068-0.799,0.17-1.24
		c0.374-1.514,1.394-2.873,2.618-3.469c0.391-0.187,0.68-0.322,1.156-0.322c0.459,0,0.765,0.102,1.037,0.306
		c0.17,0.136,0.306,0.323,0.425,0.476c0.068-0.221,0.391-0.441,0.714-0.441C176.727,758.975,177.033,759.161,177.033,759.434z
		 M174.296,759.264c-0.34,0-0.714,0.204-1.054,0.561c-0.51,0.527-0.765,1.122-1.156,2.669c-0.238,1.003-0.323,1.377-0.323,1.819
		v0.136c0,0.595,0.085,0.867,0.391,1.105c0.119,0.102,0.289,0.152,0.476,0.152c0.204,0,0.442-0.067,0.663-0.204
		c0.306-0.187,0.663-0.526,0.952-0.9c0.306-0.408,0.221-0.188,0.714-2.143c0.306-1.224,0.425-1.751,0.425-1.802
		c0-0.136-0.085-0.459-0.153-0.646C175.061,759.553,174.772,759.264,174.296,759.264z"/>
	<path d="M186.756,754.351c0.085,0,0.204,0.034,0.204,0.136s-0.119,0.646-1.224,5.049l-1.292,5.151
		c-0.017,0.102-0.017,0.271-0.017,0.425c0,0.306,0,0.527,0.221,0.578c0.153,0.051,0.289,0,0.425-0.153
		c0.238-0.255,0.408-0.68,0.646-1.614c0.102-0.357,0.085-0.374,0.374-0.374h0.085c0.255,0,0.289,0,0.323,0.033
		c0.068,0.052,0.068,0.119,0.017,0.374c-0.238,0.851-0.459,1.514-0.935,1.989c-0.221,0.221-0.51,0.391-0.884,0.391
		c-0.561,0-0.969-0.203-1.241-0.561c-0.085-0.102-0.238-0.391-0.238-0.442c0-0.017-0.068,0.052-0.17,0.137
		c-0.629,0.578-1.241,0.866-1.853,0.866c-0.204,0-0.408-0.033-0.612-0.102c-0.918-0.306-1.547-1.258-1.547-2.567
		c0-0.391,0.068-0.799,0.17-1.24c0.459-1.87,1.87-3.417,3.383-3.74c0.136-0.034,0.289-0.034,0.459-0.034
		c1.02,0,1.309,0.697,1.36,0.697c0.051,0,0.918-3.672,0.918-3.672c0-0.153-0.017-0.222-0.102-0.272
		c-0.102-0.034-0.306-0.068-0.68-0.085h-0.357c-0.119-0.119-0.153-0.085-0.068-0.459c0.051-0.204,0.085-0.323,0.221-0.323
		C184.376,754.537,186.739,754.351,186.756,754.351z M182.982,759.264c-0.34,0-0.714,0.204-1.054,0.561
		c-0.51,0.527-0.765,1.122-1.156,2.669c-0.238,1.003-0.323,1.377-0.323,1.819v0.136c0,0.425,0.017,0.527,0.119,0.748
		c0.153,0.34,0.425,0.51,0.748,0.51c0.136,0,0.289-0.033,0.442-0.102c0.459-0.188,1.19-0.918,1.411-1.36
		c0.068-0.119,0.901-3.468,0.901-3.587s-0.085-0.459-0.153-0.646C183.748,759.553,183.458,759.264,182.982,759.264z"/>
	<path d="M190.989,760.079c-0.017,0.204-0.017,0.289-0.051,0.408c-0.034,0.103-1.513,4.165-1.547,4.268
		c-0.051,0.17-0.102,0.407-0.102,0.611c0,0.238,0.085,0.34,0.272,0.34c0.221,0,0.442-0.102,0.646-0.289
		c0.306-0.322,0.544-0.815,0.765-1.581c0.068-0.271,0.068-0.288,0.323-0.288h0.102c0.255,0,0.289,0,0.323,0.033
		c0.034,0.034,0.068,0.068,0.068,0.137c0,0.051-0.017,0.118-0.051,0.221c-0.323,1.071-0.867,2.022-1.853,2.346
		c-0.136,0.034-0.17,0.034-0.408,0.034c-0.884,0-1.394-0.595-1.394-1.377c0-0.153,0.017-0.306,0.051-0.459
		c0.017-0.102,1.513-4.165,1.53-4.233c0.068-0.237,0.102-0.459,0.102-0.629c0-0.255-0.051-0.356-0.306-0.356
		c-0.238,0.017-0.425,0.119-0.629,0.322c-0.289,0.323-0.51,0.766-0.714,1.496c-0.068,0.272-0.085,0.289-0.136,0.323
		c-0.017,0.018-0.153,0.018-0.323,0.018h-0.272c-0.034-0.034-0.102-0.086-0.102-0.153c0-0.051,0.017-0.119,0.068-0.255
		c0.255-0.901,0.765-1.7,1.292-2.074c0.204-0.136,0.476-0.255,0.697-0.289h0.306C190.479,758.651,190.989,759.229,190.989,760.079z
		 M190.972,754.996c0.391,0,0.68,0.272,0.68,0.663c0,0.544-0.527,0.969-1.003,0.969c-0.391,0-0.663-0.289-0.663-0.663
		C189.986,755.489,190.445,754.996,190.972,754.996z"/>
	<path d="M194.44,764.023c0,0.85,0.306,1.445,0.901,1.649c0.068,0.017,0.187,0.017,0.323,0.017c0.17,0,0.357,0,0.51-0.034
		c0.867-0.153,1.717-0.646,2.295-1.36c0.119-0.136,0.17-0.203,0.238-0.203c0.102,0,0.408,0.34,0.442,0.407
		c0.034,0.068,0,0.137-0.187,0.341c-0.663,0.765-1.649,1.292-2.771,1.462c-0.153,0.017-0.374,0.017-0.578,0.017
		c-0.816,0-1.292-0.238-1.717-0.663c-0.51-0.51-0.85-1.36-0.85-2.329c0-0.459,0.034-0.765,0.136-1.173
		c0.323-1.445,1.394-2.686,2.856-3.247c0.289-0.119,0.782-0.238,1.054-0.255c0.034,0,0.17-0.017,0.272-0.017h0.051
		c0.884,0,1.547,0.441,1.751,1.139c0.034,0.085,0.051,0.204,0.051,0.34c0,0.442-0.153,0.765-0.34,1.054
		c-0.663,0.97-2.159,1.19-3.944,1.19h-0.221C194.593,762.833,194.44,763.496,194.44,764.023z M197.347,759.264
		c-0.204,0-0.408,0.033-0.612,0.102c-0.748,0.255-1.309,0.833-1.649,1.717c-0.068,0.153-0.204,0.578-0.204,0.629
		c0,0.018,0.068,0.018,0.425,0.018c1.105-0.034,1.734-0.136,2.193-0.374c0.493-0.238,0.799-0.595,0.799-1.225
		C198.299,759.62,197.891,759.264,197.347,759.264z"/>
	<path d="M200.322,761.27c0-0.068,0.17-0.663,0.272-0.952c0.204-0.612,0.391-0.969,0.68-1.258c0.238-0.255,0.493-0.425,0.901-0.425
		c0.748,0,1.224,0.356,1.462,0.9c0.017,0.068,0.051,0.153,0.068,0.188v0.067l0.221-0.221c0.527-0.527,1.173-0.935,2.159-0.935
		c1.122,0,1.904,0.629,1.904,1.768c0,0.323-0.068,0.731-0.204,1.258c-0.187,0.681-0.391,1.326-0.765,2.38
		c-0.238,0.663-0.289,0.833-0.323,1.071c-0.017,0.103-0.034,0.188-0.034,0.272c0,0.187,0.068,0.306,0.289,0.306
		c0.272,0,0.425-0.102,0.629-0.272c0.306-0.322,0.544-0.815,0.765-1.581c0.068-0.271,0.068-0.288,0.323-0.288h0.102
		c0.255,0,0.289,0,0.323,0.033c0.034,0.034,0.068,0.068,0.068,0.137c0,0.051-0.017,0.118-0.051,0.221
		c-0.323,1.071-0.867,2.022-1.853,2.346c-0.136,0.034-0.17,0.034-0.408,0.034c-0.867,0-1.394-0.527-1.394-1.394
		c0-0.289,0.017-0.408,0.272-1.071c0.476-1.343,0.799-2.397,0.901-3.061c0.034-0.152,0.034-0.374,0.034-0.577
		c0-0.153,0-0.307-0.017-0.392c-0.102-0.306-0.289-0.561-0.663-0.561c-0.068,0-0.136,0-0.221,0.017
		c-0.765,0.103-1.411,0.629-1.989,1.615c-0.255,0.441-0.204,0.271-0.799,2.686c-0.374,1.496-0.561,2.21-0.595,2.295
		c-0.136,0.272-0.442,0.459-0.748,0.459c-0.323,0-0.527-0.187-0.544-0.492c0-0.103,0.051-0.289,0.663-2.771
		c0.357-1.445,0.68-2.72,0.68-2.805c0.034-0.153,0.051-0.307,0.051-0.442c0-0.34-0.102-0.561-0.374-0.561h-0.051
		c-0.153,0.033-0.34,0.221-0.493,0.526c-0.136,0.289-0.272,0.731-0.459,1.479c-0.085,0.17,0,0.153-0.391,0.153h-0.289
		C200.39,761.389,200.322,761.32,200.322,761.27z"/>
	<path d="M210.08,759.434c0-0.085,0.102-0.477,0.136-0.51c0.051-0.103,0.034-0.103,0.918-0.103h0.799l0.323-1.36
		c0.374-1.496,0.391-1.547,0.561-1.717c0.119-0.119,0.323-0.238,0.561-0.238c0.34,0,0.561,0.204,0.578,0.493
		c0,0.153-0.646,2.754-0.68,2.788c0,0.034,0.034,0.034,0.765,0.034h0.782c0.051,0.051,0.119,0.103,0.119,0.188
		c0,0.203-0.153,0.526-0.221,0.595h-1.649l-1.258,5.083c-0.017,0.102-0.017,0.271-0.017,0.425c0,0.306,0.017,0.544,0.221,0.578
		c0.102,0.034,0.323,0.017,0.476-0.051c0.544-0.17,1.105-0.867,1.479-1.836c0.102-0.255,0.102-0.255,0.442-0.255
		c0.255,0,0.289,0,0.323,0.033c0.085,0.068,0.085,0.119-0.017,0.357s-0.289,0.612-0.425,0.85c-0.34,0.544-0.799,1.003-1.224,1.259
		c-0.34,0.187-0.697,0.288-1.037,0.288c-0.901,0-1.547-0.662-1.547-1.563c0-0.442,1.241-5.134,1.241-5.134
		c0-0.034-0.034-0.034-0.765-0.034h-0.765C210.148,759.553,210.08,759.519,210.08,759.434z"/>
	<path d="M220.467,759.757c0-0.034-0.136-0.188-0.221-0.256c-0.187-0.152-0.408-0.221-0.765-0.221c-0.646,0-1.003,0.289-1.241,0.731
		c-0.102,0.221-0.153,0.425-0.153,0.611c0,0.238,0.085,0.442,0.238,0.578c0.119,0.119,0.221,0.153,0.714,0.255
		c0.782,0.17,0.935,0.204,1.343,0.578c0.306,0.307,0.578,0.782,0.578,1.343c0,0.918-0.561,1.803-1.054,2.228
		c-0.578,0.459-1.309,0.73-2.142,0.73c-0.527,0-0.901-0.085-1.292-0.255c-0.408-0.204-0.629-0.425-0.799-0.765
		c-0.119-0.204-0.136-0.34-0.136-0.629c0-0.663,0.34-1.19,1.003-1.19c0.357,0,0.68,0.238,0.68,0.646s-0.255,0.73-0.561,0.884
		c-0.085,0.034-0.153,0.068-0.17,0.068c-0.051,0-0.034,0.051,0.068,0.152c0.255,0.289,0.714,0.459,1.258,0.459
		c0.34,0,0.697-0.067,0.969-0.204c0.527-0.271,0.918-0.884,0.918-1.444c0-0.255-0.068-0.442-0.238-0.629
		c-0.204-0.204-0.34-0.272-0.969-0.408c-0.51-0.119-0.612-0.136-0.782-0.238c-0.34-0.153-0.561-0.391-0.714-0.73
		c-0.136-0.255-0.153-0.426-0.153-0.748c0-0.697,0.238-1.174,0.527-1.615c0.442-0.612,1.156-1.054,2.159-1.054
		c0.969,0,1.819,0.492,1.819,1.462c0,0.611-0.374,1.054-0.901,1.054c-0.374,0-0.527-0.221-0.578-0.544
		C219.872,760.13,220.161,759.927,220.467,759.757z"/>
	<path d="M232.061,754.911c-0.136-0.051-0.272-0.119-0.408-0.119c-0.255,0-0.391,0.204-0.493,0.392
		c-0.067,0.136-0.153,0.526-0.306,1.258c-0.119,0.612-0.459,2.329-0.459,2.363c0,0.017,0.255,0.017,0.884,0.017h0.867
		c0.136,0.103,0.153,0.119,0.067,0.459c-0.067,0.204-0.067,0.221-0.152,0.306l-0.918,0.018h-0.901l-0.459,2.363
		c-0.578,3.009-0.646,3.314-0.85,4.113c-0.289,1.207-0.578,1.938-0.952,2.499c-0.357,0.544-0.748,0.867-1.19,1.003
		c-0.085,0.034-0.221,0.034-0.356,0.034c-0.782,0-1.377-0.441-1.377-1.189c0-0.596,0.374-1.105,1.02-1.105
		c0.374,0,0.663,0.255,0.663,0.663c0,0.068,0,0.119-0.017,0.188c-0.103,0.34-0.341,0.561-0.612,0.714
		c0,0.051,0.289,0.119,0.391,0.119c0.238,0,0.357-0.188,0.493-0.392c0.085-0.204,0.119-0.289,0.238-0.85l0.34-1.599
		c0.136-0.629,0.306-1.377,0.357-1.683c0.102-0.425,0.951-4.828,0.951-4.862c0-0.017-0.34-0.017-0.748-0.017h-0.747
		c-0.137-0.103-0.153-0.119-0.068-0.459c0.068-0.272,0.068-0.221,0.17-0.323h0.765c0.731,0,0.782,0,0.782-0.034
		c0.018-0.017,0.068-0.34,0.153-0.714c0.306-1.666,0.476-2.261,0.782-2.788c0.306-0.544,0.866-0.969,1.428-1.088
		c0.085-0.017,0.187-0.034,0.289-0.034c0.782,0,1.411,0.459,1.411,1.19c0,0.646-0.392,1.122-1.021,1.122
		c-0.374,0-0.663-0.255-0.663-0.663C231.414,755.336,231.754,755.099,232.061,754.911z"/>
	<path d="M236.888,758.635c1.548,0,2.567,1.173,2.567,2.839c0,2.006-1.615,4.335-3.808,4.794c-0.204,0.051-0.426,0.067-0.646,0.067
		c-1.632,0-2.584-1.189-2.584-2.821c0-0.374,0.017-0.544,0.085-0.867c0.238-1.19,0.969-2.329,1.854-3.043
		C235.001,759.094,235.817,758.635,236.888,758.635z M235.086,765.706c0.34,0,0.68-0.118,1.037-0.356
		c0.663-0.425,1.105-1.105,1.411-2.125c0.204-0.681,0.476-1.632,0.476-2.432c0-0.561-0.119-0.9-0.407-1.189
		c-0.238-0.238-0.408-0.34-0.851-0.34c-0.102,0-0.187,0.017-0.255,0.017c-0.799,0.153-1.547,0.867-1.972,1.87
		c-0.222,0.527-0.544,1.785-0.663,2.516c-0.018,0.137-0.018,0.289-0.018,0.459C233.845,765.026,234.236,765.706,235.086,765.706z"/>
	<path d="M240.629,761.235c0.017-0.102,0.136-0.527,0.237-0.85c0.34-1.055,0.782-1.581,1.377-1.734
		c0.068-0.017,0.137-0.017,0.222-0.017c0.781,0,1.309,0.407,1.496,0.985l0.204-0.204c0.34-0.356,0.646-0.544,1.02-0.663
		c0.221-0.085,0.459-0.118,0.697-0.118c0.867,0,1.7,0.476,1.7,1.359c0,0.612-0.426,1.122-1.021,1.122
		c-0.34,0-0.663-0.204-0.663-0.595c0-0.425,0.238-0.782,0.544-0.918c0.068-0.034,0.119-0.068,0.119-0.085
		c-0.136-0.136-0.493-0.255-0.782-0.255c-0.085,0-0.152,0-0.221,0.017c-0.544,0.103-1.054,0.612-1.513,1.513l-0.137,0.256
		l-0.577,2.362c-0.408,1.615-0.612,2.38-0.646,2.465c-0.136,0.272-0.442,0.459-0.748,0.459c-0.323,0-0.527-0.187-0.544-0.492
		c0-0.103,0.051-0.289,0.663-2.771c0.356-1.445,0.68-2.72,0.68-2.805c0.034-0.153,0.051-0.307,0.051-0.442
		c0-0.306-0.067-0.561-0.34-0.561c-0.067,0-0.152,0.017-0.221,0.067c-0.289,0.188-0.51,0.714-0.816,1.938
		c-0.085,0.17,0,0.153-0.391,0.153h-0.289C240.68,761.371,240.629,761.337,240.629,761.235z"/>
	<path d="M252.053,761.27c0-0.068,0.17-0.663,0.271-0.952c0.204-0.612,0.392-0.969,0.68-1.258c0.238-0.255,0.493-0.425,0.901-0.425
		c0.748,0,1.224,0.356,1.462,0.9c0.018,0.068,0.051,0.153,0.068,0.188v0.067l0.221-0.221c0.527-0.527,1.173-0.935,2.159-0.935
		c1.122,0,1.904,0.629,1.904,1.768c0,0.323-0.068,0.731-0.204,1.258c-0.188,0.681-0.392,1.326-0.766,2.38
		c-0.237,0.663-0.289,0.833-0.322,1.071c-0.018,0.103-0.034,0.188-0.034,0.272c0,0.187,0.067,0.306,0.289,0.306
		c0.271,0,0.425-0.102,0.629-0.272c0.306-0.322,0.544-0.815,0.765-1.581c0.068-0.271,0.068-0.288,0.323-0.288h0.102
		c0.256,0,0.289,0,0.323,0.033c0.034,0.034,0.068,0.068,0.068,0.137c0,0.051-0.018,0.118-0.051,0.221
		c-0.323,1.071-0.867,2.022-1.854,2.346c-0.136,0.034-0.17,0.034-0.408,0.034c-0.866,0-1.394-0.527-1.394-1.394
		c0-0.289,0.017-0.408,0.271-1.071c0.477-1.343,0.8-2.397,0.901-3.061c0.034-0.152,0.034-0.374,0.034-0.577
		c0-0.153,0-0.307-0.018-0.392c-0.102-0.306-0.288-0.561-0.662-0.561c-0.068,0-0.137,0-0.222,0.017
		c-0.765,0.103-1.411,0.629-1.989,1.615c-0.255,0.441-0.203,0.271-0.799,2.686c-0.374,1.496-0.561,2.21-0.595,2.295
		c-0.136,0.272-0.442,0.459-0.748,0.459c-0.323,0-0.527-0.187-0.544-0.492c0-0.103,0.051-0.289,0.663-2.771
		c0.356-1.445,0.68-2.72,0.68-2.805c0.034-0.153,0.051-0.307,0.051-0.442c0-0.34-0.102-0.561-0.374-0.561h-0.051
		c-0.152,0.033-0.34,0.221-0.493,0.526c-0.136,0.289-0.271,0.731-0.459,1.479c-0.085,0.17,0,0.153-0.391,0.153h-0.289
		C252.12,761.389,252.053,761.32,252.053,761.27z"/>
	<path d="M266.808,763.207h4.947c4.761,0,4.947,0,5.016,0.034c0.136,0.068,0.187,0.188,0.187,0.307c0,0.118-0.051,0.237-0.187,0.306
		c-0.068,0.034-0.255,0.034-5.016,0.034h-4.947c-0.136-0.085-0.255-0.17-0.255-0.34
		C266.553,763.377,266.672,763.292,266.808,763.207z M277.519,760.59h-4.947c-4.42,0-4.931,0-4.998-0.034
		c-0.136-0.052-0.204-0.188-0.204-0.307s0.068-0.237,0.204-0.306c0.051-0.034,0.238-0.034,4.998-0.034h4.947
		c0.136,0.085,0.255,0.17,0.255,0.34S277.654,760.504,277.519,760.59z"/>
	<path d="M282.72,757.802c0-1.615,1.411-2.976,3.146-2.976c1.989,0,3.315,1.19,3.604,2.856c0.018,0.152,0.034,0.356,0.034,0.561
		c0,0.748-0.187,1.258-0.595,1.854c-0.357,0.526-0.799,0.985-1.921,1.955c-0.595,0.51-0.544,0.459-1.7,1.563l-1.003,0.952
		l1.292,0.017c1.717,0,2.737-0.033,2.839-0.085c0.051-0.017,0.119-0.187,0.17-0.356c0.085-0.238,0.103-0.392,0.238-1.156v-0.051
		h0.68v0.051c-0.051,0.103-0.425,3.009-0.476,3.111v0.051h-6.308v-0.323c0-0.289,0-0.34,0.034-0.391
		c0.018-0.018,0.663-0.748,1.429-1.615c1.921-2.125,2.006-2.244,2.38-2.72c0.765-1.037,1.139-1.854,1.139-2.839
		c0-1.429-0.765-2.636-2.227-2.636c-0.766,0-1.225,0.34-1.599,0.885c-0.067,0.136-0.153,0.271-0.153,0.288
		c0,0.018,0.034,0.018,0.086,0.018c0.595,0,0.951,0.493,0.951,1.02c0,0.544-0.391,1.021-1.02,1.021
		C283.094,758.855,282.72,758.379,282.72,757.802z"/>
	<path d="M293.022,766.148c-0.511,0-0.851-0.272-0.851-0.782c0-0.663,0.511-1.122,1.037-1.258c0.051,0,0.153-0.017,0.221-0.017
		c0.578,0,0.885,0.407,0.885,1.139c0,0.204-0.018,0.408-0.034,0.51c-0.238,1.105-0.765,2.074-1.411,2.806
		c-0.306,0.356-0.867,0.9-1.003,0.9c-0.103,0-0.323-0.323-0.323-0.391c0-0.068,0.068-0.119,0.188-0.222
		c0.204-0.152,0.544-0.51,0.748-0.747c0.492-0.578,0.815-1.19,1.02-1.837c0.034-0.102,0.068-0.203,0.068-0.221
		C293.566,766.013,293.345,766.148,293.022,766.148z"/>
	<path d="M301.012,757.24c0-1.377,1.292-2.244,2.533-2.396h0.255c0.255,0,0.595,0,0.748,0.017c0.408,0.068,0.765,0.187,1.139,0.357
		c0.748,0.374,1.225,0.918,1.411,1.598c0.034,0.119,0.052,0.289,0.052,0.459c0,1.377-0.986,2.482-2.177,2.924
		c-0.034,0.018-0.051,0.018-0.051,0.034c0,0.051,0.578,0.085,1.292,0.561c0.867,0.562,1.395,1.411,1.395,2.381
		c0,0.459-0.103,0.9-0.323,1.343c-0.527,1.139-1.854,2.006-3.4,2.006c-1.496,0-2.754-0.697-3.162-1.751
		c-0.119-0.255-0.17-0.578-0.17-0.833c0-0.646,0.493-1.071,1.071-1.071c0.629,0,1.088,0.459,1.088,1.071
		c0,0.527-0.323,0.935-0.816,1.054l-0.118,0.034c0.526,0.442,1.274,0.765,2.107,0.765c0.595,0,1.105-0.322,1.411-0.9
		c0.221-0.425,0.289-0.867,0.289-1.717v-0.341c0-1.054-0.408-1.818-1.088-2.158c-0.255-0.103-0.255-0.103-1.037-0.119l-0.714-0.018
		l-0.051-0.034c-0.034-0.051-0.034-0.067-0.034-0.271s0-0.204,0.051-0.255c0.034-0.034,0.068-0.051,0.085-0.051
		c0.051,0,0.884-0.068,0.986-0.085c1.037-0.137,1.529-1.326,1.529-2.618c0-0.748-0.152-1.207-0.595-1.479
		c-0.255-0.17-0.459-0.238-0.799-0.238c-0.51,0-1.088,0.171-1.496,0.459c-0.136,0.086-0.357,0.307-0.34,0.323
		c0,0,0.051,0.018,0.119,0.034c0.459,0.051,0.799,0.493,0.799,0.986c0,0.526-0.391,0.969-1.003,0.969
		C301.369,758.277,301.012,757.835,301.012,757.24z"/>
	<path d="M310.991,766.148c-0.511,0-0.851-0.272-0.851-0.782c0-0.663,0.511-1.122,1.037-1.258c0.051,0,0.153-0.017,0.221-0.017
		c0.578,0,0.885,0.407,0.885,1.139c0,0.204-0.018,0.408-0.034,0.51c-0.238,1.105-0.765,2.074-1.411,2.806
		c-0.306,0.356-0.867,0.9-1.003,0.9c-0.103,0-0.323-0.323-0.323-0.391c0-0.068,0.068-0.119,0.188-0.222
		c0.204-0.152,0.544-0.51,0.748-0.747c0.492-0.578,0.815-1.19,1.02-1.837c0.034-0.102,0.068-0.203,0.068-0.221
		C311.535,766.013,311.313,766.148,310.991,766.148z"/>
	<path d="M323.469,766.098c-0.459,0-2.04,0-2.278,0.051h-0.152v-0.782h0.526c0.544-0.017,0.766-0.034,0.901-0.085
		c0.085-0.017,0.17-0.102,0.204-0.17c0.017-0.034,0.017-0.34,0.017-0.918v-0.85h-4.403v-0.782l2.567-3.927
		c1.615-2.448,2.602-3.944,2.635-3.962c0.034-0.033,0.068-0.033,0.357-0.033h0.306l0.103,0.102v7.82h1.563v0.782h-1.563v0.866
		c0,0.936,0,0.919,0.102,1.021c0.119,0.102,0.272,0.119,0.969,0.136h0.493v0.782h-0.152
		C325.424,766.098,323.911,766.098,323.469,766.098z M322.789,756.884l-3.724,5.66l1.854,0.018h1.87V756.884z"/>
	<path d="M328.96,766.148c-0.511,0-0.851-0.272-0.851-0.782c0-0.663,0.511-1.122,1.037-1.258c0.051,0,0.153-0.017,0.221-0.017
		c0.578,0,0.885,0.407,0.885,1.139c0,0.204-0.018,0.408-0.034,0.51c-0.238,1.105-0.765,2.074-1.411,2.806
		c-0.306,0.356-0.867,0.9-1.003,0.9c-0.103,0-0.323-0.323-0.323-0.391c0-0.068,0.068-0.119,0.188-0.222
		c0.204-0.152,0.544-0.51,0.748-0.747c0.492-0.578,0.815-1.19,1.02-1.837c0.034-0.102,0.068-0.203,0.068-0.221
		C329.504,766.013,329.282,766.148,328.96,766.148z"/>
	<path d="M338.564,763.496c0,0.544-0.493,0.936-0.936,0.936h-0.118l0.051,0.085c0.323,0.68,1.02,1.258,2.022,1.258
		c0.867,0,1.411-0.391,1.734-1.02c0.238-0.46,0.323-1.122,0.323-2.177c0-1.309-0.119-1.903-0.459-2.362
		c-0.272-0.341-0.527-0.562-1.088-0.562c-0.918,0-1.615,0.493-2.006,1.156c-0.086,0.152-0.119,0.17-0.374,0.17
		c-0.238,0-0.289-0.018-0.323-0.103c-0.034-0.067-0.034-0.322-0.034-2.975c0-0.918-0.017-1.598-0.017-2.091
		c0-0.646,0.017-0.952,0.102-0.952c0.017-0.017,0.051-0.034,0.068-0.034c0.017,0,0.152,0.051,0.306,0.103
		c0.68,0.271,1.377,0.441,2.261,0.441c0.799,0,1.599-0.17,2.313-0.476c0.102-0.051,0.17-0.068,0.221-0.068
		c0.103,0,0.136,0.103,0.136,0.306v0.222c-0.765,0.918-1.853,1.648-3.484,1.648c-0.323,0-0.663-0.033-0.952-0.102l-0.17-0.034v2.924
		c0.526-0.425,1.088-0.781,1.989-0.781c0.237,0,0.476,0.033,0.696,0.085c1.496,0.374,2.584,1.836,2.584,3.638
		c0,2.04-1.598,3.791-3.74,3.791c-0.799,0-1.325-0.204-1.818-0.595c-0.153-0.103-0.442-0.392-0.562-0.562
		c-0.356-0.425-0.561-0.952-0.646-1.513c0-0.103-0.018-0.221-0.018-0.323c0-0.663,0.408-1.02,0.97-1.02
		C338.14,762.511,338.564,762.918,338.564,763.496z"/>
	<path d="M346.929,766.148c-0.511,0-0.851-0.272-0.851-0.782c0-0.663,0.511-1.122,1.037-1.258c0.051,0,0.153-0.017,0.221-0.017
		c0.578,0,0.885,0.407,0.885,1.139c0,0.204-0.018,0.408-0.034,0.51c-0.238,1.105-0.765,2.074-1.411,2.806
		c-0.306,0.356-0.867,0.9-1.003,0.9c-0.103,0-0.323-0.323-0.323-0.391c0-0.068,0.068-0.119,0.188-0.222
		c0.204-0.152,0.544-0.51,0.748-0.747c0.492-0.578,0.815-1.19,1.02-1.837c0.034-0.102,0.068-0.203,0.068-0.221
		C347.473,766.013,347.251,766.148,346.929,766.148z"/>
	<path d="M359.032,755.506c-0.952,0-1.513,0.408-1.989,1.021c-0.526,0.731-0.799,1.87-0.799,3.434c0,0.052,0.017,0.068,0.017,0.068
		c0.018,0,0.085-0.136,0.137-0.221c0.407-0.596,0.935-1.021,1.887-1.021c0.561,0,0.935,0.085,1.377,0.323
		c0.544,0.306,1.139,0.969,1.479,1.649c0.255,0.595,0.356,0.951,0.356,1.818v0.307c0,0.306-0.017,0.459-0.085,0.73
		c-0.136,0.697-0.476,1.292-1.054,1.887c-0.51,0.527-1.003,0.816-1.632,0.952c-0.204,0.052-0.442,0.068-0.681,0.068
		c-0.204,0-0.408-0.017-0.578-0.051c-0.799-0.153-1.529-0.646-2.006-1.36c-0.68-1.071-1.003-2.533-1.003-4.284
		c0-2.481,0.918-4.352,2.448-5.354c0.578-0.408,1.224-0.646,1.989-0.646c1.309,0,2.192,0.748,2.192,1.972
		c0,0.578-0.356,0.936-0.9,0.936c-0.527,0-0.901-0.323-0.901-0.901c0-0.561,0.323-0.815,0.799-0.9
		C359.814,755.659,359.475,755.54,359.032,755.506z M358.114,759.399c-0.408,0-0.748,0.119-1.021,0.391
		c-0.526,0.527-0.833,1.479-0.833,2.687c0,0.884,0.103,1.802,0.204,2.091c0.204,0.629,0.748,1.224,1.547,1.224
		c0.612,0,1.021-0.221,1.326-0.646c0.374-0.527,0.392-1.207,0.392-2.278v-0.271v-0.272c0-1.088-0.018-1.802-0.392-2.312
		C359.032,759.62,358.709,759.399,358.114,759.399z"/>
	<path d="M374.894,759.434c0,0.34-1.156,4.606-1.259,5.219c-0.033,0.136-0.033,0.34-0.033,0.51c0,0.272,0.017,0.493,0.221,0.527
		c0.153,0.051,0.289,0,0.425-0.153c0.238-0.255,0.408-0.68,0.646-1.614c0.102-0.357,0.085-0.374,0.374-0.374h0.085
		c0.255,0,0.289,0,0.322,0.033c0.034,0.034,0.052,0.052,0.052,0.119c0,0.051-0.018,0.136-0.034,0.255
		c-0.238,0.851-0.459,1.514-0.936,1.989c-0.221,0.221-0.51,0.391-0.884,0.391c-0.561,0-0.969-0.203-1.241-0.561
		c-0.085-0.102-0.237-0.391-0.237-0.442c0-0.017-0.068,0.052-0.17,0.137c-0.63,0.578-1.241,0.866-1.854,0.866
		c-0.204,0-0.408-0.033-0.612-0.102c-0.918-0.306-1.547-1.258-1.547-2.567c0-0.391,0.068-0.799,0.17-1.24
		c0.374-1.514,1.395-2.873,2.618-3.469c0.392-0.187,0.68-0.322,1.156-0.322c0.459,0,0.765,0.102,1.037,0.306
		c0.17,0.136,0.306,0.323,0.425,0.476c0.068-0.221,0.391-0.441,0.714-0.441C374.587,758.975,374.894,759.161,374.894,759.434z
		 M372.156,759.264c-0.34,0-0.714,0.204-1.054,0.561c-0.511,0.527-0.766,1.122-1.156,2.669c-0.238,1.003-0.323,1.377-0.323,1.819
		v0.136c0,0.595,0.085,0.867,0.391,1.105c0.119,0.102,0.289,0.152,0.477,0.152c0.204,0,0.442-0.067,0.663-0.204
		c0.306-0.187,0.663-0.526,0.952-0.9c0.306-0.408,0.221-0.188,0.714-2.143c0.306-1.224,0.425-1.751,0.425-1.802
		c0-0.136-0.085-0.459-0.153-0.646C372.921,759.553,372.632,759.264,372.156,759.264z"/>
	<path d="M376.458,761.27c0-0.068,0.17-0.663,0.271-0.952c0.204-0.612,0.392-0.969,0.68-1.258c0.238-0.255,0.493-0.425,0.901-0.425
		c0.748,0,1.225,0.356,1.462,0.9c0.018,0.068,0.051,0.153,0.068,0.188v0.067l0.221-0.221c0.527-0.527,1.173-0.935,2.159-0.935
		c1.122,0,1.904,0.629,1.904,1.768c0,0.323-0.068,0.731-0.204,1.258c-0.188,0.681-0.392,1.326-0.766,2.38
		c-0.237,0.663-0.288,0.833-0.322,1.071c-0.018,0.103-0.034,0.188-0.034,0.272c0,0.187,0.068,0.306,0.289,0.306
		c0.271,0,0.425-0.102,0.629-0.272c0.306-0.322,0.544-0.815,0.765-1.581c0.068-0.271,0.068-0.288,0.323-0.288h0.102
		c0.256,0,0.289,0,0.323,0.033c0.034,0.034,0.068,0.068,0.068,0.137c0,0.051-0.018,0.118-0.051,0.221
		c-0.323,1.071-0.867,2.022-1.854,2.346c-0.136,0.034-0.17,0.034-0.408,0.034c-0.866,0-1.394-0.527-1.394-1.394
		c0-0.289,0.017-0.408,0.271-1.071c0.477-1.343,0.8-2.397,0.901-3.061c0.034-0.152,0.034-0.374,0.034-0.577
		c0-0.153,0-0.307-0.018-0.392c-0.102-0.306-0.288-0.561-0.662-0.561c-0.068,0-0.137,0-0.222,0.017
		c-0.765,0.103-1.411,0.629-1.989,1.615c-0.255,0.441-0.203,0.271-0.799,2.686c-0.374,1.496-0.561,2.21-0.595,2.295
		c-0.136,0.272-0.442,0.459-0.748,0.459c-0.323,0-0.527-0.187-0.544-0.492c0-0.103,0.051-0.289,0.663-2.771
		c0.356-1.445,0.68-2.72,0.68-2.805c0.034-0.153,0.051-0.307,0.051-0.442c0-0.34-0.102-0.561-0.374-0.561h-0.051
		c-0.152,0.033-0.34,0.221-0.493,0.526c-0.136,0.289-0.271,0.731-0.459,1.479c-0.085,0.17,0,0.153-0.391,0.153h-0.289
		C376.525,761.389,376.458,761.32,376.458,761.27z"/>
	<path d="M394.172,754.351c0.085,0,0.203,0.034,0.203,0.136s-0.118,0.646-1.224,5.049l-1.292,5.151
		c-0.017,0.102-0.017,0.271-0.017,0.425c0,0.306,0,0.527,0.221,0.578c0.153,0.051,0.289,0,0.425-0.153
		c0.238-0.255,0.408-0.68,0.646-1.614c0.102-0.357,0.085-0.374,0.374-0.374h0.085c0.255,0,0.289,0,0.322,0.033
		c0.068,0.052,0.068,0.119,0.018,0.374c-0.238,0.851-0.459,1.514-0.936,1.989c-0.221,0.221-0.51,0.391-0.884,0.391
		c-0.561,0-0.969-0.203-1.241-0.561c-0.085-0.102-0.237-0.391-0.237-0.442c0-0.017-0.068,0.052-0.17,0.137
		c-0.63,0.578-1.241,0.866-1.854,0.866c-0.204,0-0.408-0.033-0.612-0.102c-0.918-0.306-1.547-1.258-1.547-2.567
		c0-0.391,0.068-0.799,0.17-1.24c0.459-1.87,1.87-3.417,3.384-3.74c0.136-0.034,0.288-0.034,0.459-0.034
		c1.02,0,1.309,0.697,1.359,0.697s0.918-3.672,0.918-3.672c0-0.153-0.017-0.222-0.102-0.272c-0.103-0.034-0.307-0.068-0.681-0.085
		h-0.356c-0.119-0.119-0.153-0.085-0.068-0.459c0.052-0.204,0.085-0.323,0.222-0.323
		C391.791,754.537,394.154,754.351,394.172,754.351z M390.397,759.264c-0.34,0-0.714,0.204-1.054,0.561
		c-0.511,0.527-0.766,1.122-1.156,2.669c-0.238,1.003-0.323,1.377-0.323,1.819v0.136c0,0.425,0.018,0.527,0.119,0.748
		c0.153,0.34,0.425,0.51,0.748,0.51c0.136,0,0.289-0.033,0.442-0.102c0.459-0.188,1.189-0.918,1.41-1.36
		c0.068-0.119,0.901-3.468,0.901-3.587s-0.085-0.459-0.153-0.646C391.162,759.553,390.873,759.264,390.397,759.264z"/>
	<path d="M400.597,760.453l-0.306-0.221c-0.17-0.103-0.392-0.255-0.459-0.34c-0.477-0.408-0.799-0.969-0.936-1.615
		c-0.033-0.153-0.033-0.221-0.033-0.527c0-0.578,0.067-0.85,0.271-1.224c0.477-0.986,1.479-1.7,2.754-1.7
		c1.53,0,2.788,0.884,3.061,2.159c0.017,0.102,0.017,0.255,0.017,0.408c0,0.187,0,0.374-0.034,0.51
		c-0.17,0.765-0.68,1.394-1.547,1.938c-0.102,0.067-0.204,0.118-0.204,0.136c-0.017,0,0.952,0.646,0.986,0.68
		c0.68,0.544,1.275,1.395,1.275,2.533c0,1.819-1.479,3.332-3.536,3.332c-1.445,0-2.499-0.629-3.077-1.53
		c-0.272-0.391-0.425-0.833-0.425-1.479C398.404,762.034,399.39,761.116,400.597,760.453z M401.923,765.791
		c0.952,0,1.751-0.459,2.125-1.036c0.188-0.289,0.289-0.612,0.289-0.936c0-0.459-0.204-0.918-0.595-1.292
		c-0.17-0.17-0.188-0.17-1.411-0.969c-0.578-0.374-1.071-0.681-1.088-0.697c-0.018,0-0.103,0.051-0.204,0.102
		c-0.681,0.442-1.19,1.037-1.411,1.7c-0.085,0.272-0.136,0.544-0.136,0.816C399.492,764.856,400.682,765.791,401.923,765.791z
		 M402.348,755.54c-0.119-0.017-0.374-0.017-0.561-0.017c-0.681,0-1.156,0.255-1.514,0.612c-0.255,0.237-0.425,0.526-0.425,0.935
		c0,0.493,0.289,0.935,0.612,1.156c0.051,0.051,0.544,0.374,1.088,0.714l0.986,0.646c0.136-0.102,0.34-0.203,0.526-0.374
		c0.511-0.407,0.918-0.985,0.918-1.784C403.979,756.391,403.181,755.71,402.348,755.54z"/>
	<path d="M408.519,764.108c0.612,0,1.037,0.476,1.037,1.003c0,0.612-0.493,1.037-1.02,1.037c-0.612,0-1.037-0.493-1.037-1.02
		C407.499,764.551,407.94,764.108,408.519,764.108z"/>
</g>
<g>
	<path fill="#F16422" d="M36.2,240.848c0-0.064,0.16-0.624,0.256-0.896c0.192-0.576,0.368-0.912,0.64-1.184
		c0.224-0.24,0.464-0.4,0.848-0.4c0.704,0,1.152,0.336,1.376,0.848c0.016,0.064,0.048,0.144,0.064,0.176v0.064l0.208-0.208
		c0.496-0.496,1.104-0.88,2.032-0.88c1.056,0,1.792,0.592,1.792,1.664c0,0.304-0.064,0.688-0.192,1.184
		c-0.176,0.64-0.368,1.248-0.72,2.24c-0.224,0.624-0.272,0.784-0.304,1.008c-0.016,0.096-0.032,0.176-0.032,0.256
		c0,0.176,0.064,0.288,0.272,0.288c0.256,0,0.4-0.096,0.592-0.256c0.288-0.304,0.512-0.768,0.72-1.488
		c0.064-0.256,0.064-0.272,0.304-0.272h0.096c0.24,0,0.272,0,0.304,0.032c0.032,0.032,0.064,0.064,0.064,0.128
		c0,0.048-0.016,0.112-0.048,0.208c-0.304,1.008-0.816,1.904-1.744,2.208c-0.128,0.032-0.16,0.032-0.384,0.032
		c-0.816,0-1.312-0.496-1.312-1.312c0-0.272,0.016-0.384,0.256-1.008c0.448-1.264,0.752-2.256,0.848-2.88
		c0.032-0.144,0.032-0.352,0.032-0.544c0-0.144,0-0.288-0.016-0.368c-0.096-0.288-0.272-0.528-0.624-0.528
		c-0.064,0-0.128,0-0.208,0.016c-0.72,0.096-1.328,0.592-1.872,1.52c-0.24,0.416-0.192,0.256-0.752,2.528
		c-0.352,1.408-0.528,2.08-0.56,2.16c-0.128,0.256-0.416,0.432-0.704,0.432c-0.304,0-0.496-0.176-0.512-0.464
		c0-0.096,0.048-0.272,0.624-2.608c0.336-1.36,0.64-2.56,0.64-2.64c0.032-0.144,0.048-0.288,0.048-0.416
		c0-0.32-0.096-0.528-0.352-0.528h-0.048c-0.144,0.032-0.32,0.208-0.464,0.496c-0.128,0.272-0.256,0.688-0.432,1.392
		c-0.08,0.16,0,0.144-0.368,0.144h-0.272C36.264,240.959,36.2,240.896,36.2,240.848z"/>
	<path fill="#F16422" d="M46.888,242.671h4.656c4.48,0,4.656,0,4.72,0.032c0.128,0.064,0.176,0.176,0.176,0.288
		c0,0.112-0.048,0.224-0.176,0.288c-0.064,0.032-0.24,0.032-4.72,0.032h-4.656c-0.128-0.08-0.24-0.16-0.24-0.32
		C46.648,242.832,46.76,242.751,46.888,242.671z M56.968,240.208h-4.656c-4.16,0-4.64,0-4.704-0.032
		c-0.128-0.048-0.192-0.176-0.192-0.288c0-0.112,0.064-0.224,0.192-0.288c0.048-0.032,0.224-0.032,4.704-0.032h4.656
		c0.128,0.08,0.24,0.16,0.24,0.32C57.208,240.047,57.096,240.127,56.968,240.208z"/>
	<path fill="#F16422" d="M58.664,237.583c0-1.52,1.328-2.8,2.96-2.8c1.872,0,3.12,1.12,3.392,2.688
		c0.016,0.144,0.032,0.336,0.032,0.528c0,0.704-0.176,1.184-0.56,1.744c-0.336,0.496-0.752,0.928-1.808,1.84
		c-0.56,0.48-0.512,0.432-1.6,1.472l-0.944,0.896l1.216,0.016c1.616,0,2.576-0.032,2.672-0.08c0.048-0.016,0.112-0.176,0.16-0.336
		c0.08-0.224,0.096-0.368,0.224-1.088v-0.048h0.64v0.048c-0.048,0.096-0.4,2.832-0.448,2.928v0.048h-5.936v-0.304
		c0-0.272,0-0.32,0.032-0.368c0.016-0.016,0.624-0.704,1.344-1.52c1.808-2,1.888-2.112,2.24-2.56
		c0.72-0.976,1.072-1.744,1.072-2.672c0-1.344-0.72-2.48-2.096-2.48c-0.72,0-1.152,0.32-1.504,0.832
		c-0.064,0.128-0.144,0.256-0.144,0.272s0.032,0.016,0.08,0.016c0.56,0,0.896,0.464,0.896,0.96c0,0.512-0.368,0.96-0.96,0.96
		C59.016,238.576,58.664,238.127,58.664,237.583z"/>
</g>
<g>
	<path fill="#F16422" d="M36.2,476.67c0-0.064,0.16-0.624,0.256-0.896c0.192-0.576,0.368-0.912,0.64-1.184
		c0.224-0.24,0.464-0.4,0.848-0.4c0.704,0,1.152,0.336,1.376,0.848c0.016,0.064,0.048,0.145,0.064,0.177v0.063l0.208-0.207
		c0.496-0.496,1.104-0.881,2.032-0.881c1.056,0,1.792,0.592,1.792,1.664c0,0.305-0.064,0.688-0.192,1.184
		c-0.176,0.641-0.368,1.248-0.72,2.24c-0.224,0.625-0.272,0.784-0.304,1.008c-0.016,0.097-0.032,0.177-0.032,0.256
		c0,0.177,0.064,0.289,0.272,0.289c0.256,0,0.4-0.096,0.592-0.256c0.288-0.305,0.512-0.769,0.72-1.488
		c0.064-0.256,0.064-0.271,0.304-0.271h0.096c0.24,0,0.272,0,0.304,0.031c0.032,0.032,0.064,0.064,0.064,0.128
		c0,0.048-0.016,0.112-0.048,0.208c-0.304,1.008-0.816,1.904-1.744,2.208c-0.128,0.032-0.16,0.032-0.384,0.032
		c-0.816,0-1.312-0.496-1.312-1.313c0-0.271,0.016-0.384,0.256-1.008c0.448-1.264,0.752-2.256,0.848-2.88
		c0.032-0.144,0.032-0.353,0.032-0.544c0-0.145,0-0.288-0.016-0.368c-0.096-0.288-0.272-0.528-0.624-0.528
		c-0.064,0-0.128,0-0.208,0.017c-0.72,0.096-1.328,0.592-1.872,1.521c-0.24,0.416-0.192,0.256-0.752,2.527
		c-0.352,1.408-0.528,2.08-0.56,2.16c-0.128,0.256-0.416,0.432-0.704,0.432c-0.304,0-0.496-0.176-0.512-0.464
		c0-0.096,0.048-0.272,0.624-2.608c0.336-1.359,0.64-2.56,0.64-2.64c0.032-0.144,0.048-0.288,0.048-0.416
		c0-0.319-0.096-0.528-0.352-0.528h-0.048c-0.144,0.033-0.32,0.209-0.464,0.496c-0.128,0.272-0.256,0.688-0.432,1.393
		c-0.08,0.16,0,0.145-0.368,0.145h-0.272C36.264,476.781,36.2,476.718,36.2,476.67z"/>
	<path fill="#F16422" d="M46.888,478.494h4.656c4.48,0,4.656,0,4.72,0.031c0.128,0.064,0.176,0.176,0.176,0.289
		c0,0.111-0.048,0.223-0.176,0.287c-0.064,0.032-0.24,0.032-4.72,0.032h-4.656c-0.128-0.08-0.24-0.16-0.24-0.319
		C46.648,478.654,46.76,478.574,46.888,478.494z M56.968,476.029h-4.656c-4.16,0-4.64,0-4.704-0.031
		c-0.128-0.049-0.192-0.176-0.192-0.288s0.064-0.224,0.192-0.288c0.048-0.032,0.224-0.032,4.704-0.032h4.656
		c0.128,0.08,0.24,0.16,0.24,0.32C57.208,475.869,57.096,475.949,56.968,476.029z"/>
	<path fill="#F16422" d="M63.192,481.214c-0.432,0-1.92,0-2.144,0.048h-0.144v-0.736H61.4c0.512-0.016,0.72-0.031,0.848-0.08
		c0.08-0.016,0.16-0.096,0.192-0.16c0.016-0.031,0.016-0.319,0.016-0.863v-0.801h-4.144v-0.735l2.416-3.696
		c1.52-2.304,2.448-3.711,2.48-3.728c0.032-0.032,0.064-0.032,0.336-0.032h0.288l0.096,0.096v7.36h1.472v0.735h-1.472v0.816
		c0,0.881,0,0.864,0.096,0.961c0.112,0.096,0.256,0.111,0.912,0.127h0.464v0.736h-0.144
		C65.032,481.214,63.608,481.214,63.192,481.214z M62.552,472.542l-3.504,5.327l1.744,0.017h1.76V472.542z"/>
</g>
<g>
	<path fill="#F16422" d="M36.2,712.49c0-0.064,0.16-0.624,0.256-0.896c0.192-0.576,0.368-0.912,0.64-1.184
		c0.224-0.24,0.464-0.4,0.848-0.4c0.704,0,1.152,0.336,1.376,0.848c0.016,0.064,0.048,0.145,0.064,0.177v0.063l0.208-0.207
		c0.496-0.496,1.104-0.881,2.032-0.881c1.056,0,1.792,0.592,1.792,1.664c0,0.305-0.064,0.688-0.192,1.184
		c-0.176,0.641-0.368,1.248-0.72,2.24c-0.224,0.625-0.272,0.784-0.304,1.008c-0.016,0.097-0.032,0.177-0.032,0.256
		c0,0.177,0.064,0.289,0.272,0.289c0.256,0,0.4-0.096,0.592-0.256c0.288-0.305,0.512-0.769,0.72-1.488
		c0.064-0.256,0.064-0.271,0.304-0.271h0.096c0.24,0,0.272,0,0.304,0.031c0.032,0.032,0.064,0.064,0.064,0.128
		c0,0.048-0.016,0.112-0.048,0.208c-0.304,1.008-0.816,1.904-1.744,2.208c-0.128,0.032-0.16,0.032-0.384,0.032
		c-0.816,0-1.312-0.496-1.312-1.313c0-0.271,0.016-0.384,0.256-1.008c0.448-1.264,0.752-2.256,0.848-2.88
		c0.032-0.144,0.032-0.353,0.032-0.544c0-0.145,0-0.288-0.016-0.368c-0.096-0.288-0.272-0.528-0.624-0.528
		c-0.064,0-0.128,0-0.208,0.017c-0.72,0.096-1.328,0.592-1.872,1.521c-0.24,0.416-0.192,0.256-0.752,2.527
		c-0.352,1.408-0.528,2.08-0.56,2.16c-0.128,0.256-0.416,0.432-0.704,0.432c-0.304,0-0.496-0.176-0.512-0.464
		c0-0.096,0.048-0.272,0.624-2.608c0.336-1.359,0.64-2.56,0.64-2.64c0.032-0.144,0.048-0.288,0.048-0.416
		c0-0.319-0.096-0.528-0.352-0.528h-0.048c-0.144,0.033-0.32,0.209-0.464,0.496c-0.128,0.272-0.256,0.688-0.432,1.393
		c-0.08,0.16,0,0.145-0.368,0.145h-0.272C36.264,712.602,36.2,712.538,36.2,712.49z"/>
	<path fill="#F16422" d="M46.888,714.314h4.656c4.48,0,4.656,0,4.72,0.031c0.128,0.064,0.176,0.176,0.176,0.289
		c0,0.111-0.048,0.223-0.176,0.287c-0.064,0.032-0.24,0.032-4.72,0.032h-4.656c-0.128-0.08-0.24-0.16-0.24-0.319
		C46.648,714.475,46.76,714.395,46.888,714.314z M56.968,711.85h-4.656c-4.16,0-4.64,0-4.704-0.031
		c-0.128-0.049-0.192-0.176-0.192-0.288s0.064-0.224,0.192-0.288c0.048-0.032,0.224-0.032,4.704-0.032h4.656
		c0.128,0.08,0.24,0.16,0.24,0.32C57.208,711.689,57.096,711.77,56.968,711.85z"/>
	<path fill="#F16422" d="M62.84,707.066c-0.896,0-1.424,0.384-1.872,0.96c-0.496,0.688-0.752,1.76-0.752,3.231
		c0,0.049,0.016,0.064,0.016,0.064c0.016,0,0.08-0.128,0.128-0.208c0.384-0.56,0.88-0.96,1.776-0.96c0.528,0,0.88,0.08,1.296,0.304
		c0.512,0.288,1.072,0.912,1.392,1.552c0.24,0.561,0.336,0.896,0.336,1.713v0.287c0,0.288-0.016,0.432-0.08,0.688
		c-0.128,0.655-0.448,1.216-0.992,1.776c-0.48,0.496-0.944,0.768-1.536,0.896c-0.192,0.048-0.416,0.063-0.64,0.063
		c-0.192,0-0.384-0.016-0.544-0.047c-0.752-0.145-1.44-0.609-1.888-1.281c-0.64-1.008-0.944-2.383-0.944-4.031
		c0-2.336,0.864-4.096,2.304-5.04c0.544-0.384,1.152-0.608,1.872-0.608c1.232,0,2.064,0.705,2.064,1.856
		c0,0.544-0.336,0.88-0.848,0.88c-0.496,0-0.848-0.305-0.848-0.848c0-0.528,0.304-0.769,0.752-0.848
		C63.576,707.21,63.256,707.098,62.84,707.066z M61.976,710.73c-0.384,0-0.704,0.111-0.96,0.367
		c-0.496,0.496-0.784,1.393-0.784,2.528c0,0.832,0.096,1.696,0.192,1.968c0.192,0.592,0.704,1.152,1.456,1.152
		c0.576,0,0.96-0.208,1.248-0.607c0.352-0.496,0.368-1.137,0.368-2.145v-0.256v-0.256c0-1.024-0.016-1.696-0.368-2.176
		C62.84,710.938,62.536,710.73,61.976,710.73z"/>
</g>
<g>
	<path fill="#F16422" d="M272.021,240.848c0-0.064,0.159-0.624,0.256-0.896c0.191-0.576,0.367-0.912,0.64-1.184
		c0.224-0.24,0.464-0.4,0.848-0.4c0.704,0,1.151,0.336,1.376,0.848c0.016,0.064,0.049,0.144,0.064,0.176v0.064l0.207-0.208
		c0.496-0.496,1.104-0.88,2.033-0.88c1.055,0,1.791,0.592,1.791,1.664c0,0.304-0.063,0.688-0.191,1.184
		c-0.176,0.64-0.368,1.248-0.721,2.24c-0.224,0.624-0.271,0.784-0.304,1.008c-0.016,0.096-0.032,0.176-0.032,0.256
		c0,0.176,0.064,0.288,0.272,0.288c0.256,0,0.399-0.096,0.592-0.256c0.288-0.304,0.513-0.768,0.72-1.488
		c0.064-0.256,0.064-0.272,0.305-0.272h0.096c0.24,0,0.271,0,0.305,0.032c0.031,0.032,0.063,0.064,0.063,0.128
		c0,0.048-0.017,0.112-0.048,0.208c-0.305,1.008-0.816,1.904-1.744,2.208c-0.128,0.032-0.16,0.032-0.385,0.032
		c-0.815,0-1.312-0.496-1.312-1.312c0-0.272,0.017-0.384,0.257-1.008c0.447-1.264,0.752-2.256,0.848-2.88
		c0.031-0.144,0.031-0.352,0.031-0.544c0-0.144,0-0.288-0.016-0.368c-0.096-0.288-0.271-0.528-0.624-0.528
		c-0.063,0-0.128,0-0.208,0.016c-0.72,0.096-1.328,0.592-1.872,1.52c-0.239,0.416-0.192,0.256-0.752,2.528
		c-0.353,1.408-0.528,2.08-0.56,2.16c-0.129,0.256-0.416,0.432-0.704,0.432c-0.304,0-0.496-0.176-0.513-0.464
		c0-0.096,0.049-0.272,0.625-2.608c0.336-1.36,0.64-2.56,0.64-2.64c0.032-0.144,0.048-0.288,0.048-0.416
		c0-0.32-0.096-0.528-0.352-0.528h-0.049c-0.144,0.032-0.32,0.208-0.463,0.496c-0.129,0.272-0.257,0.688-0.433,1.392
		c-0.08,0.16,0,0.144-0.368,0.144h-0.271C272.085,240.959,272.021,240.896,272.021,240.848z"/>
	<path fill="#F16422" d="M282.709,242.671h4.656c4.479,0,4.655,0,4.719,0.032c0.129,0.064,0.177,0.176,0.177,0.288
		c0,0.112-0.048,0.224-0.177,0.288c-0.063,0.032-0.239,0.032-4.719,0.032h-4.656c-0.129-0.08-0.24-0.16-0.24-0.32
		C282.469,242.832,282.58,242.751,282.709,242.671z M292.789,240.208h-4.656c-4.16,0-4.641,0-4.704-0.032
		c-0.128-0.048-0.192-0.176-0.192-0.288c0-0.112,0.064-0.224,0.192-0.288c0.048-0.032,0.224-0.032,4.704-0.032h4.656
		c0.127,0.08,0.24,0.16,0.24,0.32C293.029,240.047,292.916,240.127,292.789,240.208z"/>
	<path fill="#F16422" d="M294.789,237.056c0-1.296,1.215-2.112,2.383-2.256h0.24c0.24,0,0.561,0,0.705,0.016
		c0.383,0.064,0.719,0.176,1.071,0.336c0.704,0.352,1.151,0.864,1.328,1.504c0.032,0.112,0.048,0.272,0.048,0.432
		c0,1.296-0.928,2.336-2.048,2.752c-0.032,0.016-0.048,0.016-0.048,0.032c0,0.048,0.544,0.08,1.216,0.528
		c0.815,0.528,1.312,1.328,1.312,2.24c0,0.432-0.096,0.848-0.304,1.264c-0.496,1.072-1.743,1.888-3.2,1.888
		c-1.408,0-2.592-0.656-2.976-1.648c-0.112-0.24-0.16-0.544-0.16-0.784c0-0.608,0.464-1.008,1.009-1.008
		c0.592,0,1.023,0.432,1.023,1.008c0,0.496-0.305,0.88-0.768,0.992l-0.113,0.032c0.496,0.416,1.201,0.72,1.984,0.72
		c0.561,0,1.041-0.304,1.328-0.848c0.208-0.4,0.271-0.816,0.271-1.616v-0.32c0-0.992-0.383-1.712-1.023-2.032
		c-0.24-0.096-0.24-0.096-0.977-0.112l-0.672-0.016l-0.047-0.032c-0.033-0.048-0.033-0.064-0.033-0.256s0-0.192,0.049-0.24
		c0.031-0.032,0.064-0.048,0.08-0.048c0.048,0,0.832-0.064,0.928-0.08c0.977-0.128,1.439-1.248,1.439-2.464
		c0-0.704-0.144-1.136-0.56-1.392c-0.239-0.16-0.432-0.224-0.752-0.224c-0.479,0-1.024,0.16-1.407,0.432
		c-0.129,0.08-0.336,0.288-0.32,0.304c0,0,0.048,0.016,0.111,0.032c0.432,0.048,0.752,0.464,0.752,0.928
		c0,0.496-0.367,0.912-0.943,0.912C295.125,238.032,294.789,237.616,294.789,237.056z"/>
</g>
<g>
	<path fill="#F16422" d="M272.021,476.67c0-0.064,0.159-0.624,0.256-0.896c0.191-0.576,0.367-0.912,0.64-1.184
		c0.224-0.24,0.464-0.4,0.848-0.4c0.704,0,1.151,0.336,1.376,0.848c0.016,0.064,0.049,0.145,0.064,0.177v0.063l0.207-0.207
		c0.496-0.496,1.104-0.881,2.033-0.881c1.055,0,1.791,0.592,1.791,1.664c0,0.305-0.063,0.688-0.191,1.184
		c-0.176,0.641-0.368,1.248-0.721,2.24c-0.224,0.625-0.271,0.784-0.304,1.008c-0.016,0.097-0.032,0.177-0.032,0.256
		c0,0.177,0.064,0.289,0.272,0.289c0.256,0,0.399-0.096,0.592-0.256c0.288-0.305,0.513-0.769,0.72-1.488
		c0.064-0.256,0.064-0.271,0.305-0.271h0.096c0.24,0,0.271,0,0.305,0.031c0.031,0.032,0.063,0.064,0.063,0.128
		c0,0.048-0.017,0.112-0.048,0.208c-0.305,1.008-0.816,1.904-1.744,2.208c-0.128,0.032-0.16,0.032-0.385,0.032
		c-0.815,0-1.312-0.496-1.312-1.313c0-0.271,0.017-0.384,0.257-1.008c0.447-1.264,0.752-2.256,0.848-2.88
		c0.031-0.144,0.031-0.353,0.031-0.544c0-0.145,0-0.288-0.016-0.368c-0.096-0.288-0.271-0.528-0.624-0.528
		c-0.063,0-0.128,0-0.208,0.017c-0.72,0.096-1.328,0.592-1.872,1.521c-0.239,0.416-0.192,0.256-0.752,2.527
		c-0.353,1.408-0.528,2.08-0.56,2.16c-0.129,0.256-0.416,0.432-0.704,0.432c-0.304,0-0.496-0.176-0.513-0.464
		c0-0.096,0.049-0.272,0.625-2.608c0.336-1.359,0.64-2.56,0.64-2.64c0.032-0.144,0.048-0.288,0.048-0.416
		c0-0.319-0.096-0.528-0.352-0.528h-0.049c-0.144,0.033-0.32,0.209-0.463,0.496c-0.129,0.272-0.257,0.688-0.433,1.393
		c-0.08,0.16,0,0.145-0.368,0.145h-0.271C272.085,476.781,272.021,476.718,272.021,476.67z"/>
	<path fill="#F16422" d="M282.709,478.494h4.656c4.479,0,4.655,0,4.719,0.031c0.129,0.064,0.177,0.176,0.177,0.289
		c0,0.111-0.048,0.223-0.177,0.287c-0.063,0.032-0.239,0.032-4.719,0.032h-4.656c-0.129-0.08-0.24-0.16-0.24-0.319
		C282.469,478.654,282.58,478.574,282.709,478.494z M292.789,476.029h-4.656c-4.16,0-4.641,0-4.704-0.031
		c-0.128-0.049-0.192-0.176-0.192-0.288s0.064-0.224,0.192-0.288c0.048-0.032,0.224-0.032,4.704-0.032h4.656
		c0.127,0.08,0.24,0.16,0.24,0.32C293.029,475.869,292.916,475.949,292.789,476.029z"/>
	<path fill="#F16422" d="M296.309,478.766c0,0.512-0.464,0.88-0.88,0.88h-0.112l0.049,0.08c0.303,0.64,0.959,1.185,1.903,1.185
		c0.815,0,1.328-0.369,1.632-0.961c0.225-0.432,0.305-1.056,0.305-2.047c0-1.232-0.113-1.793-0.433-2.225
		c-0.256-0.32-0.496-0.527-1.024-0.527c-0.863,0-1.52,0.463-1.888,1.088c-0.079,0.144-0.112,0.16-0.353,0.16
		c-0.223,0-0.271-0.017-0.303-0.097c-0.033-0.063-0.033-0.304-0.033-2.8c0-0.864-0.016-1.504-0.016-1.969
		c0-0.607,0.016-0.896,0.096-0.896c0.017-0.016,0.049-0.032,0.064-0.032s0.145,0.049,0.288,0.096
		c0.64,0.257,1.296,0.416,2.128,0.416c0.752,0,1.504-0.159,2.176-0.447c0.096-0.048,0.16-0.064,0.209-0.064
		c0.096,0,0.127,0.096,0.127,0.289v0.207c-0.72,0.864-1.744,1.553-3.279,1.553c-0.305,0-0.625-0.032-0.896-0.097l-0.16-0.032v2.752
		c0.496-0.399,1.024-0.735,1.873-0.735c0.223,0,0.447,0.032,0.655,0.079c1.407,0.353,2.433,1.729,2.433,3.425
		c0,1.92-1.505,3.567-3.521,3.567c-0.752,0-1.248-0.191-1.712-0.56c-0.145-0.097-0.416-0.368-0.528-0.528
		c-0.336-0.399-0.528-0.896-0.608-1.424c0-0.096-0.016-0.208-0.016-0.304c0-0.624,0.385-0.96,0.912-0.96
		C295.908,477.838,296.309,478.222,296.309,478.766z"/>
</g>
<g>
	<path fill="#F16422" d="M272.021,712.49c0-0.064,0.159-0.624,0.256-0.896c0.191-0.576,0.367-0.912,0.64-1.184
		c0.224-0.24,0.464-0.4,0.848-0.4c0.704,0,1.151,0.336,1.376,0.848c0.016,0.064,0.049,0.145,0.064,0.177v0.063l0.207-0.207
		c0.496-0.496,1.104-0.881,2.033-0.881c1.055,0,1.791,0.592,1.791,1.664c0,0.305-0.063,0.688-0.191,1.184
		c-0.176,0.641-0.368,1.248-0.721,2.24c-0.224,0.625-0.271,0.784-0.304,1.008c-0.016,0.097-0.032,0.177-0.032,0.256
		c0,0.177,0.064,0.289,0.272,0.289c0.256,0,0.399-0.096,0.592-0.256c0.288-0.305,0.513-0.769,0.72-1.488
		c0.064-0.256,0.064-0.271,0.305-0.271h0.096c0.24,0,0.271,0,0.305,0.031c0.031,0.032,0.063,0.064,0.063,0.128
		c0,0.048-0.017,0.112-0.048,0.208c-0.305,1.008-0.816,1.904-1.744,2.208c-0.128,0.032-0.16,0.032-0.385,0.032
		c-0.815,0-1.312-0.496-1.312-1.313c0-0.271,0.017-0.384,0.257-1.008c0.447-1.264,0.752-2.256,0.848-2.88
		c0.031-0.144,0.031-0.353,0.031-0.544c0-0.145,0-0.288-0.016-0.368c-0.096-0.288-0.271-0.528-0.624-0.528
		c-0.063,0-0.128,0-0.208,0.017c-0.72,0.096-1.328,0.592-1.872,1.521c-0.239,0.416-0.192,0.256-0.752,2.527
		c-0.353,1.408-0.528,2.08-0.56,2.16c-0.129,0.256-0.416,0.432-0.704,0.432c-0.304,0-0.496-0.176-0.513-0.464
		c0-0.096,0.049-0.272,0.625-2.608c0.336-1.359,0.64-2.56,0.64-2.64c0.032-0.144,0.048-0.288,0.048-0.416
		c0-0.319-0.096-0.528-0.352-0.528h-0.049c-0.144,0.033-0.32,0.209-0.463,0.496c-0.129,0.272-0.257,0.688-0.433,1.393
		c-0.08,0.16,0,0.145-0.368,0.145h-0.271C272.085,712.602,272.021,712.538,272.021,712.49z"/>
	<path fill="#F16422" d="M282.709,714.314h4.656c4.479,0,4.655,0,4.719,0.031c0.129,0.064,0.177,0.176,0.177,0.289
		c0,0.111-0.048,0.223-0.177,0.287c-0.063,0.032-0.239,0.032-4.719,0.032h-4.656c-0.129-0.08-0.24-0.16-0.24-0.319
		C282.469,714.475,282.58,714.395,282.709,714.314z M292.789,711.85h-4.656c-4.16,0-4.641,0-4.704-0.031
		c-0.128-0.049-0.192-0.176-0.192-0.288s0.064-0.224,0.192-0.288c0.048-0.032,0.224-0.032,4.704-0.032h4.656
		c0.127,0.08,0.24,0.16,0.24,0.32C293.029,711.689,292.916,711.77,292.789,711.85z"/>
	<path fill="#F16422" d="M296.437,711.723l-0.288-0.209c-0.16-0.096-0.367-0.24-0.432-0.319c-0.448-0.384-0.752-0.912-0.881-1.521
		c-0.031-0.144-0.031-0.207-0.031-0.496c0-0.543,0.064-0.8,0.256-1.151c0.447-0.929,1.393-1.601,2.592-1.601
		c1.439,0,2.624,0.832,2.881,2.032c0.016,0.097,0.016,0.24,0.016,0.384c0,0.176,0,0.353-0.032,0.48
		c-0.16,0.72-0.64,1.313-1.456,1.824c-0.096,0.063-0.191,0.111-0.191,0.127c-0.017,0,0.896,0.609,0.928,0.641
		c0.64,0.512,1.199,1.313,1.199,2.384c0,1.712-1.392,3.136-3.328,3.136c-1.359,0-2.352-0.592-2.896-1.439
		c-0.256-0.368-0.399-0.784-0.399-1.393C294.373,713.21,295.301,712.346,296.437,711.723z M297.685,716.746
		c0.896,0,1.647-0.432,2-0.977c0.176-0.271,0.272-0.576,0.272-0.879c0-0.433-0.192-0.865-0.561-1.217
		c-0.16-0.16-0.176-0.16-1.328-0.912c-0.544-0.352-1.008-0.64-1.023-0.656c-0.017,0-0.096,0.049-0.192,0.097
		c-0.64,0.416-1.12,0.976-1.328,1.601c-0.08,0.256-0.128,0.512-0.128,0.768C295.396,715.866,296.517,716.746,297.685,716.746z
		 M298.084,707.098c-0.111-0.016-0.352-0.016-0.527-0.016c-0.641,0-1.088,0.24-1.424,0.576c-0.24,0.225-0.4,0.496-0.4,0.88
		c0,0.464,0.271,0.88,0.576,1.088c0.048,0.048,0.512,0.353,1.023,0.673l0.928,0.607c0.129-0.096,0.32-0.192,0.496-0.352
		c0.48-0.385,0.865-0.929,0.865-1.681C299.621,707.898,298.869,707.258,298.084,707.098z"/>
</g>
<rect fill="none" width="512" height="800"/>
</svg>
