<?xml version="1.0" encoding="utf-8"?>
<!DOCTYPE svg PUBLIC "-//W3C//DTD SVG 1.1//EN" "http://www.w3.org/Graphics/SVG/1.1/DTD/svg11.dtd">
<svg  xmlns="http://www.w3.org/2000/svg" width="407.39" height="386.956"
	 viewBox="0 0 407.39 386.956" overflow="visible">
<g>
	<g>
		<path fill="#047391" d="M398.55,78.914c-1.988,0-4.128-0.777-6.188-2.249c-1.541-1.1-2.49-2.188-2.531-2.234
			c-0.162-0.188-0.162-0.467,0-0.655c0.041-0.046,0.99-1.135,2.531-2.235c2.06-1.471,4.199-2.249,6.188-2.249
			s4.128,0.777,6.188,2.249c1.541,1.1,2.49,2.189,2.53,2.235c0.163,0.188,0.163,0.466,0,0.655c-0.04,0.046-0.989,1.135-2.53,2.234
			C402.678,78.137,400.539,78.914,398.55,78.914z M390.896,74.104c0.385,0.392,1.109,1.081,2.067,1.762
			c1.313,0.934,3.349,2.048,5.587,2.048s4.273-1.114,5.587-2.048c0.958-0.681,1.683-1.371,2.067-1.762
			c-0.384-0.393-1.109-1.082-2.067-1.763c-1.313-0.934-3.349-2.048-5.587-2.048s-4.273,1.114-5.587,2.048
			C392.005,73.022,391.281,73.711,390.896,74.104z"/>
	</g>
	<g>
		<path fill="#047391" d="M398.55,77.203c-1.709,0-3.1-1.391-3.1-3.1c0-1.709,1.391-3.1,3.1-3.1c0.752,0,1.477,0.272,2.041,0.767
			c0.209,0.182,0.229,0.498,0.047,0.706c-0.182,0.208-0.498,0.229-0.705,0.046c-0.383-0.335-0.873-0.52-1.383-0.52
			c-1.158,0-2.1,0.942-2.1,2.1c0,1.157,0.941,2.1,2.1,2.1s2.1-0.942,2.1-2.1c0-0.276,0.224-0.5,0.5-0.5s0.5,0.224,0.5,0.5
			C401.65,75.813,400.259,77.203,398.55,77.203z"/>
	</g>
</g>
<path fill="#FFBF00" d="M24.938,20.388c-2.509,0-4.55,2.042-4.55,4.55c0,2.509,2.042,4.55,4.55,4.55c2.508,0,4.55-2.042,4.55-4.55
	C29.487,22.429,27.446,20.388,24.938,20.388z M24.938,28.488c-1.961,0-3.551-1.589-3.551-3.551c0-1.961,1.589-3.551,3.551-3.551
	c1.961,0,3.551,1.59,3.551,3.551C28.488,26.899,26.898,28.488,24.938,28.488z M24.938,18.438c0.275,0,0.5-0.224,0.5-0.5V0.5
	c0-0.276-0.225-0.5-0.5-0.5c-0.276,0-0.5,0.224-0.5,0.5v17.438C24.438,18.213,24.661,18.438,24.938,18.438z M24.938,31.438
	c-0.276,0-0.5,0.224-0.5,0.5v17.438c0,0.276,0.224,0.5,0.5,0.5c0.275,0,0.5-0.224,0.5-0.5V31.938
	C25.438,31.661,25.213,31.438,24.938,31.438z M18.438,24.938c0-0.276-0.225-0.5-0.5-0.5H0.5c-0.276,0-0.5,0.224-0.5,0.5
	c0,0.276,0.224,0.5,0.5,0.5h17.438C18.213,25.438,18.438,25.213,18.438,24.938z M49.375,24.438H31.938c-0.276,0-0.5,0.224-0.5,0.5
	c0,0.276,0.224,0.5,0.5,0.5h17.438c0.276,0,0.5-0.224,0.5-0.5C49.875,24.661,49.651,24.438,49.375,24.438z"/>
<path fill="#FFD0A9" stroke="#231F20" d="M61.72,317.792c37-10.333,118.667,30,136.916,67.797
	c11.751-38.464,65.093-69.109,95.751-76.464C251.054,264.458,146.387,228.458,61.72,317.792z"/>
<path fill="none" stroke="#047391" stroke-miterlimit="10" d="M217.818,226.546c6.801,2.475,12.524,6.61,16.878,11.781"/>
<path fill="none" stroke="#FF4000" stroke-miterlimit="10" d="M179.159,243.125c9.047,0,17.537,2.41,24.862,6.623"/>
<path fill="none" stroke="#FF4000" stroke-miterlimit="10" d="M179.52,243.125c-9.047,0-17.537,2.41-24.863,6.623"/>
<g>
	<line fill="none" stroke="#231F20" stroke-miterlimit="10" x1="179.72" y1="293.125" x2="179.72" y2="171.125"/>
	<polyline fill="#231F20" points="179.72,171.125 176.72,171.125 179.72,160.625 182.72,171.125 179.72,171.125 	"/>
</g>
<path fill="none" stroke="#231F20" stroke-width="0.5" stroke-miterlimit="10" d="M260.72,270.125"/>
<path fill="#231F20" d="M181.72,293.125c0-1.104-0.896-2-2-2s-2,0.896-2,2s0.896,2,2,2S181.72,294.229,181.72,293.125"/>
<line fill="none" stroke="#231F20" stroke-miterlimit="10" x1="240.593" y1="186.228" x2="179.72" y2="292.979"/>
<polyline fill="#231F20" points="240.37,186.606 242.968,188.106 245.62,177.513 237.772,185.106 240.37,186.606 "/>
<line fill="none" stroke="#231F20" stroke-miterlimit="10" x1="179.72" y1="292.975" x2="29.72" y2="33.167"/>
<polyline fill="#231F20" points="31.2,35.765 28.603,37.265 25.95,26.671 33.798,34.265 31.2,35.765 "/>
<path fill="#231F20" d="M26.683,23.939c-0.552-0.956-1.776-1.284-2.732-0.732s-1.284,1.776-0.732,2.732s1.776,1.284,2.732,0.732
	S27.234,24.895,26.683,23.939"/>
<polyline fill="#231F20" points="118.323,186.625 115.724,188.125 113.073,177.532 120.92,185.125 118.323,186.625 "/>
<line fill="none" stroke="#231F20" stroke-miterlimit="10" x1="179.72" y1="292.979" x2="391.853" y2="80.846"/>
<polyline fill="#231F20" points="389.727,82.948 387.606,80.827 397.152,75.523 391.848,85.069 389.727,82.948 "/>
<path fill="#231F20" d="M399.98,75.524c0.78-0.78,0.78-2.048,0-2.829s-2.049-0.781-2.829,0s-0.78,2.048,0.001,2.829
	C397.932,76.304,399.2,76.304,399.98,75.524"/>
<polyline fill="#231F20" points="266.556,206.147 264.435,204.026 273.98,198.723 268.677,208.269 266.556,206.147 "/>
<g>
	<path fill="#FF4000" d="M159.001,228.863c0-2.308,0.469-4.085,1.407-5.332c0.709-0.938,1.559-1.406,2.55-1.406
		c0.961,0,1.782,0.451,2.462,1.354c0.95,1.259,1.425,2.973,1.425,5.139c0,2.063-0.466,3.69-1.398,4.885
		c-0.727,0.926-1.583,1.389-2.567,1.389c-0.534,0-1.021-0.129-1.46-0.387s-0.829-0.629-1.169-1.115
		c-0.34-0.486-0.602-1.002-0.783-1.547C159.157,230.905,159.001,229.912,159.001,228.863z M165.142,228.219
		c-0.006-1.52-0.152-2.738-0.44-3.658c-0.223-0.704-0.519-1.207-0.888-1.51c-0.27-0.222-0.581-0.332-0.933-0.332
		c-0.399,0-0.766,0.154-1.1,0.463c-0.334,0.309-0.588,0.823-0.761,1.545c-0.173,0.722-0.289,1.886-0.348,3.492H165.142z
		 M160.673,228.813c0.023,1.045,0.103,1.983,0.237,2.816c0.1,0.635,0.273,1.187,0.52,1.655c0.146,0.282,0.36,0.521,0.643,0.718
		c0.281,0.197,0.583,0.295,0.906,0.295c0.375,0,0.732-0.176,1.069-0.528c0.337-0.352,0.593-0.918,0.766-1.698
		c0.173-0.781,0.277-1.867,0.313-3.258H160.673z"/>
</g>
<g>
	<path fill="#FF4000" d="M192.668,228.863c0-2.308,0.469-4.085,1.407-5.332c0.709-0.938,1.559-1.406,2.55-1.406
		c0.962,0,1.782,0.451,2.462,1.354c0.95,1.259,1.425,2.973,1.425,5.139c0,2.063-0.466,3.69-1.398,4.885
		c-0.727,0.926-1.583,1.389-2.567,1.389c-0.533,0-1.021-0.129-1.46-0.387s-0.829-0.629-1.169-1.115s-0.602-1.002-0.783-1.547
		C192.824,230.905,192.668,229.912,192.668,228.863z M198.809,228.219c-0.006-1.52-0.152-2.738-0.44-3.658
		c-0.223-0.704-0.519-1.207-0.888-1.51c-0.271-0.222-0.581-0.332-0.933-0.332c-0.398,0-0.766,0.154-1.1,0.463
		s-0.588,0.823-0.761,1.545s-0.289,1.886-0.348,3.492H198.809z M194.34,228.813c0.023,1.045,0.103,1.983,0.237,2.816
		c0.1,0.635,0.273,1.187,0.52,1.655c0.146,0.282,0.36,0.521,0.643,0.718c0.281,0.197,0.584,0.295,0.906,0.295
		c0.375,0,0.732-0.176,1.069-0.528c0.337-0.352,0.593-0.918,0.766-1.698c0.173-0.781,0.277-1.867,0.313-3.258H194.34z"/>
</g>
<g>
	<path fill="#047391" d="M237.113,216.896h1.463l-1.16,4.004c-0.072,0.249-0.186,0.64-0.34,1.172c0.223,0.902,0.389,1.442,0.5,1.619
		c0.211,0.324,0.478,0.486,0.799,0.486c0.234,0,0.451-0.098,0.65-0.292c0.198-0.194,0.33-0.498,0.395-0.911h0.359
		c-0.082,0.845-0.26,1.428-0.533,1.751c-0.272,0.322-0.588,0.483-0.945,0.483c-0.335,0-0.639-0.141-0.912-0.422
		c-0.272-0.281-0.518-0.886-0.734-1.813c-0.258,0.512-0.51,0.9-0.756,1.165c-0.346,0.364-0.721,0.637-1.125,0.815
		c-0.404,0.18-0.864,0.27-1.38,0.27c-1.295,0-2.247-0.43-2.856-1.291c-0.609-0.86-0.914-1.841-0.914-2.942
		c0-1.288,0.357-2.332,1.072-3.131s1.553-1.199,2.514-1.199c0.668,0,1.256,0.203,1.766,0.609s0.973,1.162,1.389,2.267
		L237.113,216.896z M236.059,220.53c-0.317-1.207-0.725-2.05-1.223-2.527c-0.499-0.478-1.006-0.717-1.521-0.717
		c-0.574,0-1.052,0.315-1.434,0.945c-0.381,0.631-0.571,1.635-0.571,3.013c0,0.814,0.082,1.455,0.246,1.921
		c0.164,0.467,0.412,0.827,0.743,1.082c0.331,0.256,0.682,0.383,1.051,0.383c0.451,0,0.864-0.208,1.24-0.625
		C235.1,223.442,235.589,222.284,236.059,220.53z"/>
</g>
<path fill="#FFBF00" d="M20.341,29.534c-0.195-0.195-0.513-0.195-0.707,0L7.304,41.864c-0.195,0.195-0.195,0.512,0,0.707
	s0.512,0.195,0.708,0l12.33-12.33C20.536,30.046,20.536,29.729,20.341,29.534z"/>
<path fill="#FFBF00" d="M41.864,7.304l-12.33,12.331c-0.195,0.195-0.195,0.512,0,0.707c0.195,0.195,0.512,0.195,0.707,0l12.33-12.33
	c0.195-0.196,0.195-0.512,0-0.708S42.059,7.108,41.864,7.304z"/>
<path fill="#FFBF00" d="M20.341,20.341c0.195-0.195,0.195-0.513,0-0.707L8.011,7.304c-0.195-0.195-0.512-0.195-0.707,0
	s-0.195,0.512,0,0.708l12.33,12.33C19.829,20.536,20.146,20.536,20.341,20.341z"/>
<path fill="#FFBF00" d="M42.571,41.864l-12.331-12.33c-0.195-0.195-0.512-0.195-0.707,0c-0.195,0.195-0.195,0.512,0,0.707
	l12.33,12.33c0.196,0.195,0.512,0.195,0.708,0S42.767,42.059,42.571,41.864z"/>
<g>
	<path d="M185.124,151.221h-1.811l-6.486-10.046c-0.164-0.252-0.299-0.516-0.404-0.791h-0.053c0.047,0.27,0.07,0.847,0.07,1.731
		v9.105h-1.477v-12.604h1.916l6.311,9.888c0.264,0.41,0.434,0.691,0.51,0.844h0.035c-0.059-0.363-0.088-0.981-0.088-1.854v-8.877
		h1.477V151.221z"/>
</g>
<g>
	<path d="M184.313,133.412h-10.484v-0.664h10.484c-0.646-0.749-1.1-1.327-1.359-1.735c-0.259-0.408-0.512-0.916-0.758-1.523h0.547
		c0.533,0.657,1.196,1.323,1.989,1.999c0.792,0.675,1.421,1.146,1.886,1.41v0.383c-0.606,0.338-1.268,0.822-1.985,1.451
		c-0.718,0.63-1.348,1.275-1.89,1.937h-0.547c0.26-0.616,0.526-1.138,0.799-1.567C183.268,134.673,183.708,134.11,184.313,133.412z"
		/>
</g>
<g>
	<path d="M106.502,216.221h-6.539v-12.604h1.477v11.268h5.063V216.221z"/>
</g>
<g>
	<path d="M107.313,198.412H96.829v-0.664h10.484c-0.646-0.749-1.1-1.327-1.359-1.735c-0.259-0.408-0.512-0.916-0.758-1.523h0.547
		c0.533,0.657,1.196,1.323,1.989,1.999c0.792,0.675,1.421,1.146,1.886,1.41v0.383c-0.606,0.338-1.268,0.822-1.985,1.451
		c-0.718,0.63-1.348,1.275-1.89,1.937h-0.547c0.26-0.616,0.526-1.138,0.799-1.567C106.268,199.673,106.708,199.11,107.313,198.412z"
		/>
</g>
<g>
	<path d="M259.502,181.221h-6.539v-12.604h1.477v11.268h5.063V181.221z"/>
</g>
<g>
	<path d="M260.313,163.412h-10.484v-0.664h10.484c-0.646-0.749-1.1-1.327-1.359-1.735c-0.259-0.408-0.512-0.916-0.758-1.523h0.547
		c0.533,0.657,1.196,1.323,1.989,1.999c0.792,0.675,1.421,1.146,1.886,1.41v0.383c-0.606,0.338-1.268,0.822-1.985,1.451
		c-0.718,0.63-1.348,1.275-1.89,1.937h-0.547c0.26-0.616,0.526-1.138,0.799-1.567C259.268,164.673,259.708,164.11,260.313,163.412z"
		/>
</g>
<g>
	<path d="M266.096,178.356c-0.196-0.15-0.479-0.226-0.848-0.226c-0.479,0-0.878,0.226-1.2,0.677
		c-0.32,0.451-0.481,1.066-0.481,1.846v3.568h-1.121v-7h1.121v1.442h0.027c0.159-0.492,0.403-0.876,0.731-1.152
		c0.328-0.275,0.695-0.414,1.101-0.414c0.292,0,0.515,0.032,0.67,0.096V178.356z"/>
</g>
<g>
	<path d="M280.333,222.118l-4.667,12.603h-1.626l-4.57-12.603h1.644l3.489,9.994c0.111,0.322,0.196,0.693,0.255,1.115h0.035
		c0.047-0.352,0.144-0.729,0.29-1.133l3.56-9.976H280.333z"/>
</g>
<g>
	<path d="M279.313,216.912h-10.484v-0.664h10.484c-0.646-0.749-1.1-1.327-1.359-1.735c-0.259-0.408-0.512-0.916-0.758-1.523h0.547
		c0.533,0.657,1.196,1.323,1.989,1.999c0.792,0.675,1.421,1.146,1.886,1.41v0.383c-0.606,0.338-1.268,0.822-1.985,1.451
		c-0.718,0.63-1.348,1.275-1.89,1.937h-0.547c0.26-0.616,0.526-1.138,0.799-1.567C278.268,218.173,278.708,217.61,279.313,216.912z"
		/>
</g>
</svg>
