<?xml version="1.0" encoding="utf-8"?>
<!DOCTYPE svg PUBLIC "-//W3C//DTD SVG 1.1//EN" "http://www.w3.org/Graphics/SVG/1.1/DTD/svg11.dtd">
<svg  xmlns="http://www.w3.org/2000/svg" width="487" height="531.525" viewBox="18 -20 450 565" overflow="visible">
<g>
	<path fill="#F26522" d="M166.641,303.525h-1.281v-4.563c0-1.698-0.62-2.547-1.859-2.547c-0.641,0-1.17,0.241-1.59,0.723
		s-0.629,1.09-0.629,1.824v4.563H160v-8h1.281v1.328h0.031c0.604-1.01,1.479-1.516,2.625-1.516c0.875,0,1.544,0.283,2.008,0.848
		s0.695,1.381,0.695,2.449V303.525z"/>
	<path fill="#F26522" d="M178.297,297.713h-7.344v-1.031h7.344V297.713z M178.297,301.041h-7.344v-1.031h7.344V301.041z"/>
</g>
<g>
	<path fill="none" stroke="#000000" stroke-width="0.5" stroke-miterlimit="10" d="M0,211.525h200 M100,231.525v-130"/>
	<polyline points="100,101.525 98,101.525 100,94.525 102,101.525 100,101.525 	"/>
	<polyline points="200,211.525 200,213.525 207,211.525 200,209.525 200,211.525 	"/>
	<path d="M191,211.485c0-0.552-0.448-1-1-1s-1,0.448-1,1s0.448,1,1,1S191,212.037,191,211.485"/>
	<polyline fill="none" stroke="#000000" stroke-width="0.5" stroke-miterlimit="10" points="190,211.525 189,211.495 188,211.403 
		187,211.251 186,211.039 185,210.766 184,210.433 183,210.04 182,209.588 181,209.078 180,208.51 179,207.885 178,207.203 
		177,206.465 176,205.673 175,204.827 174,203.928 173,202.977 172,201.976 171,200.926 170,199.828 169,198.683 168,197.492 
		167,196.258 166,194.982 165,193.665 164,192.309 163,190.915 162,189.485 161,188.021 160,186.525 159,184.999 158,183.444 
		157,181.862 156,180.256 155,178.626 154,176.976 153,175.307 152,173.622 151,171.921 150,170.208 149,168.484 148,166.752 
		147,165.013 146,163.271 145,161.525 144,159.78 143,158.038 142,156.299 141,154.566 140,152.843 139,151.13 138,149.429 
		137,147.744 136,146.074 135,144.424 134,142.795 133,141.188 132,139.607 131,138.052 130,136.525 129,135.029 128,133.565 
		127,132.136 126,130.742 125,129.386 124,128.069 123,126.792 122,125.559 121,124.368 120,123.223 119,122.125 118,121.074 
		117,120.073 116,119.123 115,118.224 114,117.378 113,116.586 112,115.848 111,115.166 110,114.541 109,113.973 108,113.462 
		107,113.011 106,112.618 105,112.285 104,112.012 103,111.799 102,111.647 101,111.556 100,111.525 	"/>
	<path d="M11,211.485c0-0.552-0.448-1-1-1s-1,0.448-1,1s0.448,1,1,1S11,212.037,11,211.485"/>
	<path fill="none" stroke="#000000" stroke-width="0.5" stroke-miterlimit="10" d="M10,211.525l1-0.03l1-0.092l1-0.152l1-0.213
		l1-0.273l1-0.333l1-0.393l1-0.452l1-0.51l1-0.568l1-0.625l1-0.682l1-0.738l1-0.792l1-0.846l1-0.899l1-0.951l1-1.001l1-1.05l1-1.098
		l1-1.145l1-1.19l1-1.234l1-1.276l1-1.317l1-1.356l1-1.394l1-1.43l1-1.463l1-1.496l1-1.526l1-1.555l1-1.582l1-1.606l1-1.629l1-1.65
		l1-1.669l1-1.686l1-1.701l1-1.713l1-1.724l1-1.732l1-1.739l1-1.743l1-1.745l1-1.745l1-1.743l1-1.739l1-1.732l1-1.724l1-1.713
		l1-1.701l1-1.686l1-1.669l1-1.65l1-1.629l1-1.606l1-1.582l1-1.555l1-1.526l1-1.496l1-1.464l1-1.429l1-1.394l1-1.356l1-1.317
		l1-1.276l1-1.234l1-1.19l1-1.145l1-1.098l1-1.051l1-1.001l1-0.95l1-0.899l1-0.846l1-0.792l1-0.738l1-0.682l1-0.625l1-0.568l1-0.51
		l1-0.452l1-0.393l1-0.333l1-0.273l1-0.212l1-0.152l1-0.092l1-0.03 M280,211.525h200 M380,231.525v-130"/>
	<polyline points="380,101.525 378,101.525 380,94.525 382,101.525 380,101.525 	"/>
	<polyline points="480,211.525 480,213.525 487,211.525 480,209.525 480,211.525 	"/>
	<path d="M470.96,211.485c0-0.552-0.448-1-1-1s-1,0.448-1,1s0.448,1,1,1S470.96,212.037,470.96,211.485"/>
	<polyline fill="none" stroke="#000000" stroke-width="0.5" stroke-miterlimit="10" points="470,211.525 469,211.525 468,211.521 
		467,211.511 466,211.491 465,211.459 464,211.411 463,211.344 462,211.256 461,211.143 460,211.002 459,210.831 458,210.626 
		457,210.387 456,210.109 455,209.792 454,209.431 453,209.026 452,208.575 451,208.075 450,207.524 449,206.923 448,206.269 
		447,205.56 446,204.796 445,203.977 444,203.101 443,202.168 442,201.178 441,200.13 440,199.025 439,197.863 438,196.645 
		437,195.37 436,194.04 435,192.655 434,191.218 433,189.729 432,188.189 431,186.602 430,184.967 429,183.288 428,181.566 
		427,179.804 426,178.005 425,176.17 424,174.303 423,172.407 422,170.484 421,168.538 420,166.572 419,164.589 418,162.593 
		417,160.587 416,158.574 415,156.56 414,154.545 413,152.536 412,150.535 411,148.546 410,146.573 409,144.621 408,142.691 
		407,140.789 406,138.918 405,137.082 404,135.284 403,133.528 402,131.818 401,130.157 400,128.548 399,126.996 398,125.501 
		397,124.069 396,122.703 395,121.403 394,120.175 393,119.019 392,117.939 391,116.937 390,116.014 389,115.174 388,114.417 
		387,113.745 386,113.16 385,112.663 384,112.254 383,111.936 382,111.708 381,111.571 380,111.525 	"/>
	<path d="M290.96,211.485c0-0.552-0.448-1-1-1s-1,0.448-1,1s0.448,1,1,1S290.96,212.037,290.96,211.485"/>
	<path fill="none" stroke="#000000" stroke-width="0.5" stroke-miterlimit="10" d="M290,211.525l1,0l1-0.004l1-0.01l1-0.02l1-0.032
		l1-0.048l1-0.067l1-0.088l1-0.113l1-0.141l1-0.171l1-0.204l1-0.239l1-0.278l1-0.318l1-0.36l1-0.405l1-0.452l1-0.5l1-0.55l1-0.602
		l1-0.654l1-0.708l1-0.764l1-0.819l1-0.876l1-0.933l1-0.99l1-1.048l1-1.105l1-1.162l1-1.219l1-1.275l1-1.33l1-1.384l1-1.438l1-1.489
		l1-1.539l1-1.588l1-1.635l1-1.679l1-1.722l1-1.762l1-1.799l1-1.835l1-1.867l1-1.896l1-1.922l1-1.946l1-1.966l1-1.983l1-1.997
		l1-2.006l1-2.013l1-2.015l1-2.014l1-2.009l1-2.001l1-1.989l1-1.973l1-1.953l1-1.929l1-1.902l1-1.871l1-1.836l1-1.798l1-1.756
		l1-1.71l1-1.661l1-1.609l1-1.553l1-1.494l1-1.432l1-1.367l1-1.299l1-1.229l1-1.156l1-1.08l1-1.002l1-0.922l1-0.84l1-0.757l1-0.671
		l1-0.585l1-0.497l1-0.408l1-0.318l1-0.228l1-0.137l1-0.046 M0,361.525h200 M100,381.525v-130"/>
	<polyline points="100,251.525 98,251.525 100,244.525 102,251.525 100,251.525 	"/>
	<polyline points="200,361.525 200,363.525 207,361.525 200,359.525 200,361.525 	"/>
	<path d="M191,361.485c0-0.552-0.448-1-1-1s-1,0.448-1,1s0.448,1,1,1S191,362.037,191,361.485"/>
	<polyline fill="none" stroke="#000000" stroke-width="0.5" stroke-miterlimit="10" points="190,361.525 189,361.525 188,361.525 
		187,361.524 186,361.523 185,361.52 184,361.514 183,361.504 182,361.488 181,361.465 180,361.435 179,361.393 178,361.338 
		177,361.27 176,361.183 175,361.076 174,360.948 173,360.795 172,360.613 171,360.402 170,360.157 169,359.876 168,359.557 
		167,359.194 166,358.789 165,358.336 164,357.832 163,357.277 162,356.668 161,356.001 160,355.275 159,354.488 158,353.64 
		157,352.727 156,351.748 155,350.702 154,349.589 153,348.408 152,347.158 151,345.84 150,344.454 149,343 148,341.479 
		147,339.892 146,338.24 145,336.525 144,334.75 143,332.916 142,331.025 141,329.082 140,327.089 139,325.049 138,322.967 
		137,320.844 136,318.688 135,316.5 134,314.287 133,312.053 132,309.803 131,307.542 130,305.275 129,303.009 128,300.749 
		127,298.499 126,296.267 125,294.057 124,291.875 123,289.729 122,287.622 121,285.562 120,283.553 119,281.601 118,279.712 
		117,277.891 116,276.144 115,274.474 114,272.888 113,271.39 112,269.984 111,268.674 110,267.465 109,266.36 108,265.362 
		107,264.474 106,263.699 105,263.039 104,262.496 103,262.072 102,261.769 101,261.586 100,261.525 	"/>
	<path d="M11,361.485c0-0.552-0.448-1-1-1s-1,0.448-1,1s0.448,1,1,1S11,362.037,11,361.485"/>
	<path fill="none" stroke="#000000" stroke-width="0.5" stroke-miterlimit="10" d="M10,361.525h1h1l1-0.001l1-0.001l1-0.004l1-0.006
		l1-0.01l1-0.016l1-0.023l1-0.03l1-0.042l1-0.055l1-0.068l1-0.087l1-0.106l1-0.128l1-0.153l1-0.182l1-0.211l1-0.245l1-0.281l1-0.319
		l1-0.362l1-0.405l1-0.453l1-0.504l1-0.555l1-0.609l1-0.667l1-0.726l1-0.787l1-0.849l1-0.913l1-0.979l1-1.046l1-1.113l1-1.181
		l1-1.25l1-1.318l1-1.386L51,343l1-1.521l1-1.587l1-1.651l1-1.715l1-1.775l1-1.834l1-1.891l1-1.943l1-1.993l1-2.04l1-2.082l1-2.123
		l1-2.156l1-2.188l1-2.213l1-2.234l1-2.25l1-2.261l1-2.266l1-2.267l1-2.26l1-2.25l1-2.232l1-2.21l1-2.181l1-2.147l1-2.106l1-2.061
		l1-2.009l1-1.952l1-1.889l1-1.821l1-1.748l1-1.669l1-1.586l1-1.499l1-1.406l1-1.31l1-1.209l1-1.105l1-0.998l1-0.888l1-0.775l1-0.66
		l1-0.543l1-0.424l1-0.304l1-0.182l1-0.061 M280,361.525h200 M380,381.525v-130"/>
	<polyline points="380,251.525 378,251.525 380,244.525 382,251.525 380,251.525 	"/>
	<polyline points="480,361.525 480,363.525 487,361.525 480,359.525 480,361.525 	"/>
	<path d="M470.96,361.485c0-0.552-0.448-1-1-1s-1,0.448-1,1s0.448,1,1,1S470.96,362.037,470.96,361.485"/>
	<polyline fill="none" stroke="#000000" stroke-width="0.5" stroke-miterlimit="10" points="470,361.525 469,361.525 468,361.525 
		467,361.525 466,361.525 465,361.525 464,361.524 463,361.522 462,361.52 461,361.516 460,361.51 459,361.5 458,361.486 
		457,361.468 456,361.442 455,361.409 454,361.366 453,361.312 452,361.244 451,361.16 450,361.058 449,360.935 448,360.787 
		447,360.615 446,360.412 445,360.178 444,359.906 443,359.597 442,359.244 441,358.848 440,358.4 439,357.901 438,357.347 
		437,356.732 436,356.058 435,355.317 434,354.51 433,353.631 432,352.68 431,351.654 430,350.553 429,349.371 428,348.111 
		427,346.771 426,345.35 425,343.848 424,342.265 423,340.602 422,338.859 421,337.041 420,335.146 419,333.178 418,331.141 
		417,329.036 416,326.869 415,324.643 414,322.363 413,320.034 412,317.662 411,315.252 410,312.812 409,310.346 408,307.862 
		407,305.368 406,302.871 405,300.378 404,297.897 403,295.436 402,293.003 401,290.607 400,288.255 399,285.955 398,283.716 
		397,281.545 396,279.451 395,277.44 394,275.521 393,273.7 392,271.984 391,270.38 390,268.894 389,267.531 388,266.297 
		387,265.197 386,264.234 385,263.414 384,262.737 383,262.209 382,261.83 381,261.602 380,261.525 	"/>
	<path d="M290.96,361.485c0-0.552-0.448-1-1-1s-1,0.448-1,1s0.448,1,1,1S290.96,362.037,290.96,361.485"/>
	<path fill="none" stroke="#000000" stroke-width="0.5" stroke-miterlimit="10" d="M290,361.525h1h1h1h1h1l1-0.001l1-0.002l1-0.003
		l1-0.004l1-0.006l1-0.01l1-0.014l1-0.019l1-0.025l1-0.033l1-0.043l1-0.055l1-0.067l1-0.084l1-0.103l1-0.123l1-0.147l1-0.172
		l1-0.203l1-0.234l1-0.271l1-0.31l1-0.353l1-0.396l1-0.447l1-0.499l1-0.555l1-0.614l1-0.675l1-0.74l1-0.808l1-0.879l1-0.951l1-1.025
		l1-1.102l1-1.182l1-1.26l1-1.34l1-1.422l1-1.502l1-1.583l1-1.663l1-1.742l1-1.818l1-1.896l1-1.968l1-2.037l1-2.104l1-2.167l1-2.227
		l1-2.279l1-2.329l1-2.372l1-2.41l1-2.44l1-2.466l1-2.483l1-2.494l1-2.497l1-2.493l1-2.481l1-2.461l1-2.433l1-2.396l1-2.352l1-2.3
		l1-2.239l1-2.17l1-2.095l1-2.01l1-1.919l1-1.821l1-1.716l1-1.604l1-1.486l1-1.363l1-1.234l1-1.1l1-0.963l1-0.821l1-0.676l1-0.528
		l1-0.379l1-0.228l1-0.076 M0,511.525h200 M100,531.525v-130"/>
	<polyline points="100,401.525 98,401.525 100,394.525 102,401.525 100,401.525 	"/>
	<polyline points="200,511.525 200,513.525 207,511.525 200,509.525 200,511.525 	"/>
	<path d="M191,511.485c0-0.552-0.448-1-1-1s-1,0.448-1,1s0.448,1,1,1S191,512.037,191,511.485"/>
	<polyline fill="none" stroke="#000000" stroke-width="0.5" stroke-miterlimit="10" points="190,511.525 189,511.525 188,511.525 
		187,511.525 186,511.525 185,511.525 184,511.525 183,511.525 182,511.524 181,511.523 180,511.522 179,511.521 178,511.518 
		177,511.513 176,511.506 175,511.495 174,511.481 173,511.463 172,511.438 171,511.406 170,511.365 169,511.313 168,511.249 
		167,511.17 166,511.072 165,510.955 164,510.816 163,510.65 162,510.455 161,510.227 160,509.963 159,509.658 158,509.311 
		157,508.915 156,508.468 155,507.965 154,507.401 153,506.774 152,506.08 151,505.313 150,504.472 149,503.552 148,502.55 
		147,501.463 146,500.289 145,499.025 144,497.67 143,496.223 142,494.682 141,493.047 140,491.317 139,489.495 138,487.582 
		137,485.578 136,483.487 135,481.313 134,479.059 133,476.729 132,474.327 131,471.861 130,469.338 129,466.763 128,464.144 
		127,461.489 126,458.807 125,456.107 124,453.398 123,450.689 122,447.993 121,445.317 120,442.674 119,440.072 118,437.524 
		117,435.04 116,432.631 115,430.306 114,428.076 113,425.951 112,423.941 111,422.055 110,420.302 109,418.688 108,417.225 
		107,415.915 106,414.768 105,413.787 104,412.979 103,412.345 102,411.891 101,411.617 100,411.525 	"/>
	<path d="M11,511.485c0-0.552-0.448-1-1-1s-1,0.448-1,1s0.448,1,1,1S11,512.037,11,511.485"/>
	<path fill="none" stroke="#000000" stroke-width="0.5" stroke-miterlimit="10" d="M10,511.525h1h1h1h1h1h1h1l1-0.001l1-0.001
		l1-0.001l1-0.002l1-0.003l1-0.005l1-0.007l1-0.011l1-0.014l1-0.019l1-0.024l1-0.032l1-0.041l1-0.052l1-0.064l1-0.079l1-0.098
		l1-0.117l1-0.139l1-0.166l1-0.195l1-0.229l1-0.264l1-0.305l1-0.348l1-0.396l1-0.447l1-0.503l1-0.563l1-0.627l1-0.694l1-0.767
		l1-0.842l1-0.92l1-1.002l1-1.087l1-1.174l1-1.264l1-1.355l1-1.447l1-1.541l1-1.635l1-1.729l1-1.822l1-1.913l1-2.004l1-2.091
		l1-2.175l1-2.254l1-2.33l1-2.401l1-2.466l1-2.523l1-2.575l1-2.619l1-2.654l1-2.683l1-2.699l1-2.709l1-2.709l1-2.696l1-2.676
		l1-2.644l1-2.602l1-2.548l1-2.484l1-2.409l1-2.325l1-2.229l1-2.125l1-2.01l1-1.887l1-1.753l1-1.613l1-1.464l1-1.31l1-1.147l1-0.98
		l1-0.809l1-0.634l1-0.454l1-0.273l1-0.092 M280,511.525h200 M380,531.525v-130"/>
	<polyline points="380,401.525 378,401.525 380,394.525 382,401.525 380,401.525 	"/>
	<polyline points="480,511.525 480,513.525 487,511.525 480,509.525 480,511.525 	"/>
	<path d="M470.96,511.485c0-0.552-0.448-1-1-1s-1,0.448-1,1s0.448,1,1,1S470.96,512.037,470.96,511.485"/>
	<polyline fill="none" stroke="#000000" stroke-width="0.5" stroke-miterlimit="10" points="470,511.525 469,511.525 468,511.525 
		467,511.525 466,511.525 465,511.525 464,511.525 463,511.525 462,511.525 461,511.525 460,511.525 459,511.525 458,511.525 
		457,511.525 456,511.524 455,511.523 454,511.521 453,511.52 452,511.518 451,511.513 450,511.507 449,511.498 448,511.486 
		447,511.471 446,511.45 445,511.424 444,511.389 443,511.345 442,511.289 441,511.221 440,511.135 439,511.03 438,510.903 
		437,510.751 436,510.569 435,510.354 434,510.101 433,509.805 432,509.461 431,509.065 430,508.611 429,508.094 428,507.507 
		427,506.846 426,506.104 425,505.275 424,504.355 423,503.34 422,502.223 421,501 420,499.667 419,498.221 418,496.657 
		417,494.976 416,493.174 415,491.252 414,489.211 413,487.05 412,484.773 411,482.383 410,479.885 409,477.283 408,474.587 
		407,471.802 406,468.938 405,466.005 404,463.014 403,459.978 402,456.908 401,453.82 400,450.728 399,447.646 398,444.591 
		397,441.578 396,438.625 395,435.746 394,432.96 393,430.281 392,427.727 391,425.313 390,423.053 389,420.961 388,419.051 
		387,417.335 386,415.824 385,414.529 384,413.457 383,412.617 382,412.012 381,411.646 380,411.525 	"/>
	<path d="M290.96,511.485c0-0.552-0.448-1-1-1s-1,0.448-1,1s0.448,1,1,1S290.96,512.037,290.96,511.485"/>
	<polyline fill="none" stroke="#000000" stroke-width="0.5" stroke-miterlimit="10" points="290,511.525 291,511.525 292,511.525 
		293,511.525 294,511.525 295,511.525 296,511.525 297,511.525 298,511.525 299,511.525 300,511.525 301,511.525 302,511.525 
		303,511.525 304,511.524 305,511.523 306,511.521 307,511.52 308,511.518 309,511.513 310,511.507 311,511.498 312,511.486 
		313,511.471 314,511.45 315,511.424 316,511.389 317,511.345 318,511.289 319,511.221 320,511.135 321,511.03 322,510.903 
		323,510.751 324,510.569 325,510.354 326,510.101 327,509.805 328,509.461 329,509.065 330,508.611 331,508.094 332,507.507 
		333,506.846 334,506.104 335,505.275 336,504.355 337,503.34 338,502.223 339,501 340,499.667 341,498.221 342,496.657 
		343,494.976 344,493.174 345,491.252 346,489.211 347,487.05 348,484.773 349,482.383 350,479.885 351,477.283 352,474.587 
		353,471.802 354,468.938 355,466.005 356,463.014 357,459.978 358,456.908 359,453.82 360,450.728 361,447.646 362,444.591 
		363,441.578 364,438.625 365,435.746 366,432.96 367,430.281 368,427.727 369,425.313 370,423.053 371,420.961 372,419.051 
		373,417.335 374,415.824 375,414.529 376,413.457 377,412.617 378,412.012 379,411.646 380,411.525 	"/>
</g>
<g transform="translate(0 25)">
	<path fill="#F26522" d="M43.52,12.645v6.881h-2.133V1.32h5.002c1.946,0,3.455,0.474,4.526,1.422
		c1.071,0.948,1.606,2.285,1.606,4.012s-0.595,3.14-1.784,4.24c-1.189,1.101-2.795,1.65-4.818,1.65H43.52z M43.52,3.25v7.465h2.234
		c1.473,0,2.596-0.336,3.371-1.009s1.162-1.623,1.162-2.85c0-2.403-1.422-3.605-4.266-3.605H43.52z"/>
	<path fill="#F26522" d="M66.46,19.525h-2.082v-7.49c0-2.708-1.007-4.063-3.021-4.063c-1.016,0-1.871,0.392-2.564,1.174
		c-0.694,0.783-1.041,1.788-1.041,3.015v7.363h-2.082V0.279h2.082v8.404h0.051c0.999-1.642,2.42-2.463,4.266-2.463
		c2.928,0,4.393,1.765,4.393,5.294V19.525z"/>
	<path fill="#F26522" d="M75.816,19.814c-1.921,0-3.455-0.607-4.602-1.822s-1.72-2.825-1.72-4.831c0-2.184,0.597-3.889,1.79-5.116
		c1.193-1.227,2.806-1.841,4.837-1.841c1.938,0,3.451,0.597,4.539,1.79s1.631,2.848,1.631,4.964c0,2.074-0.586,3.734-1.758,4.983
		S77.788,19.814,75.816,19.814z M75.969,7.957c-1.337,0-2.396,0.455-3.174,1.365c-0.779,0.91-1.168,2.165-1.168,3.764
		c0,1.541,0.394,2.755,1.181,3.644s1.841,1.333,3.161,1.333c1.346,0,2.38-0.436,3.104-1.308c0.724-0.872,1.085-2.111,1.085-3.72
		c0-1.625-0.362-2.877-1.085-3.758C78.349,8.397,77.314,7.957,75.969,7.957z"/>
	<path fill="#F26522" d="M96.408,19.51h-2.082v-7.414c0-2.759-1.007-4.139-3.021-4.139c-1.041,0-1.902,0.392-2.583,1.174
		s-1.022,1.771-1.022,2.964v7.414h-2.082v-13h2.082v2.158h0.051c0.981-1.642,2.403-2.463,4.266-2.463
		c1.422,0,2.509,0.459,3.263,1.377c0.753,0.918,1.13,2.245,1.13,3.98V19.51z"/>
	<path fill="#F26522" d="M111.427,18.469c0,4.773-2.285,7.16-6.855,7.16c-1.608,0-3.013-0.305-4.215-0.914v-2.082
		c1.464,0.813,2.86,1.219,4.189,1.219c3.199,0,4.799-1.701,4.799-5.104v-1.422h-0.051c-0.99,1.659-2.48,2.488-4.469,2.488
		c-1.617,0-2.918-0.578-3.904-1.733s-1.479-2.706-1.479-4.653c0-2.209,0.531-3.965,1.593-5.269c1.062-1.303,2.516-1.955,4.361-1.955
		c1.752,0,3.051,0.703,3.897,2.107h0.051V6.51h2.082V18.469z M109.345,13.632v-1.917c0-1.032-0.349-1.917-1.047-2.653
		s-1.568-1.104-2.609-1.104c-1.287,0-2.294,0.468-3.021,1.403c-0.728,0.935-1.092,2.245-1.092,3.929
		c0,1.447,0.349,2.604,1.047,3.472s1.623,1.301,2.774,1.301c1.168,0,2.118-0.415,2.85-1.244
		C108.979,15.989,109.345,14.927,109.345,13.632z"/>
	<path fill="#F26522" d="M121.977,19.04v-2.234c1.134,0.838,2.382,1.257,3.745,1.257c1.828,0,2.742-0.609,2.742-1.828
		c0-0.347-0.078-0.641-0.235-0.882s-0.368-0.455-0.635-0.641c-0.267-0.186-0.58-0.354-0.939-0.501s-0.747-0.302-1.162-0.463
		c-0.576-0.229-1.081-0.459-1.517-0.692s-0.8-0.495-1.092-0.787s-0.512-0.624-0.66-0.997c-0.148-0.372-0.222-0.808-0.222-1.308
		c0-0.609,0.14-1.149,0.419-1.619s0.651-0.863,1.117-1.181c0.465-0.317,0.997-0.556,1.593-0.717
		c0.597-0.161,1.212-0.241,1.847-0.241c1.125,0,2.133,0.195,3.021,0.584v2.107c-0.957-0.626-2.057-0.939-3.301-0.939
		c-0.39,0-0.741,0.044-1.054,0.133c-0.313,0.089-0.582,0.214-0.806,0.375c-0.224,0.161-0.398,0.354-0.521,0.578
		s-0.184,0.472-0.184,0.743c0,0.339,0.062,0.622,0.184,0.851s0.302,0.432,0.54,0.609c0.237,0.178,0.524,0.339,0.863,0.482
		c0.338,0.144,0.724,0.301,1.155,0.47c0.575,0.22,1.092,0.446,1.549,0.679s0.846,0.495,1.168,0.787
		c0.321,0.292,0.569,0.628,0.743,1.009s0.26,0.834,0.26,1.358c0,0.644-0.142,1.202-0.425,1.676
		c-0.284,0.474-0.663,0.868-1.136,1.181c-0.474,0.313-1.02,0.546-1.638,0.698c-0.618,0.152-1.266,0.229-1.942,0.229
		C124.118,19.814,122.958,19.556,121.977,19.04z"/>
	<path fill="#F26522" d="M144.587,19.525h-2.082v-7.49c0-2.708-1.007-4.063-3.021-4.063c-1.016,0-1.871,0.392-2.564,1.174
		c-0.694,0.783-1.041,1.788-1.041,3.015v7.363h-2.082V0.279h2.082v8.404h0.051c0.999-1.642,2.42-2.463,4.266-2.463
		c2.928,0,4.393,1.765,4.393,5.294V19.525z"/>
	<path fill="#F26522" d="M157.815,19.51h-2.082v-2.031h-0.051c-0.906,1.558-2.239,2.336-3.999,2.336
		c-1.295,0-2.309-0.343-3.041-1.028s-1.098-1.595-1.098-2.729c0-2.429,1.43-3.842,4.291-4.24l3.897-0.546
		c0-2.209-0.893-3.313-2.679-3.313c-1.566,0-2.979,0.533-4.24,1.6V7.424c1.278-0.813,2.75-1.219,4.418-1.219
		c3.055,0,4.583,1.617,4.583,4.85V19.51z M155.733,12.934l-3.136,0.432c-0.965,0.136-1.693,0.375-2.184,0.717
		c-0.491,0.343-0.736,0.95-0.736,1.822c0,0.635,0.227,1.153,0.679,1.555s1.056,0.603,1.809,0.603c1.032,0,1.885-0.362,2.558-1.085
		s1.009-1.64,1.009-2.749V12.934z"/>
	<path fill="#F26522" d="M172.834,19.525h-2.082v-2.209h-0.051c-0.965,1.676-2.455,2.514-4.469,2.514
		c-1.634,0-2.939-0.582-3.917-1.746s-1.466-2.749-1.466-4.754c0-2.149,0.542-3.872,1.625-5.167c1.083-1.295,2.526-1.942,4.329-1.942
		c1.786,0,3.085,0.703,3.897,2.107h0.051V0.279h2.082V19.525z M170.752,13.647V11.73c0-1.049-0.347-1.938-1.041-2.666
		c-0.694-0.728-1.574-1.092-2.641-1.092c-1.27,0-2.269,0.466-2.996,1.396c-0.728,0.931-1.092,2.218-1.092,3.859
		c0,1.498,0.349,2.681,1.047,3.548s1.635,1.301,2.812,1.301c1.159,0,2.101-0.419,2.825-1.257S170.752,14.926,170.752,13.647z"/>
	<path fill="#F26522" d="M178.115,3.225c-0.373,0-0.69-0.127-0.952-0.381c-0.263-0.254-0.394-0.575-0.394-0.965
		c0-0.389,0.131-0.713,0.394-0.971c0.262-0.258,0.58-0.387,0.952-0.387c0.381,0,0.705,0.129,0.971,0.387s0.4,0.582,0.4,0.971
		c0,0.373-0.133,0.69-0.4,0.952C178.82,3.094,178.496,3.225,178.115,3.225z M179.131,19.525h-2.082v-13h2.082V19.525z"/>
	<path fill="#F26522" d="M194.137,19.51h-2.082v-7.414c0-2.759-1.007-4.139-3.021-4.139c-1.041,0-1.902,0.392-2.583,1.174
		s-1.022,1.771-1.022,2.964v7.414h-2.082v-13h2.082v2.158h0.051c0.981-1.642,2.403-2.463,4.266-2.463
		c1.422,0,2.509,0.459,3.263,1.377c0.753,0.918,1.13,2.245,1.13,3.98V19.51z"/>
	<path fill="#F26522" d="M209.155,18.469c0,4.773-2.285,7.16-6.855,7.16c-1.608,0-3.013-0.305-4.215-0.914v-2.082
		c1.464,0.813,2.86,1.219,4.189,1.219c3.199,0,4.799-1.701,4.799-5.104v-1.422h-0.051c-0.99,1.659-2.479,2.488-4.469,2.488
		c-1.616,0-2.918-0.578-3.903-1.733c-0.986-1.155-1.479-2.706-1.479-4.653c0-2.209,0.531-3.965,1.593-5.269
		c1.063-1.303,2.516-1.955,4.361-1.955c1.752,0,3.051,0.703,3.897,2.107h0.051V6.51h2.082V18.469z M207.073,13.632v-1.917
		c0-1.032-0.349-1.917-1.048-2.653c-0.697-0.736-1.567-1.104-2.608-1.104c-1.286,0-2.294,0.468-3.021,1.403
		s-1.092,2.245-1.092,3.929c0,1.447,0.349,2.604,1.048,3.472c0.697,0.868,1.622,1.301,2.773,1.301c1.168,0,2.118-0.415,2.85-1.244
		C206.707,15.989,207.073,14.927,207.073,13.632z"/>
	<path fill="#F26522" d="M227.145,13.102h-6.932v-1.638h6.932V13.102z"/>
	<path fill="#F26522" d="M244.436,2.107c-0.406-0.229-0.867-0.343-1.384-0.343c-1.456,0-2.184,0.918-2.184,2.755v2.006h3.047v1.777
		h-3.047v11.223h-2.069V8.303h-2.222V6.525h2.222V4.418c0-1.362,0.394-2.439,1.181-3.231S241.748,0,242.925,0
		c0.635,0,1.138,0.076,1.511,0.229V2.107z"/>
	<path fill="#F26522" d="M256.661,19.525h-2.082v-2.057h-0.051c-0.863,1.574-2.2,2.361-4.012,2.361
		c-3.098,0-4.646-1.845-4.646-5.535v-7.77h2.069v7.439c0,2.742,1.049,4.113,3.148,4.113c1.016,0,1.852-0.375,2.508-1.124
		c0.655-0.749,0.983-1.729,0.983-2.939v-7.49h2.082V19.525z"/>
	<path fill="#F26522" d="M271.654,19.51h-2.082v-7.414c0-2.759-1.008-4.139-3.021-4.139c-1.041,0-1.902,0.392-2.584,1.174
		c-0.681,0.783-1.021,1.771-1.021,2.964v7.414h-2.082v-13h2.082v2.158h0.051c0.981-1.642,2.403-2.463,4.266-2.463
		c1.422,0,2.51,0.459,3.263,1.377s1.13,2.245,1.13,3.98V19.51z"/>
	<path fill="#F26522" d="M284.438,18.913c-0.999,0.601-2.184,0.901-3.555,0.901c-1.854,0-3.35-0.603-4.487-1.809
		c-1.139-1.206-1.708-2.77-1.708-4.691c0-2.141,0.613-3.861,1.841-5.161c1.227-1.299,2.865-1.949,4.913-1.949
		c1.143,0,2.149,0.212,3.021,0.635v2.133c-0.965-0.677-1.997-1.016-3.098-1.016c-1.329,0-2.419,0.476-3.269,1.428
		c-0.852,0.952-1.276,2.203-1.276,3.751c0,1.523,0.399,2.726,1.2,3.605c0.799,0.88,1.872,1.32,3.218,1.32
		c1.134,0,2.2-0.376,3.199-1.13V18.913z"/>
	<path fill="#F26522" d="M293.617,19.398c-0.491,0.271-1.139,0.406-1.942,0.406c-2.276,0-3.415-1.27-3.415-3.809V8.303h-2.234V6.525
		h2.234V3.352l2.082-0.673v3.847h3.275v1.777h-3.275v7.325c0,0.872,0.148,1.494,0.444,1.866c0.296,0.373,0.787,0.559,1.473,0.559
		c0.524,0,0.978-0.144,1.358-0.432V19.398z"/>
	<path fill="#F26522" d="M297.464,3.225c-0.372,0-0.69-0.127-0.952-0.381c-0.263-0.254-0.394-0.575-0.394-0.965
		c0-0.389,0.131-0.713,0.394-0.971c0.262-0.258,0.58-0.387,0.952-0.387c0.381,0,0.704,0.129,0.972,0.387
		c0.266,0.258,0.399,0.582,0.399,0.971c0,0.373-0.134,0.69-0.399,0.952C298.168,3.094,297.845,3.225,297.464,3.225z M298.479,19.525
		h-2.082v-13h2.082V19.525z"/>
	<path fill="#F26522" d="M308.128,19.814c-1.921,0-3.455-0.607-4.603-1.822c-1.146-1.214-1.72-2.825-1.72-4.831
		c0-2.184,0.597-3.889,1.79-5.116c1.193-1.227,2.806-1.841,4.837-1.841c1.938,0,3.451,0.597,4.538,1.79
		c1.088,1.193,1.632,2.848,1.632,4.964c0,2.074-0.586,3.734-1.759,4.983C311.672,19.19,310.1,19.814,308.128,19.814z M308.28,7.957
		c-1.337,0-2.396,0.455-3.174,1.365s-1.168,2.165-1.168,3.764c0,1.541,0.394,2.755,1.181,3.644s1.841,1.333,3.161,1.333
		c1.346,0,2.38-0.436,3.104-1.308c0.723-0.872,1.085-2.111,1.085-3.72c0-1.625-0.362-2.877-1.085-3.758
		C310.66,8.397,309.626,7.957,308.28,7.957z"/>
	<path fill="#F26522" d="M328.72,19.51h-2.082v-7.414c0-2.759-1.007-4.139-3.021-4.139c-1.041,0-1.902,0.392-2.583,1.174
		c-0.682,0.783-1.022,1.771-1.022,2.964v7.414h-2.082v-13h2.082v2.158h0.051c0.981-1.642,2.403-2.463,4.266-2.463
		c1.422,0,2.509,0.459,3.263,1.377c0.753,0.918,1.13,2.245,1.13,3.98V19.51z"/>
	<path fill="#F26522" d="M348.626,18.913c-0.999,0.601-2.184,0.901-3.555,0.901c-1.854,0-3.35-0.603-4.487-1.809
		c-1.139-1.206-1.708-2.77-1.708-4.691c0-2.141,0.613-3.861,1.841-5.161c1.227-1.299,2.865-1.949,4.913-1.949
		c1.143,0,2.149,0.212,3.021,0.635v2.133c-0.965-0.677-1.997-1.016-3.098-1.016c-1.329,0-2.419,0.476-3.269,1.428
		c-0.852,0.952-1.276,2.203-1.276,3.751c0,1.523,0.399,2.726,1.2,3.605c0.799,0.88,1.872,1.32,3.218,1.32
		c1.134,0,2.2-0.376,3.199-1.13V18.913z"/>
	<path fill="#F26522" d="M357.208,19.814c-1.921,0-3.455-0.607-4.603-1.822c-1.146-1.214-1.72-2.825-1.72-4.831
		c0-2.184,0.597-3.889,1.79-5.116c1.193-1.227,2.806-1.841,4.837-1.841c1.938,0,3.451,0.597,4.538,1.79
		c1.088,1.193,1.632,2.848,1.632,4.964c0,2.074-0.586,3.734-1.759,4.983C360.752,19.19,359.18,19.814,357.208,19.814z M357.36,7.957
		c-1.337,0-2.396,0.455-3.174,1.365s-1.168,2.165-1.168,3.764c0,1.541,0.394,2.755,1.181,3.644s1.841,1.333,3.161,1.333
		c1.346,0,2.38-0.436,3.104-1.308c0.723-0.872,1.085-2.111,1.085-3.72c0-1.625-0.362-2.877-1.085-3.758
		C359.74,8.397,358.706,7.957,357.36,7.957z"/>
	<path fill="#F26522" d="M366.222,19.04v-2.234c1.134,0.838,2.382,1.257,3.745,1.257c1.828,0,2.742-0.609,2.742-1.828
		c0-0.347-0.078-0.641-0.234-0.882c-0.157-0.241-0.369-0.455-0.635-0.641c-0.268-0.186-0.58-0.354-0.939-0.501
		c-0.36-0.148-0.748-0.302-1.162-0.463c-0.576-0.229-1.081-0.459-1.518-0.692c-0.436-0.233-0.799-0.495-1.092-0.787
		c-0.291-0.292-0.512-0.624-0.66-0.997c-0.147-0.372-0.222-0.808-0.222-1.308c0-0.609,0.14-1.149,0.419-1.619
		s0.651-0.863,1.117-1.181c0.465-0.317,0.996-0.556,1.594-0.717c0.596-0.161,1.212-0.241,1.847-0.241
		c1.126,0,2.133,0.195,3.021,0.584v2.107c-0.956-0.626-2.057-0.939-3.301-0.939c-0.39,0-0.741,0.044-1.054,0.133
		c-0.313,0.089-0.582,0.214-0.807,0.375c-0.224,0.161-0.397,0.354-0.52,0.578c-0.123,0.224-0.185,0.472-0.185,0.743
		c0,0.339,0.062,0.622,0.185,0.851c0.122,0.229,0.302,0.432,0.539,0.609c0.236,0.178,0.524,0.339,0.863,0.482
		c0.338,0.144,0.724,0.301,1.155,0.47c0.575,0.22,1.092,0.446,1.549,0.679s0.847,0.495,1.168,0.787s0.569,0.628,0.743,1.009
		c0.173,0.381,0.26,0.834,0.26,1.358c0,0.644-0.142,1.202-0.426,1.676c-0.283,0.474-0.662,0.868-1.136,1.181
		c-0.474,0.313-1.021,0.546-1.638,0.698c-0.618,0.152-1.266,0.229-1.942,0.229C368.363,19.814,367.203,19.556,366.222,19.04z"/>
	<path fill="#F26522" d="M382.945,7.525h-1.121V3.533c0-1.485-0.542-2.229-1.627-2.229c-0.561,0-1.024,0.211-1.391,0.632
		c-0.367,0.421-0.551,0.954-0.551,1.596v3.992h-1.121v-7h1.121v1.162h0.027c0.528-0.884,1.294-1.326,2.297-1.326
		c0.766,0,1.352,0.247,1.757,0.742s0.608,1.209,0.608,2.143V7.525z"/>
	<path fill="#F26522" d="M392.622,23.664h-1.854c-2.624-2.996-3.936-6.69-3.936-11.083c0-4.409,1.312-8.163,3.936-11.261h1.879
		c-2.657,3.216-3.986,6.961-3.986,11.235C388.661,16.796,389.981,20.499,392.622,23.664z"/>
	<path fill="#F26522" d="M404.314,19.51h-2.082v-2.031h-0.051c-0.906,1.558-2.238,2.336-3.999,2.336
		c-1.295,0-2.309-0.343-3.04-1.028c-0.732-0.686-1.099-1.595-1.099-2.729c0-2.429,1.431-3.842,4.291-4.24l3.897-0.546
		c0-2.209-0.893-3.313-2.679-3.313c-1.565,0-2.979,0.533-4.24,1.6V7.424c1.278-0.813,2.751-1.219,4.418-1.219
		c3.056,0,4.583,1.617,4.583,4.85V19.51z M402.232,12.934l-3.136,0.432c-0.965,0.136-1.692,0.375-2.184,0.717
		s-0.736,0.95-0.736,1.822c0,0.635,0.227,1.153,0.679,1.555c0.453,0.402,1.057,0.603,1.81,0.603c1.032,0,1.886-0.362,2.558-1.085
		c0.674-0.724,1.01-1.64,1.01-2.749V12.934z"/>
	<path fill="#F26522" d="M419.028,19.51h-2.082v-7.414c0-2.759-1.007-4.139-3.021-4.139c-1.041,0-1.902,0.392-2.583,1.174
		c-0.682,0.783-1.022,1.771-1.022,2.964v7.414h-2.082v-13h2.082v2.158h0.051c0.981-1.642,2.403-2.463,4.266-2.463
		c1.422,0,2.509,0.459,3.263,1.377c0.753,0.918,1.13,2.245,1.13,3.98V19.51z"/>
	<path fill="#F26522" d="M434.047,18.469c0,4.773-2.285,7.16-6.855,7.16c-1.608,0-3.014-0.305-4.215-0.914v-2.082
		c1.464,0.813,2.86,1.219,4.189,1.219c3.199,0,4.799-1.701,4.799-5.104v-1.422h-0.051c-0.99,1.659-2.48,2.488-4.469,2.488
		c-1.617,0-2.918-0.578-3.904-1.733c-0.985-1.155-1.479-2.706-1.479-4.653c0-2.209,0.531-3.965,1.594-5.269
		c1.062-1.303,2.516-1.955,4.36-1.955c1.752,0,3.051,0.703,3.897,2.107h0.051V6.51h2.082V18.469z M431.965,13.632v-1.917
		c0-1.032-0.35-1.917-1.047-2.653c-0.699-0.736-1.568-1.104-2.609-1.104c-1.287,0-2.294,0.468-3.021,1.403
		c-0.729,0.935-1.092,2.245-1.092,3.929c0,1.447,0.35,2.604,1.047,3.472c0.699,0.868,1.623,1.301,2.774,1.301
		c1.168,0,2.118-0.415,2.851-1.244C431.599,15.989,431.965,14.927,431.965,13.632z"/>
	<path fill="#F26522" d="M440.344,19.525h-2.082V0.279h2.082V19.525z"/>
	<path fill="#F26522" d="M455.007,13.53h-9.179c0.033,1.447,0.423,2.564,1.168,3.352c0.744,0.787,1.769,1.181,3.072,1.181
		c1.464,0,2.81-0.482,4.037-1.447v1.955c-1.143,0.83-2.653,1.244-4.532,1.244c-1.837,0-3.28-0.59-4.329-1.771
		c-1.05-1.181-1.574-2.841-1.574-4.983c0-2.022,0.573-3.671,1.721-4.945c1.146-1.274,2.57-1.911,4.271-1.911s3.018,0.55,3.948,1.65
		c0.931,1.101,1.396,2.628,1.396,4.583V13.53z M452.874,11.766c-0.009-1.202-0.298-2.137-0.87-2.806
		c-0.57-0.668-1.364-1.003-2.38-1.003c-0.981,0-1.815,0.352-2.501,1.054c-0.686,0.703-1.109,1.621-1.27,2.755H452.874z"/>
	<path fill="#F26522" d="M458.206,23.664h-1.854c2.641-3.166,3.961-6.868,3.961-11.108c0-4.274-1.329-8.019-3.986-11.235h1.879
		c2.641,3.098,3.961,6.852,3.961,11.261C462.167,16.974,460.847,20.668,458.206,23.664z"/>
</g>
<g>
	<path fill="#414242" d="M36.709,100.426c-0.201,0-0.372-0.068-0.513-0.205c-0.142-0.137-0.212-0.31-0.212-0.52
		c0-0.209,0.07-0.384,0.212-0.523c0.141-0.139,0.312-0.208,0.513-0.208c0.205,0,0.379,0.069,0.523,0.208s0.215,0.313,0.215,0.523
		c0,0.201-0.072,0.372-0.215,0.513C37.088,100.355,36.914,100.426,36.709,100.426z M37.256,109.203h-1.121v-7h1.121V109.203z"/>
	<path fill="#414242" d="M45.336,109.203h-1.121v-3.992c0-1.485-0.542-2.229-1.627-2.229c-0.561,0-1.024,0.211-1.391,0.632
		s-0.55,0.954-0.55,1.596v3.992h-1.121v-7h1.121v1.162h0.027c0.528-0.884,1.294-1.326,2.297-1.326c0.766,0,1.351,0.247,1.757,0.742
		c0.405,0.495,0.608,1.209,0.608,2.143V109.203z"/>
	<path fill="#414242" d="M50.695,109.135c-0.265,0.146-0.613,0.219-1.046,0.219c-1.226,0-1.839-0.684-1.839-2.051v-4.143h-1.203
		v-0.957h1.203v-1.709l1.121-0.362v2.071h1.764v0.957h-1.764v3.944c0,0.47,0.08,0.805,0.239,1.005
		c0.159,0.201,0.424,0.301,0.793,0.301c0.282,0,0.526-0.077,0.731-0.232V109.135z"/>
	<path fill="#414242" d="M57.818,105.983h-4.942c0.018,0.779,0.228,1.381,0.629,1.805c0.401,0.424,0.952,0.636,1.654,0.636
		c0.788,0,1.513-0.26,2.174-0.779v1.053c-0.615,0.447-1.429,0.67-2.44,0.67c-0.989,0-1.766-0.318-2.331-0.954
		c-0.565-0.636-0.848-1.53-0.848-2.683c0-1.089,0.309-1.977,0.926-2.663s1.384-1.029,2.3-1.029s1.625,0.296,2.126,0.889
		c0.501,0.593,0.752,1.415,0.752,2.468V105.983z M56.67,105.033c-0.005-0.647-0.161-1.15-0.468-1.511
		c-0.308-0.36-0.735-0.54-1.282-0.54c-0.529,0-0.978,0.189-1.347,0.567c-0.369,0.378-0.597,0.873-0.684,1.483H56.67z"/>
	<path fill="#414242" d="M65.324,109.203h-1.121v-3.992c0-1.485-0.542-2.229-1.627-2.229c-0.561,0-1.024,0.211-1.391,0.632
		s-0.55,0.954-0.55,1.596v3.992h-1.121v-7h1.121v1.162h0.027c0.528-0.884,1.294-1.326,2.297-1.326c0.766,0,1.351,0.247,1.757,0.742
		c0.405,0.495,0.608,1.209,0.608,2.143V109.203z"/>
	<path fill="#414242" d="M67.013,108.95v-1.203c0.61,0.451,1.283,0.677,2.017,0.677c0.984,0,1.477-0.328,1.477-0.984
		c0-0.187-0.042-0.345-0.126-0.475s-0.198-0.245-0.342-0.345c-0.144-0.1-0.312-0.19-0.506-0.27s-0.402-0.163-0.625-0.25
		c-0.31-0.123-0.582-0.247-0.817-0.373s-0.431-0.267-0.588-0.424s-0.276-0.336-0.355-0.537c-0.08-0.2-0.12-0.435-0.12-0.704
		c0-0.328,0.075-0.619,0.226-0.872s0.351-0.465,0.602-0.636c0.25-0.171,0.537-0.299,0.858-0.386c0.321-0.086,0.653-0.13,0.995-0.13
		c0.606,0,1.148,0.105,1.627,0.314v1.135c-0.515-0.337-1.107-0.506-1.777-0.506c-0.21,0-0.399,0.024-0.567,0.072
		c-0.169,0.048-0.313,0.115-0.434,0.202c-0.121,0.087-0.214,0.19-0.28,0.311s-0.099,0.254-0.099,0.4
		c0,0.183,0.033,0.335,0.099,0.458s0.163,0.232,0.291,0.328c0.127,0.096,0.282,0.183,0.465,0.26c0.182,0.078,0.39,0.162,0.622,0.253
		c0.31,0.119,0.588,0.24,0.834,0.366s0.456,0.267,0.629,0.424c0.173,0.157,0.307,0.338,0.4,0.543s0.14,0.449,0.14,0.731
		c0,0.347-0.076,0.647-0.229,0.902c-0.153,0.255-0.357,0.467-0.612,0.636c-0.255,0.169-0.549,0.294-0.882,0.376
		c-0.333,0.082-0.682,0.123-1.046,0.123C68.166,109.367,67.541,109.228,67.013,108.95z"/>
	<path fill="#414242" d="M73.951,100.426c-0.201,0-0.372-0.068-0.513-0.205c-0.142-0.137-0.212-0.31-0.212-0.52
		c0-0.209,0.07-0.384,0.212-0.523c0.141-0.139,0.312-0.208,0.513-0.208c0.205,0,0.379,0.069,0.523,0.208s0.215,0.313,0.215,0.523
		c0,0.201-0.072,0.372-0.215,0.513C74.331,100.355,74.156,100.426,73.951,100.426z M74.498,109.203h-1.121v-7h1.121V109.203z"/>
	<path fill="#414242" d="M80.015,109.135c-0.265,0.146-0.613,0.219-1.046,0.219c-1.226,0-1.839-0.684-1.839-2.051v-4.143h-1.203
		v-0.957h1.203v-1.709l1.121-0.362v2.071h1.764v0.957h-1.764v3.944c0,0.47,0.08,0.805,0.239,1.005
		c0.159,0.201,0.424,0.301,0.793,0.301c0.282,0,0.526-0.077,0.731-0.232V109.135z"/>
	<path fill="#414242" d="M87.083,102.203l-3.22,8.121c-0.574,1.449-1.381,2.174-2.42,2.174c-0.292,0-0.536-0.03-0.731-0.089v-1.005
		c0.241,0.082,0.462,0.123,0.663,0.123c0.565,0,0.989-0.337,1.271-1.012l0.561-1.326l-2.734-6.986h1.244l1.894,5.387
		c0.022,0.068,0.07,0.246,0.144,0.533h0.041c0.022-0.109,0.068-0.282,0.137-0.52l1.989-5.4H87.083z"/>
</g>
<g>
	<path fill="#414242" d="M36.709,252.426c-0.201,0-0.372-0.068-0.513-0.205c-0.142-0.137-0.212-0.31-0.212-0.52
		c0-0.209,0.07-0.384,0.212-0.523c0.141-0.139,0.312-0.208,0.513-0.208c0.205,0,0.379,0.069,0.523,0.208s0.215,0.313,0.215,0.523
		c0,0.201-0.072,0.372-0.215,0.513C37.088,252.355,36.914,252.426,36.709,252.426z M37.256,261.203h-1.121v-7h1.121V261.203z"/>
	<path fill="#414242" d="M45.336,261.203h-1.121v-3.992c0-1.485-0.542-2.229-1.627-2.229c-0.561,0-1.024,0.211-1.391,0.632
		s-0.55,0.954-0.55,1.596v3.992h-1.121v-7h1.121v1.162h0.027c0.528-0.884,1.294-1.326,2.297-1.326c0.766,0,1.351,0.247,1.757,0.742
		c0.405,0.495,0.608,1.209,0.608,2.143V261.203z"/>
	<path fill="#414242" d="M50.695,261.135c-0.265,0.146-0.613,0.219-1.046,0.219c-1.226,0-1.839-0.684-1.839-2.051v-4.143h-1.203
		v-0.957h1.203v-1.709l1.121-0.362v2.071h1.764v0.957h-1.764v3.944c0,0.47,0.08,0.805,0.239,1.005
		c0.159,0.201,0.424,0.301,0.793,0.301c0.282,0,0.526-0.077,0.731-0.232V261.135z"/>
	<path fill="#414242" d="M57.818,257.983h-4.942c0.018,0.779,0.228,1.381,0.629,1.805c0.401,0.424,0.952,0.636,1.654,0.636
		c0.788,0,1.513-0.26,2.174-0.779v1.053c-0.615,0.447-1.429,0.67-2.44,0.67c-0.989,0-1.766-0.318-2.331-0.954
		c-0.565-0.636-0.848-1.53-0.848-2.683c0-1.089,0.309-1.977,0.926-2.663s1.384-1.029,2.3-1.029s1.625,0.296,2.126,0.889
		c0.501,0.593,0.752,1.415,0.752,2.468V257.983z M56.67,257.033c-0.005-0.647-0.161-1.15-0.468-1.511
		c-0.308-0.36-0.735-0.54-1.282-0.54c-0.529,0-0.978,0.189-1.347,0.567c-0.369,0.378-0.597,0.873-0.684,1.483H56.67z"/>
	<path fill="#414242" d="M65.324,261.203h-1.121v-3.992c0-1.485-0.542-2.229-1.627-2.229c-0.561,0-1.024,0.211-1.391,0.632
		s-0.55,0.954-0.55,1.596v3.992h-1.121v-7h1.121v1.162h0.027c0.528-0.884,1.294-1.326,2.297-1.326c0.766,0,1.351,0.247,1.757,0.742
		c0.405,0.495,0.608,1.209,0.608,2.143V261.203z"/>
	<path fill="#414242" d="M67.013,260.95v-1.203c0.61,0.451,1.283,0.677,2.017,0.677c0.984,0,1.477-0.328,1.477-0.984
		c0-0.187-0.042-0.345-0.126-0.475s-0.198-0.245-0.342-0.345c-0.144-0.1-0.312-0.19-0.506-0.27s-0.402-0.163-0.625-0.25
		c-0.31-0.123-0.582-0.247-0.817-0.373s-0.431-0.267-0.588-0.424s-0.276-0.336-0.355-0.537c-0.08-0.2-0.12-0.435-0.12-0.704
		c0-0.328,0.075-0.619,0.226-0.872s0.351-0.465,0.602-0.636c0.25-0.171,0.537-0.299,0.858-0.386c0.321-0.086,0.653-0.13,0.995-0.13
		c0.606,0,1.148,0.105,1.627,0.314v1.135c-0.515-0.337-1.107-0.506-1.777-0.506c-0.21,0-0.399,0.024-0.567,0.072
		c-0.169,0.048-0.313,0.115-0.434,0.202c-0.121,0.087-0.214,0.19-0.28,0.311s-0.099,0.254-0.099,0.4
		c0,0.183,0.033,0.335,0.099,0.458s0.163,0.232,0.291,0.328c0.127,0.096,0.282,0.183,0.465,0.26c0.182,0.078,0.39,0.162,0.622,0.253
		c0.31,0.119,0.588,0.24,0.834,0.366s0.456,0.267,0.629,0.424c0.173,0.157,0.307,0.338,0.4,0.543s0.14,0.449,0.14,0.731
		c0,0.347-0.076,0.647-0.229,0.902c-0.153,0.255-0.357,0.467-0.612,0.636c-0.255,0.169-0.549,0.294-0.882,0.376
		c-0.333,0.082-0.682,0.123-1.046,0.123C68.166,261.367,67.541,261.228,67.013,260.95z"/>
	<path fill="#414242" d="M73.951,252.426c-0.201,0-0.372-0.068-0.513-0.205c-0.142-0.137-0.212-0.31-0.212-0.52
		c0-0.209,0.07-0.384,0.212-0.523c0.141-0.139,0.312-0.208,0.513-0.208c0.205,0,0.379,0.069,0.523,0.208s0.215,0.313,0.215,0.523
		c0,0.201-0.072,0.372-0.215,0.513C74.331,252.355,74.156,252.426,73.951,252.426z M74.498,261.203h-1.121v-7h1.121V261.203z"/>
	<path fill="#414242" d="M80.015,261.135c-0.265,0.146-0.613,0.219-1.046,0.219c-1.226,0-1.839-0.684-1.839-2.051v-4.143h-1.203
		v-0.957h1.203v-1.709l1.121-0.362v2.071h1.764v0.957h-1.764v3.944c0,0.47,0.08,0.805,0.239,1.005
		c0.159,0.201,0.424,0.301,0.793,0.301c0.282,0,0.526-0.077,0.731-0.232V261.135z"/>
	<path fill="#414242" d="M87.083,254.203l-3.22,8.121c-0.574,1.449-1.381,2.174-2.42,2.174c-0.292,0-0.536-0.03-0.731-0.089v-1.005
		c0.241,0.082,0.462,0.123,0.663,0.123c0.565,0,0.989-0.337,1.271-1.012l0.561-1.326l-2.734-6.986h1.244l1.894,5.387
		c0.022,0.068,0.07,0.246,0.144,0.533h0.041c0.022-0.109,0.068-0.282,0.137-0.52l1.989-5.4H87.083z"/>
</g>
<g>
	<path fill="#414242" d="M36.709,401.426c-0.201,0-0.372-0.068-0.513-0.205c-0.142-0.137-0.212-0.31-0.212-0.52
		c0-0.209,0.07-0.384,0.212-0.523c0.141-0.139,0.312-0.208,0.513-0.208c0.205,0,0.379,0.069,0.523,0.208
		c0.144,0.14,0.215,0.314,0.215,0.523c0,0.201-0.072,0.371-0.215,0.513S36.914,401.426,36.709,401.426z M37.256,410.203h-1.121v-7
		h1.121V410.203z"/>
	<path fill="#414242" d="M45.336,410.203h-1.121v-3.992c0-1.485-0.542-2.229-1.627-2.229c-0.561,0-1.024,0.211-1.391,0.633
		c-0.367,0.421-0.55,0.953-0.55,1.596v3.992h-1.121v-7h1.121v1.162h0.027c0.528-0.884,1.294-1.326,2.297-1.326
		c0.766,0,1.351,0.247,1.757,0.742c0.405,0.494,0.608,1.209,0.608,2.143V410.203z"/>
	<path fill="#414242" d="M50.695,410.135c-0.265,0.146-0.613,0.219-1.046,0.219c-1.226,0-1.839-0.684-1.839-2.051v-4.143h-1.203
		v-0.957h1.203v-1.709l1.121-0.362v2.071h1.764v0.957h-1.764v3.944c0,0.47,0.08,0.805,0.239,1.005
		c0.159,0.201,0.424,0.301,0.793,0.301c0.282,0,0.526-0.077,0.731-0.232V410.135z"/>
	<path fill="#414242" d="M57.818,406.983h-4.942c0.018,0.779,0.228,1.381,0.629,1.805c0.401,0.424,0.952,0.636,1.654,0.636
		c0.788,0,1.513-0.26,2.174-0.779v1.053c-0.615,0.447-1.429,0.67-2.44,0.67c-0.989,0-1.766-0.318-2.331-0.953
		c-0.565-0.637-0.848-1.53-0.848-2.684c0-1.089,0.309-1.977,0.926-2.662c0.618-0.687,1.384-1.029,2.3-1.029s1.625,0.297,2.126,0.889
		c0.501,0.593,0.752,1.415,0.752,2.468V406.983z M56.67,406.033c-0.005-0.646-0.161-1.15-0.468-1.511s-0.735-0.54-1.282-0.54
		c-0.529,0-0.978,0.189-1.347,0.567s-0.597,0.873-0.684,1.483H56.67z"/>
	<path fill="#414242" d="M65.324,410.203h-1.121v-3.992c0-1.485-0.542-2.229-1.627-2.229c-0.561,0-1.024,0.211-1.391,0.633
		c-0.367,0.421-0.55,0.953-0.55,1.596v3.992h-1.121v-7h1.121v1.162h0.027c0.528-0.884,1.294-1.326,2.297-1.326
		c0.766,0,1.351,0.247,1.757,0.742c0.405,0.494,0.608,1.209,0.608,2.143V410.203z"/>
	<path fill="#414242" d="M67.013,409.95v-1.203c0.61,0.451,1.283,0.677,2.017,0.677c0.984,0,1.477-0.328,1.477-0.984
		c0-0.187-0.042-0.346-0.126-0.475c-0.084-0.131-0.198-0.245-0.342-0.346c-0.144-0.1-0.312-0.19-0.506-0.27
		c-0.194-0.08-0.402-0.163-0.625-0.25c-0.31-0.123-0.582-0.247-0.817-0.373c-0.235-0.125-0.431-0.266-0.588-0.424
		c-0.157-0.156-0.276-0.336-0.355-0.536s-0.12-0.435-0.12-0.704c0-0.328,0.075-0.619,0.226-0.871
		c0.15-0.254,0.351-0.465,0.602-0.637c0.25-0.17,0.537-0.299,0.858-0.386s0.653-0.13,0.995-0.13c0.606,0,1.148,0.105,1.627,0.314
		v1.135c-0.515-0.337-1.107-0.506-1.777-0.506c-0.21,0-0.399,0.023-0.567,0.072c-0.169,0.047-0.313,0.115-0.434,0.201
		c-0.121,0.087-0.214,0.19-0.28,0.311c-0.066,0.121-0.099,0.255-0.099,0.4c0,0.183,0.033,0.335,0.099,0.458s0.163,0.232,0.291,0.328
		c0.127,0.096,0.282,0.183,0.465,0.26c0.182,0.077,0.39,0.162,0.622,0.253c0.31,0.119,0.588,0.24,0.834,0.365
		c0.246,0.126,0.456,0.268,0.629,0.424c0.173,0.158,0.307,0.339,0.4,0.544s0.14,0.449,0.14,0.731c0,0.347-0.076,0.647-0.229,0.902
		c-0.153,0.256-0.357,0.467-0.612,0.636c-0.255,0.169-0.549,0.294-0.882,0.376c-0.333,0.082-0.682,0.123-1.046,0.123
		C68.166,410.367,67.541,410.229,67.013,409.95z"/>
	<path fill="#414242" d="M73.951,401.426c-0.201,0-0.372-0.068-0.513-0.205c-0.142-0.137-0.212-0.31-0.212-0.52
		c0-0.209,0.07-0.384,0.212-0.523c0.141-0.139,0.312-0.208,0.513-0.208c0.205,0,0.379,0.069,0.523,0.208
		c0.144,0.14,0.215,0.314,0.215,0.523c0,0.201-0.072,0.371-0.215,0.513S74.156,401.426,73.951,401.426z M74.498,410.203h-1.121v-7
		h1.121V410.203z"/>
	<path fill="#414242" d="M80.015,410.135c-0.265,0.146-0.613,0.219-1.046,0.219c-1.226,0-1.839-0.684-1.839-2.051v-4.143h-1.203
		v-0.957h1.203v-1.709l1.121-0.362v2.071h1.764v0.957h-1.764v3.944c0,0.47,0.08,0.805,0.239,1.005
		c0.159,0.201,0.424,0.301,0.793,0.301c0.282,0,0.526-0.077,0.731-0.232V410.135z"/>
	<path fill="#414242" d="M87.083,403.203l-3.22,8.121c-0.574,1.449-1.381,2.174-2.42,2.174c-0.292,0-0.536-0.029-0.731-0.089v-1.005
		c0.241,0.082,0.462,0.123,0.663,0.123c0.565,0,0.989-0.338,1.271-1.012l0.561-1.326l-2.734-6.986h1.244l1.894,5.387
		c0.022,0.068,0.07,0.246,0.144,0.533h0.041c0.022-0.109,0.068-0.282,0.137-0.52l1.989-5.4H87.083z"/>
</g>
<g>
	<path fill="#414242" d="M314.709,100.426c-0.201,0-0.371-0.068-0.513-0.205s-0.212-0.31-0.212-0.52c0-0.209,0.07-0.384,0.212-0.523
		s0.312-0.208,0.513-0.208c0.205,0,0.379,0.069,0.523,0.208c0.143,0.139,0.215,0.313,0.215,0.523c0,0.201-0.072,0.372-0.215,0.513
		C315.088,100.355,314.914,100.426,314.709,100.426z M315.256,109.203h-1.121v-7h1.121V109.203z"/>
	<path fill="#414242" d="M323.336,109.203h-1.121v-3.992c0-1.485-0.543-2.229-1.627-2.229c-0.561,0-1.024,0.211-1.391,0.632
		c-0.367,0.421-0.551,0.954-0.551,1.596v3.992h-1.121v-7h1.121v1.162h0.027c0.528-0.884,1.294-1.326,2.297-1.326
		c0.766,0,1.352,0.247,1.757,0.742s0.608,1.209,0.608,2.143V109.203z"/>
	<path fill="#414242" d="M328.695,109.135c-0.265,0.146-0.613,0.219-1.046,0.219c-1.226,0-1.839-0.684-1.839-2.051v-4.143h-1.203
		v-0.957h1.203v-1.709l1.121-0.362v2.071h1.764v0.957h-1.764v3.944c0,0.47,0.08,0.805,0.239,1.005
		c0.159,0.201,0.424,0.301,0.793,0.301c0.282,0,0.526-0.077,0.731-0.232V109.135z"/>
	<path fill="#414242" d="M335.818,105.983h-4.942c0.019,0.779,0.228,1.381,0.629,1.805s0.952,0.636,1.654,0.636
		c0.788,0,1.513-0.26,2.174-0.779v1.053c-0.615,0.447-1.429,0.67-2.44,0.67c-0.989,0-1.766-0.318-2.331-0.954
		s-0.848-1.53-0.848-2.683c0-1.089,0.309-1.977,0.927-2.663c0.617-0.686,1.384-1.029,2.3-1.029s1.624,0.296,2.126,0.889
		c0.501,0.593,0.752,1.415,0.752,2.468V105.983z M334.67,105.033c-0.005-0.647-0.16-1.15-0.469-1.511
		c-0.307-0.36-0.734-0.54-1.281-0.54c-0.529,0-0.978,0.189-1.347,0.567c-0.369,0.378-0.597,0.873-0.684,1.483H334.67z"/>
	<path fill="#414242" d="M343.324,109.203h-1.121v-3.992c0-1.485-0.543-2.229-1.627-2.229c-0.561,0-1.024,0.211-1.391,0.632
		c-0.367,0.421-0.551,0.954-0.551,1.596v3.992h-1.121v-7h1.121v1.162h0.027c0.528-0.884,1.294-1.326,2.297-1.326
		c0.766,0,1.352,0.247,1.757,0.742s0.608,1.209,0.608,2.143V109.203z"/>
	<path fill="#414242" d="M345.013,108.95v-1.203c0.61,0.451,1.282,0.677,2.017,0.677c0.984,0,1.477-0.328,1.477-0.984
		c0-0.187-0.042-0.345-0.127-0.475c-0.084-0.13-0.197-0.245-0.342-0.345c-0.143-0.1-0.312-0.19-0.506-0.27
		c-0.193-0.08-0.402-0.163-0.625-0.25c-0.311-0.123-0.582-0.247-0.816-0.373c-0.235-0.125-0.432-0.267-0.588-0.424
		c-0.158-0.157-0.276-0.336-0.355-0.537c-0.08-0.2-0.12-0.435-0.12-0.704c0-0.328,0.075-0.619,0.226-0.872s0.351-0.465,0.602-0.636
		c0.25-0.171,0.537-0.299,0.857-0.386c0.322-0.086,0.653-0.13,0.995-0.13c0.606,0,1.148,0.105,1.627,0.314v1.135
		c-0.515-0.337-1.107-0.506-1.777-0.506c-0.21,0-0.399,0.024-0.567,0.072c-0.169,0.048-0.313,0.115-0.434,0.202
		c-0.121,0.087-0.215,0.19-0.281,0.311c-0.065,0.121-0.099,0.254-0.099,0.4c0,0.183,0.033,0.335,0.099,0.458
		c0.066,0.123,0.163,0.232,0.291,0.328c0.127,0.096,0.282,0.183,0.465,0.26c0.182,0.078,0.39,0.162,0.622,0.253
		c0.31,0.119,0.588,0.24,0.834,0.366s0.456,0.267,0.629,0.424s0.307,0.338,0.399,0.543c0.094,0.205,0.141,0.449,0.141,0.731
		c0,0.347-0.076,0.647-0.229,0.902c-0.153,0.255-0.357,0.467-0.612,0.636c-0.255,0.169-0.55,0.294-0.882,0.376
		c-0.333,0.082-0.682,0.123-1.046,0.123C346.166,109.367,345.541,109.228,345.013,108.95z"/>
	<path fill="#414242" d="M351.951,100.426c-0.201,0-0.371-0.068-0.513-0.205s-0.212-0.31-0.212-0.52c0-0.209,0.07-0.384,0.212-0.523
		s0.312-0.208,0.513-0.208c0.205,0,0.379,0.069,0.523,0.208c0.143,0.139,0.215,0.313,0.215,0.523c0,0.201-0.072,0.372-0.215,0.513
		C352.33,100.355,352.156,100.426,351.951,100.426z M352.498,109.203h-1.121v-7h1.121V109.203z"/>
	<path fill="#414242" d="M358.015,109.135c-0.265,0.146-0.613,0.219-1.046,0.219c-1.227,0-1.839-0.684-1.839-2.051v-4.143h-1.203
		v-0.957h1.203v-1.709l1.121-0.362v2.071h1.764v0.957h-1.764v3.944c0,0.47,0.079,0.805,0.239,1.005
		c0.159,0.201,0.424,0.301,0.793,0.301c0.282,0,0.526-0.077,0.731-0.232V109.135z"/>
	<path fill="#414242" d="M365.083,102.203l-3.22,8.121c-0.574,1.449-1.381,2.174-2.42,2.174c-0.292,0-0.535-0.03-0.731-0.089v-1.005
		c0.241,0.082,0.462,0.123,0.663,0.123c0.564,0,0.988-0.337,1.271-1.012l0.561-1.326l-2.734-6.986h1.244l1.894,5.387
		c0.022,0.068,0.07,0.246,0.144,0.533h0.041c0.022-0.109,0.068-0.282,0.137-0.52l1.989-5.4H365.083z"/>
</g>
<g>
	<path fill="#414242" d="M314.709,252.426c-0.201,0-0.371-0.068-0.513-0.205s-0.212-0.31-0.212-0.52c0-0.209,0.07-0.384,0.212-0.523
		s0.312-0.208,0.513-0.208c0.205,0,0.379,0.069,0.523,0.208c0.143,0.139,0.215,0.313,0.215,0.523c0,0.201-0.072,0.372-0.215,0.513
		C315.088,252.355,314.914,252.426,314.709,252.426z M315.256,261.203h-1.121v-7h1.121V261.203z"/>
	<path fill="#414242" d="M323.336,261.203h-1.121v-3.992c0-1.485-0.543-2.229-1.627-2.229c-0.561,0-1.024,0.211-1.391,0.632
		c-0.367,0.421-0.551,0.954-0.551,1.596v3.992h-1.121v-7h1.121v1.162h0.027c0.528-0.884,1.294-1.326,2.297-1.326
		c0.766,0,1.352,0.247,1.757,0.742s0.608,1.209,0.608,2.143V261.203z"/>
	<path fill="#414242" d="M328.695,261.135c-0.265,0.146-0.613,0.219-1.046,0.219c-1.226,0-1.839-0.684-1.839-2.051v-4.143h-1.203
		v-0.957h1.203v-1.709l1.121-0.362v2.071h1.764v0.957h-1.764v3.944c0,0.47,0.08,0.805,0.239,1.005
		c0.159,0.201,0.424,0.301,0.793,0.301c0.282,0,0.526-0.077,0.731-0.232V261.135z"/>
	<path fill="#414242" d="M335.818,257.983h-4.942c0.019,0.779,0.228,1.381,0.629,1.805s0.952,0.636,1.654,0.636
		c0.788,0,1.513-0.26,2.174-0.779v1.053c-0.615,0.447-1.429,0.67-2.44,0.67c-0.989,0-1.766-0.318-2.331-0.954
		s-0.848-1.53-0.848-2.683c0-1.089,0.309-1.977,0.927-2.663c0.617-0.686,1.384-1.029,2.3-1.029s1.624,0.296,2.126,0.889
		c0.501,0.593,0.752,1.415,0.752,2.468V257.983z M334.67,257.033c-0.005-0.647-0.16-1.15-0.469-1.511
		c-0.307-0.36-0.734-0.54-1.281-0.54c-0.529,0-0.978,0.189-1.347,0.567c-0.369,0.378-0.597,0.873-0.684,1.483H334.67z"/>
	<path fill="#414242" d="M343.324,261.203h-1.121v-3.992c0-1.485-0.543-2.229-1.627-2.229c-0.561,0-1.024,0.211-1.391,0.632
		c-0.367,0.421-0.551,0.954-0.551,1.596v3.992h-1.121v-7h1.121v1.162h0.027c0.528-0.884,1.294-1.326,2.297-1.326
		c0.766,0,1.352,0.247,1.757,0.742s0.608,1.209,0.608,2.143V261.203z"/>
	<path fill="#414242" d="M345.013,260.95v-1.203c0.61,0.451,1.282,0.677,2.017,0.677c0.984,0,1.477-0.328,1.477-0.984
		c0-0.187-0.042-0.345-0.127-0.475c-0.084-0.13-0.197-0.245-0.342-0.345c-0.143-0.1-0.312-0.19-0.506-0.27
		c-0.193-0.08-0.402-0.163-0.625-0.25c-0.311-0.123-0.582-0.247-0.816-0.373c-0.235-0.125-0.432-0.267-0.588-0.424
		c-0.158-0.157-0.276-0.336-0.355-0.537c-0.08-0.2-0.12-0.435-0.12-0.704c0-0.328,0.075-0.619,0.226-0.872s0.351-0.465,0.602-0.636
		c0.25-0.171,0.537-0.299,0.857-0.386c0.322-0.086,0.653-0.13,0.995-0.13c0.606,0,1.148,0.105,1.627,0.314v1.135
		c-0.515-0.337-1.107-0.506-1.777-0.506c-0.21,0-0.399,0.024-0.567,0.072c-0.169,0.048-0.313,0.115-0.434,0.202
		c-0.121,0.087-0.215,0.19-0.281,0.311c-0.065,0.121-0.099,0.254-0.099,0.4c0,0.183,0.033,0.335,0.099,0.458
		c0.066,0.123,0.163,0.232,0.291,0.328c0.127,0.096,0.282,0.183,0.465,0.26c0.182,0.078,0.39,0.162,0.622,0.253
		c0.31,0.119,0.588,0.24,0.834,0.366s0.456,0.267,0.629,0.424s0.307,0.338,0.399,0.543c0.094,0.205,0.141,0.449,0.141,0.731
		c0,0.347-0.076,0.647-0.229,0.902c-0.153,0.255-0.357,0.467-0.612,0.636c-0.255,0.169-0.55,0.294-0.882,0.376
		c-0.333,0.082-0.682,0.123-1.046,0.123C346.166,261.367,345.541,261.228,345.013,260.95z"/>
	<path fill="#414242" d="M351.951,252.426c-0.201,0-0.371-0.068-0.513-0.205s-0.212-0.31-0.212-0.52c0-0.209,0.07-0.384,0.212-0.523
		s0.312-0.208,0.513-0.208c0.205,0,0.379,0.069,0.523,0.208c0.143,0.139,0.215,0.313,0.215,0.523c0,0.201-0.072,0.372-0.215,0.513
		C352.33,252.355,352.156,252.426,351.951,252.426z M352.498,261.203h-1.121v-7h1.121V261.203z"/>
	<path fill="#414242" d="M358.015,261.135c-0.265,0.146-0.613,0.219-1.046,0.219c-1.227,0-1.839-0.684-1.839-2.051v-4.143h-1.203
		v-0.957h1.203v-1.709l1.121-0.362v2.071h1.764v0.957h-1.764v3.944c0,0.47,0.079,0.805,0.239,1.005
		c0.159,0.201,0.424,0.301,0.793,0.301c0.282,0,0.526-0.077,0.731-0.232V261.135z"/>
	<path fill="#414242" d="M365.083,254.203l-3.22,8.121c-0.574,1.449-1.381,2.174-2.42,2.174c-0.292,0-0.535-0.03-0.731-0.089v-1.005
		c0.241,0.082,0.462,0.123,0.663,0.123c0.564,0,0.988-0.337,1.271-1.012l0.561-1.326l-2.734-6.986h1.244l1.894,5.387
		c0.022,0.068,0.07,0.246,0.144,0.533h0.041c0.022-0.109,0.068-0.282,0.137-0.52l1.989-5.4H365.083z"/>
</g>
<g>
	<path fill="#414242" d="M314.709,401.426c-0.201,0-0.371-0.068-0.513-0.205s-0.212-0.31-0.212-0.52c0-0.209,0.07-0.384,0.212-0.523
		c0.142-0.139,0.312-0.208,0.513-0.208c0.205,0,0.379,0.069,0.523,0.208c0.143,0.14,0.215,0.314,0.215,0.523
		c0,0.201-0.072,0.371-0.215,0.513C315.088,401.355,314.914,401.426,314.709,401.426z M315.256,410.203h-1.121v-7h1.121V410.203z"/>
	<path fill="#414242" d="M323.336,410.203h-1.121v-3.992c0-1.485-0.543-2.229-1.627-2.229c-0.561,0-1.024,0.211-1.391,0.633
		c-0.367,0.421-0.551,0.953-0.551,1.596v3.992h-1.121v-7h1.121v1.162h0.027c0.528-0.884,1.294-1.326,2.297-1.326
		c0.766,0,1.352,0.247,1.757,0.742c0.405,0.494,0.608,1.209,0.608,2.143V410.203z"/>
	<path fill="#414242" d="M328.695,410.135c-0.265,0.146-0.613,0.219-1.046,0.219c-1.226,0-1.839-0.684-1.839-2.051v-4.143h-1.203
		v-0.957h1.203v-1.709l1.121-0.362v2.071h1.764v0.957h-1.764v3.944c0,0.47,0.08,0.805,0.239,1.005
		c0.159,0.201,0.424,0.301,0.793,0.301c0.282,0,0.526-0.077,0.731-0.232V410.135z"/>
	<path fill="#414242" d="M335.818,406.983h-4.942c0.019,0.779,0.228,1.381,0.629,1.805s0.952,0.636,1.654,0.636
		c0.788,0,1.513-0.26,2.174-0.779v1.053c-0.615,0.447-1.429,0.67-2.44,0.67c-0.989,0-1.766-0.318-2.331-0.953
		c-0.565-0.637-0.848-1.53-0.848-2.684c0-1.089,0.309-1.977,0.927-2.662c0.617-0.687,1.384-1.029,2.3-1.029s1.624,0.297,2.126,0.889
		c0.501,0.593,0.752,1.415,0.752,2.468V406.983z M334.67,406.033c-0.005-0.646-0.16-1.15-0.469-1.511
		c-0.307-0.36-0.734-0.54-1.281-0.54c-0.529,0-0.978,0.189-1.347,0.567s-0.597,0.873-0.684,1.483H334.67z"/>
	<path fill="#414242" d="M343.324,410.203h-1.121v-3.992c0-1.485-0.543-2.229-1.627-2.229c-0.561,0-1.024,0.211-1.391,0.633
		c-0.367,0.421-0.551,0.953-0.551,1.596v3.992h-1.121v-7h1.121v1.162h0.027c0.528-0.884,1.294-1.326,2.297-1.326
		c0.766,0,1.352,0.247,1.757,0.742c0.405,0.494,0.608,1.209,0.608,2.143V410.203z"/>
	<path fill="#414242" d="M345.013,409.95v-1.203c0.61,0.451,1.282,0.677,2.017,0.677c0.984,0,1.477-0.328,1.477-0.984
		c0-0.187-0.042-0.346-0.127-0.475c-0.084-0.131-0.197-0.245-0.342-0.346c-0.143-0.1-0.312-0.19-0.506-0.27
		c-0.193-0.08-0.402-0.163-0.625-0.25c-0.311-0.123-0.582-0.247-0.816-0.373c-0.235-0.125-0.432-0.266-0.588-0.424
		c-0.158-0.156-0.276-0.336-0.355-0.536c-0.08-0.2-0.12-0.435-0.12-0.704c0-0.328,0.075-0.619,0.226-0.871
		c0.15-0.254,0.351-0.465,0.602-0.637c0.25-0.17,0.537-0.299,0.857-0.386c0.322-0.087,0.653-0.13,0.995-0.13
		c0.606,0,1.148,0.105,1.627,0.314v1.135c-0.515-0.337-1.107-0.506-1.777-0.506c-0.21,0-0.399,0.023-0.567,0.072
		c-0.169,0.047-0.313,0.115-0.434,0.201c-0.121,0.087-0.215,0.19-0.281,0.311c-0.065,0.121-0.099,0.255-0.099,0.4
		c0,0.183,0.033,0.335,0.099,0.458c0.066,0.123,0.163,0.232,0.291,0.328c0.127,0.096,0.282,0.183,0.465,0.26
		c0.182,0.077,0.39,0.162,0.622,0.253c0.31,0.119,0.588,0.24,0.834,0.365c0.246,0.126,0.456,0.268,0.629,0.424
		c0.173,0.158,0.307,0.339,0.399,0.544c0.094,0.205,0.141,0.449,0.141,0.731c0,0.347-0.076,0.647-0.229,0.902
		c-0.153,0.256-0.357,0.467-0.612,0.636s-0.55,0.294-0.882,0.376c-0.333,0.082-0.682,0.123-1.046,0.123
		C346.166,410.367,345.541,410.229,345.013,409.95z"/>
	<path fill="#414242" d="M351.951,401.426c-0.201,0-0.371-0.068-0.513-0.205s-0.212-0.31-0.212-0.52c0-0.209,0.07-0.384,0.212-0.523
		c0.142-0.139,0.312-0.208,0.513-0.208c0.205,0,0.379,0.069,0.523,0.208c0.143,0.14,0.215,0.314,0.215,0.523
		c0,0.201-0.072,0.371-0.215,0.513C352.33,401.355,352.156,401.426,351.951,401.426z M352.498,410.203h-1.121v-7h1.121V410.203z"/>
	<path fill="#414242" d="M358.015,410.135c-0.265,0.146-0.613,0.219-1.046,0.219c-1.227,0-1.839-0.684-1.839-2.051v-4.143h-1.203
		v-0.957h1.203v-1.709l1.121-0.362v2.071h1.764v0.957h-1.764v3.944c0,0.47,0.079,0.805,0.239,1.005
		c0.159,0.201,0.424,0.301,0.793,0.301c0.282,0,0.526-0.077,0.731-0.232V410.135z"/>
	<path fill="#414242" d="M365.083,403.203l-3.22,8.121c-0.574,1.449-1.381,2.174-2.42,2.174c-0.292,0-0.535-0.029-0.731-0.089
		v-1.005c0.241,0.082,0.462,0.123,0.663,0.123c0.564,0,0.988-0.338,1.271-1.012l0.561-1.326l-2.734-6.986h1.244l1.894,5.387
		c0.022,0.068,0.07,0.246,0.144,0.533h0.041c0.022-0.109,0.068-0.282,0.137-0.52l1.989-5.4H365.083z"/>
</g>
<g>
	<path fill="#414242" d="M170.146,227.203h-1.121v-1.094h-0.027c-0.488,0.839-1.206,1.258-2.153,1.258
		c-0.697,0-1.243-0.185-1.637-0.554s-0.591-0.859-0.591-1.47c0-1.308,0.77-2.069,2.311-2.283l2.099-0.294
		c0-1.189-0.481-1.784-1.442-1.784c-0.843,0-1.604,0.287-2.283,0.861v-1.148c0.688-0.438,1.481-0.656,2.379-0.656
		c1.645,0,2.468,0.871,2.468,2.611V227.203z M169.024,223.662l-1.688,0.232c-0.52,0.073-0.912,0.202-1.176,0.386
		c-0.265,0.185-0.396,0.512-0.396,0.981c0,0.342,0.122,0.621,0.366,0.837s0.568,0.325,0.974,0.325c0.556,0,1.015-0.195,1.377-0.584
		s0.543-0.883,0.543-1.48V223.662z"/>
	<path fill="#414242" d="M178.068,227.203h-1.121v-3.992c0-1.485-0.542-2.229-1.627-2.229c-0.561,0-1.024,0.211-1.391,0.632
		s-0.55,0.954-0.55,1.596v3.992h-1.121v-7h1.121v1.162h0.027c0.528-0.884,1.294-1.326,2.297-1.326c0.766,0,1.351,0.247,1.757,0.742
		c0.405,0.495,0.608,1.209,0.608,2.143V227.203z"/>
	<path fill="#414242" d="M186.155,226.643c0,2.57-1.23,3.855-3.691,3.855c-0.866,0-1.623-0.164-2.27-0.492v-1.121
		c0.788,0.438,1.54,0.656,2.256,0.656c1.723,0,2.584-0.916,2.584-2.748v-0.766h-0.027c-0.533,0.894-1.335,1.34-2.406,1.34
		c-0.871,0-1.571-0.311-2.102-0.933s-0.796-1.457-0.796-2.505c0-1.189,0.286-2.135,0.858-2.837c0.572-0.702,1.354-1.053,2.348-1.053
		c0.943,0,1.643,0.378,2.099,1.135h0.027v-0.971h1.121V226.643z M185.034,224.038v-1.032c0-0.556-0.188-1.032-0.564-1.429
		s-0.844-0.595-1.405-0.595c-0.693,0-1.235,0.252-1.627,0.755c-0.392,0.503-0.588,1.209-0.588,2.116c0,0.779,0.188,1.402,0.564,1.87
		s0.874,0.701,1.494,0.701c0.629,0,1.141-0.223,1.535-0.67C184.837,225.308,185.034,224.735,185.034,224.038z"/>
	<path fill="#414242" d="M189.546,227.195h-1.121v-10.363h1.121V227.195z"/>
	<path fill="#414242" d="M197.441,223.983h-4.942c0.018,0.779,0.228,1.381,0.629,1.805c0.401,0.424,0.952,0.636,1.654,0.636
		c0.788,0,1.513-0.26,2.174-0.779v1.053c-0.615,0.447-1.429,0.67-2.44,0.67c-0.989,0-1.766-0.318-2.331-0.954
		c-0.565-0.636-0.848-1.53-0.848-2.683c0-1.089,0.309-1.977,0.926-2.663s1.384-1.029,2.3-1.029s1.625,0.296,2.126,0.889
		c0.501,0.593,0.752,1.415,0.752,2.468V223.983z M196.293,223.033c-0.005-0.647-0.161-1.15-0.468-1.511
		c-0.308-0.36-0.735-0.54-1.282-0.54c-0.529,0-0.978,0.189-1.347,0.567c-0.369,0.378-0.597,0.873-0.684,1.483H196.293z"/>
</g>
<g>
	<path fill="#414242" d="M170.146,376.203h-1.121v-1.094h-0.027c-0.488,0.839-1.206,1.258-2.153,1.258
		c-0.697,0-1.243-0.185-1.637-0.554s-0.591-0.858-0.591-1.47c0-1.308,0.77-2.068,2.311-2.283l2.099-0.294
		c0-1.189-0.481-1.784-1.442-1.784c-0.843,0-1.604,0.287-2.283,0.861v-1.148c0.688-0.438,1.481-0.656,2.379-0.656
		c1.645,0,2.468,0.871,2.468,2.611V376.203z M169.024,372.662l-1.688,0.232c-0.52,0.073-0.912,0.201-1.176,0.387
		c-0.265,0.184-0.396,0.512-0.396,0.98c0,0.342,0.122,0.621,0.366,0.838c0.244,0.216,0.568,0.324,0.974,0.324
		c0.556,0,1.015-0.195,1.377-0.584c0.362-0.391,0.543-0.883,0.543-1.48V372.662z"/>
	<path fill="#414242" d="M178.068,376.203h-1.121v-3.992c0-1.485-0.542-2.229-1.627-2.229c-0.561,0-1.024,0.211-1.391,0.633
		c-0.367,0.421-0.55,0.953-0.55,1.596v3.992h-1.121v-7h1.121v1.162h0.027c0.528-0.884,1.294-1.326,2.297-1.326
		c0.766,0,1.351,0.247,1.757,0.742c0.405,0.494,0.608,1.209,0.608,2.143V376.203z"/>
	<path fill="#414242" d="M186.155,375.643c0,2.57-1.23,3.855-3.691,3.855c-0.866,0-1.623-0.164-2.27-0.492v-1.121
		c0.788,0.438,1.54,0.656,2.256,0.656c1.723,0,2.584-0.916,2.584-2.748v-0.766h-0.027c-0.533,0.894-1.335,1.34-2.406,1.34
		c-0.871,0-1.571-0.311-2.102-0.934c-0.531-0.621-0.796-1.457-0.796-2.505c0-1.189,0.286-2.135,0.858-2.837
		c0.572-0.701,1.354-1.053,2.348-1.053c0.943,0,1.643,0.379,2.099,1.135h0.027v-0.971h1.121V375.643z M185.034,373.038v-1.032
		c0-0.556-0.188-1.032-0.564-1.429s-0.844-0.595-1.405-0.595c-0.693,0-1.235,0.252-1.627,0.756
		c-0.392,0.503-0.588,1.209-0.588,2.115c0,0.779,0.188,1.402,0.564,1.869c0.376,0.468,0.874,0.701,1.494,0.701
		c0.629,0,1.141-0.223,1.535-0.67C184.837,374.308,185.034,373.735,185.034,373.038z"/>
	<path fill="#414242" d="M189.546,376.195h-1.121v-10.363h1.121V376.195z"/>
	<path fill="#414242" d="M197.441,372.983h-4.942c0.018,0.779,0.228,1.381,0.629,1.805c0.401,0.424,0.952,0.636,1.654,0.636
		c0.788,0,1.513-0.26,2.174-0.779v1.053c-0.615,0.447-1.429,0.67-2.44,0.67c-0.989,0-1.766-0.318-2.331-0.953
		c-0.565-0.637-0.848-1.53-0.848-2.684c0-1.089,0.309-1.977,0.926-2.662c0.618-0.687,1.384-1.029,2.3-1.029s1.625,0.297,2.126,0.889
		c0.501,0.593,0.752,1.415,0.752,2.468V372.983z M196.293,372.033c-0.005-0.646-0.161-1.15-0.468-1.511s-0.735-0.54-1.282-0.54
		c-0.529,0-0.978,0.189-1.347,0.567s-0.597,0.873-0.684,1.483H196.293z"/>
</g>
<g>
	<path fill="#414242" d="M170.146,525.203h-1.121v-1.094h-0.027c-0.488,0.839-1.206,1.258-2.153,1.258
		c-0.697,0-1.243-0.185-1.637-0.554s-0.591-0.858-0.591-1.47c0-1.308,0.77-2.068,2.311-2.283l2.099-0.294
		c0-1.189-0.481-1.784-1.442-1.784c-0.843,0-1.604,0.287-2.283,0.861v-1.148c0.688-0.438,1.481-0.656,2.379-0.656
		c1.645,0,2.468,0.871,2.468,2.611V525.203z M169.024,521.662l-1.688,0.232c-0.52,0.073-0.912,0.201-1.176,0.387
		c-0.265,0.184-0.396,0.512-0.396,0.98c0,0.342,0.122,0.621,0.366,0.838c0.244,0.216,0.568,0.324,0.974,0.324
		c0.556,0,1.015-0.195,1.377-0.584c0.362-0.391,0.543-0.883,0.543-1.48V521.662z"/>
	<path fill="#414242" d="M178.068,525.203h-1.121v-3.992c0-1.485-0.542-2.229-1.627-2.229c-0.561,0-1.024,0.211-1.391,0.633
		c-0.367,0.421-0.55,0.953-0.55,1.596v3.992h-1.121v-7h1.121v1.162h0.027c0.528-0.884,1.294-1.326,2.297-1.326
		c0.766,0,1.351,0.247,1.757,0.742c0.405,0.494,0.608,1.209,0.608,2.143V525.203z"/>
	<path fill="#414242" d="M186.155,524.643c0,2.57-1.23,3.855-3.691,3.855c-0.866,0-1.623-0.164-2.27-0.492v-1.121
		c0.788,0.438,1.54,0.656,2.256,0.656c1.723,0,2.584-0.916,2.584-2.748v-0.766h-0.027c-0.533,0.894-1.335,1.34-2.406,1.34
		c-0.871,0-1.571-0.311-2.102-0.934c-0.531-0.621-0.796-1.457-0.796-2.505c0-1.189,0.286-2.135,0.858-2.837
		c0.572-0.701,1.354-1.053,2.348-1.053c0.943,0,1.643,0.379,2.099,1.135h0.027v-0.971h1.121V524.643z M185.034,522.038v-1.032
		c0-0.556-0.188-1.032-0.564-1.429s-0.844-0.595-1.405-0.595c-0.693,0-1.235,0.252-1.627,0.756
		c-0.392,0.503-0.588,1.209-0.588,2.115c0,0.779,0.188,1.402,0.564,1.869c0.376,0.468,0.874,0.701,1.494,0.701
		c0.629,0,1.141-0.223,1.535-0.67C184.837,523.308,185.034,522.735,185.034,522.038z"/>
	<path fill="#414242" d="M189.546,525.195h-1.121v-10.363h1.121V525.195z"/>
	<path fill="#414242" d="M197.441,521.983h-4.942c0.018,0.779,0.228,1.381,0.629,1.805c0.401,0.424,0.952,0.636,1.654,0.636
		c0.788,0,1.513-0.26,2.174-0.779v1.053c-0.615,0.447-1.429,0.67-2.44,0.67c-0.989,0-1.766-0.318-2.331-0.953
		c-0.565-0.637-0.848-1.53-0.848-2.684c0-1.089,0.309-1.977,0.926-2.662c0.618-0.687,1.384-1.029,2.3-1.029s1.625,0.297,2.126,0.889
		c0.501,0.593,0.752,1.415,0.752,2.468V521.983z M196.293,521.033c-0.005-0.646-0.161-1.15-0.468-1.511s-0.735-0.54-1.282-0.54
		c-0.529,0-0.978,0.189-1.347,0.567s-0.597,0.873-0.684,1.483H196.293z"/>
</g>
<g>
	<path fill="#414242" d="M449.146,226.203h-1.121v-1.094h-0.027c-0.487,0.839-1.206,1.258-2.153,1.258
		c-0.697,0-1.243-0.185-1.637-0.554c-0.395-0.369-0.592-0.859-0.592-1.47c0-1.308,0.77-2.069,2.311-2.283l2.099-0.294
		c0-1.189-0.481-1.784-1.442-1.784c-0.844,0-1.604,0.287-2.283,0.861v-1.148c0.688-0.438,1.48-0.656,2.379-0.656
		c1.645,0,2.468,0.871,2.468,2.611V226.203z M448.024,222.662l-1.688,0.232c-0.52,0.073-0.912,0.202-1.176,0.386
		c-0.265,0.185-0.396,0.512-0.396,0.981c0,0.342,0.122,0.621,0.365,0.837c0.244,0.216,0.568,0.325,0.975,0.325
		c0.556,0,1.016-0.195,1.377-0.584c0.363-0.39,0.544-0.883,0.544-1.48V222.662z"/>
	<path fill="#414242" d="M457.068,226.203h-1.121v-3.992c0-1.485-0.543-2.229-1.627-2.229c-0.561,0-1.024,0.211-1.391,0.632
		c-0.367,0.421-0.551,0.954-0.551,1.596v3.992h-1.121v-7h1.121v1.162h0.027c0.528-0.884,1.294-1.326,2.297-1.326
		c0.766,0,1.352,0.247,1.757,0.742s0.608,1.209,0.608,2.143V226.203z"/>
	<path fill="#414242" d="M465.155,225.643c0,2.57-1.23,3.855-3.691,3.855c-0.866,0-1.622-0.164-2.27-0.492v-1.121
		c0.788,0.438,1.54,0.656,2.256,0.656c1.723,0,2.584-0.916,2.584-2.748v-0.766h-0.027c-0.533,0.894-1.335,1.34-2.406,1.34
		c-0.87,0-1.571-0.311-2.103-0.933c-0.53-0.622-0.796-1.457-0.796-2.505c0-1.189,0.286-2.135,0.858-2.837
		c0.571-0.702,1.354-1.053,2.348-1.053c0.943,0,1.643,0.378,2.099,1.135h0.027v-0.971h1.121V225.643z M464.034,223.038v-1.032
		c0-0.556-0.188-1.032-0.563-1.429c-0.377-0.396-0.845-0.595-1.405-0.595c-0.692,0-1.235,0.252-1.627,0.755
		s-0.588,1.209-0.588,2.116c0,0.779,0.188,1.402,0.563,1.87c0.377,0.467,0.874,0.701,1.494,0.701c0.629,0,1.141-0.223,1.535-0.67
		C463.837,224.308,464.034,223.735,464.034,223.038z"/>
	<path fill="#414242" d="M468.546,226.195h-1.121v-10.363h1.121V226.195z"/>
	<path fill="#414242" d="M476.441,222.983h-4.942c0.019,0.779,0.228,1.381,0.629,1.805s0.952,0.636,1.654,0.636
		c0.788,0,1.513-0.26,2.174-0.779v1.053c-0.615,0.447-1.429,0.67-2.44,0.67c-0.989,0-1.766-0.318-2.331-0.954
		s-0.848-1.53-0.848-2.683c0-1.089,0.309-1.977,0.927-2.663c0.617-0.686,1.384-1.029,2.3-1.029s1.624,0.296,2.126,0.889
		c0.501,0.593,0.752,1.415,0.752,2.468V222.983z M475.293,222.033c-0.005-0.647-0.16-1.15-0.469-1.511
		c-0.307-0.36-0.734-0.54-1.281-0.54c-0.529,0-0.978,0.189-1.347,0.567c-0.369,0.378-0.597,0.873-0.684,1.483H475.293z"/>
</g>
<g>
	<path fill="#414242" d="M449.146,375.203h-1.121v-1.094h-0.027c-0.487,0.839-1.206,1.258-2.153,1.258
		c-0.697,0-1.243-0.185-1.637-0.554c-0.395-0.369-0.592-0.858-0.592-1.47c0-1.308,0.77-2.068,2.311-2.283l2.099-0.294
		c0-1.189-0.481-1.784-1.442-1.784c-0.844,0-1.604,0.287-2.283,0.861v-1.148c0.688-0.438,1.48-0.656,2.379-0.656
		c1.645,0,2.468,0.871,2.468,2.611V375.203z M448.024,371.662l-1.688,0.232c-0.52,0.073-0.912,0.201-1.176,0.387
		c-0.265,0.184-0.396,0.512-0.396,0.98c0,0.342,0.122,0.621,0.365,0.838c0.244,0.216,0.568,0.324,0.975,0.324
		c0.556,0,1.016-0.195,1.377-0.584c0.363-0.391,0.544-0.883,0.544-1.48V371.662z"/>
	<path fill="#414242" d="M457.068,375.203h-1.121v-3.992c0-1.485-0.543-2.229-1.627-2.229c-0.561,0-1.024,0.211-1.391,0.633
		c-0.367,0.421-0.551,0.953-0.551,1.596v3.992h-1.121v-7h1.121v1.162h0.027c0.528-0.884,1.294-1.326,2.297-1.326
		c0.766,0,1.352,0.247,1.757,0.742c0.405,0.494,0.608,1.209,0.608,2.143V375.203z"/>
	<path fill="#414242" d="M465.155,374.643c0,2.57-1.23,3.855-3.691,3.855c-0.866,0-1.622-0.164-2.27-0.492v-1.121
		c0.788,0.438,1.54,0.656,2.256,0.656c1.723,0,2.584-0.916,2.584-2.748v-0.766h-0.027c-0.533,0.894-1.335,1.34-2.406,1.34
		c-0.87,0-1.571-0.311-2.103-0.934c-0.53-0.621-0.796-1.457-0.796-2.505c0-1.189,0.286-2.135,0.858-2.837
		c0.571-0.701,1.354-1.053,2.348-1.053c0.943,0,1.643,0.379,2.099,1.135h0.027v-0.971h1.121V374.643z M464.034,372.038v-1.032
		c0-0.556-0.188-1.032-0.563-1.429c-0.377-0.396-0.845-0.595-1.405-0.595c-0.692,0-1.235,0.252-1.627,0.756
		c-0.392,0.503-0.588,1.209-0.588,2.115c0,0.779,0.188,1.402,0.563,1.869c0.377,0.468,0.874,0.701,1.494,0.701
		c0.629,0,1.141-0.223,1.535-0.67C463.837,373.308,464.034,372.735,464.034,372.038z"/>
	<path fill="#414242" d="M468.546,375.195h-1.121v-10.363h1.121V375.195z"/>
	<path fill="#414242" d="M476.441,371.983h-4.942c0.019,0.779,0.228,1.381,0.629,1.805s0.952,0.636,1.654,0.636
		c0.788,0,1.513-0.26,2.174-0.779v1.053c-0.615,0.447-1.429,0.67-2.44,0.67c-0.989,0-1.766-0.318-2.331-0.953
		c-0.565-0.637-0.848-1.53-0.848-2.684c0-1.089,0.309-1.977,0.927-2.662c0.617-0.687,1.384-1.029,2.3-1.029s1.624,0.297,2.126,0.889
		c0.501,0.593,0.752,1.415,0.752,2.468V371.983z M475.293,371.033c-0.005-0.646-0.16-1.15-0.469-1.511
		c-0.307-0.36-0.734-0.54-1.281-0.54c-0.529,0-0.978,0.189-1.347,0.567s-0.597,0.873-0.684,1.483H475.293z"/>
</g>
<g>
	<path fill="#414242" d="M449.146,524.203h-1.121v-1.094h-0.027c-0.487,0.839-1.206,1.258-2.153,1.258
		c-0.697,0-1.243-0.185-1.637-0.554c-0.395-0.369-0.592-0.858-0.592-1.47c0-1.308,0.77-2.068,2.311-2.283l2.099-0.294
		c0-1.189-0.481-1.784-1.442-1.784c-0.844,0-1.604,0.287-2.283,0.861v-1.148c0.688-0.438,1.48-0.656,2.379-0.656
		c1.645,0,2.468,0.871,2.468,2.611V524.203z M448.024,520.662l-1.688,0.232c-0.52,0.073-0.912,0.201-1.176,0.387
		c-0.265,0.184-0.396,0.512-0.396,0.98c0,0.342,0.122,0.621,0.365,0.838c0.244,0.216,0.568,0.324,0.975,0.324
		c0.556,0,1.016-0.195,1.377-0.584c0.363-0.391,0.544-0.883,0.544-1.48V520.662z"/>
	<path fill="#414242" d="M457.068,524.203h-1.121v-3.992c0-1.485-0.543-2.229-1.627-2.229c-0.561,0-1.024,0.211-1.391,0.633
		c-0.367,0.421-0.551,0.953-0.551,1.596v3.992h-1.121v-7h1.121v1.162h0.027c0.528-0.884,1.294-1.326,2.297-1.326
		c0.766,0,1.352,0.247,1.757,0.742c0.405,0.494,0.608,1.209,0.608,2.143V524.203z"/>
	<path fill="#414242" d="M465.155,523.643c0,2.57-1.23,3.855-3.691,3.855c-0.866,0-1.622-0.164-2.27-0.492v-1.121
		c0.788,0.438,1.54,0.656,2.256,0.656c1.723,0,2.584-0.916,2.584-2.748v-0.766h-0.027c-0.533,0.894-1.335,1.34-2.406,1.34
		c-0.87,0-1.571-0.311-2.103-0.934c-0.53-0.621-0.796-1.457-0.796-2.505c0-1.189,0.286-2.135,0.858-2.837
		c0.571-0.701,1.354-1.053,2.348-1.053c0.943,0,1.643,0.379,2.099,1.135h0.027v-0.971h1.121V523.643z M464.034,521.038v-1.032
		c0-0.556-0.188-1.032-0.563-1.429c-0.377-0.396-0.845-0.595-1.405-0.595c-0.692,0-1.235,0.252-1.627,0.756
		c-0.392,0.503-0.588,1.209-0.588,2.115c0,0.779,0.188,1.402,0.563,1.869c0.377,0.468,0.874,0.701,1.494,0.701
		c0.629,0,1.141-0.223,1.535-0.67C463.837,522.308,464.034,521.735,464.034,521.038z"/>
	<path fill="#414242" d="M468.546,524.195h-1.121v-10.363h1.121V524.195z"/>
	<path fill="#414242" d="M476.441,520.983h-4.942c0.019,0.779,0.228,1.381,0.629,1.805s0.952,0.636,1.654,0.636
		c0.788,0,1.513-0.26,2.174-0.779v1.053c-0.615,0.447-1.429,0.67-2.44,0.67c-0.989,0-1.766-0.318-2.331-0.953
		c-0.565-0.637-0.848-1.53-0.848-2.684c0-1.089,0.309-1.977,0.927-2.662c0.617-0.687,1.384-1.029,2.3-1.029s1.624,0.297,2.126,0.889
		c0.501,0.593,0.752,1.415,0.752,2.468V520.983z M475.293,520.033c-0.005-0.646-0.16-1.15-0.469-1.511
		c-0.307-0.36-0.734-0.54-1.281-0.54c-0.529,0-0.978,0.189-1.347,0.567s-0.597,0.873-0.684,1.483H475.293z"/>
</g>
<g>
	<path fill="#F26522" d="M166.641,153.525h-1.281v-4.563c0-1.698-0.62-2.547-1.859-2.547c-0.641,0-1.17,0.241-1.59,0.723
		s-0.629,1.09-0.629,1.824v4.563H160v-8h1.281v1.328h0.031c0.604-1.01,1.479-1.516,2.625-1.516c0.875,0,1.544,0.283,2.008,0.848
		s0.695,1.381,0.695,2.449V153.525z"/>
	<path fill="#F26522" d="M178.297,147.713h-7.344v-1.031h7.344V147.713z M178.297,151.041h-7.344v-1.031h7.344V151.041z"/>
	<path fill="#F26522" d="M187.5,145.26c0-0.344-0.053-0.643-0.16-0.898s-0.252-0.467-0.438-0.637s-0.402-0.295-0.652-0.379
		s-0.521-0.125-0.813-0.125c-0.25,0-0.495,0.034-0.734,0.102s-0.473,0.162-0.699,0.281s-0.445,0.263-0.656,0.43
		s-0.408,0.352-0.59,0.555v-1.375c0.359-0.349,0.762-0.616,1.207-0.801s0.988-0.277,1.629-0.277c0.458,0,0.883,0.066,1.273,0.199
		s0.729,0.327,1.016,0.582s0.512,0.57,0.676,0.945s0.246,0.805,0.246,1.289c0,0.443-0.051,0.844-0.152,1.203
		s-0.255,0.698-0.461,1.016s-0.465,0.623-0.777,0.914s-0.68,0.588-1.102,0.891c-0.526,0.375-0.959,0.695-1.301,0.961
		s-0.612,0.514-0.813,0.746s-0.341,0.463-0.422,0.695s-0.121,0.499-0.121,0.801h5.578v1.148h-6.914v-0.555
		c0-0.479,0.052-0.901,0.156-1.266s0.276-0.711,0.516-1.039s0.553-0.656,0.941-0.984s0.863-0.698,1.426-1.109
		c0.406-0.292,0.746-0.57,1.02-0.836s0.494-0.531,0.66-0.797s0.285-0.535,0.355-0.809S187.5,145.567,187.5,145.26z"/>
</g>
<g>
	<path fill="#F26522" d="M439.641,153.525h-1.281v-4.563c0-1.698-0.619-2.547-1.859-2.547c-0.641,0-1.17,0.241-1.59,0.723
		s-0.629,1.09-0.629,1.824v4.563H433v-8h1.281v1.328h0.031c0.604-1.01,1.479-1.516,2.625-1.516c0.875,0,1.545,0.283,2.008,0.848
		s0.695,1.381,0.695,2.449V153.525z"/>
	<path fill="#F26522" d="M451.297,147.713h-7.344v-1.031h7.344V147.713z M451.297,151.041h-7.344v-1.031h7.344V151.041z"/>
</g>
<g>
	<path fill="#F26522" d="M460.945,150.158c0,0.505-0.096,0.965-0.285,1.379c-0.19,0.414-0.459,0.769-0.805,1.063
		c-0.347,0.294-0.762,0.522-1.246,0.684s-1.019,0.242-1.602,0.242c-1.068,0-1.917-0.203-2.547-0.609v-1.375
		c0.755,0.594,1.619,0.891,2.594,0.891c0.391,0,0.743-0.049,1.059-0.148c0.314-0.099,0.586-0.242,0.813-0.43s0.4-0.414,0.523-0.68
		c0.122-0.266,0.184-0.565,0.184-0.898c0-1.463-1.042-2.195-3.125-2.195h-0.93v-1.086h0.883c1.844,0,2.766-0.688,2.766-2.063
		c0-1.271-0.703-1.906-2.109-1.906c-0.792,0-1.534,0.266-2.227,0.797v-1.242c0.713-0.427,1.563-0.641,2.547-0.641
		c0.469,0,0.893,0.065,1.273,0.195c0.38,0.13,0.705,0.313,0.977,0.547c0.271,0.234,0.48,0.516,0.629,0.844s0.223,0.69,0.223,1.086
		c0,1.474-0.745,2.422-2.234,2.844v0.031c0.38,0.042,0.731,0.134,1.055,0.277c0.322,0.144,0.602,0.33,0.836,0.559
		c0.234,0.229,0.418,0.499,0.551,0.809C460.879,149.441,460.945,149.783,460.945,150.158z"/>
</g>
<g>
	<path fill="#F26522" d="M188.641,292.322v7.398h1.438v1.172h-1.438v2.633h-1.266v-2.633h-5.266v-1.109
		c0.489-0.552,0.984-1.142,1.484-1.77c0.5-0.627,0.978-1.264,1.434-1.91c0.456-0.646,0.877-1.29,1.266-1.934
		c0.388-0.643,0.715-1.259,0.98-1.848H188.641z M183.555,299.721h3.82v-5.484c-0.391,0.683-0.761,1.292-1.109,1.828
		c-0.349,0.537-0.681,1.023-0.996,1.461c-0.315,0.438-0.616,0.833-0.902,1.188C184.081,299.067,183.81,299.403,183.555,299.721z"/>
</g>
<g>
	<path fill="#F26522" d="M446.641,303.525h-1.281v-4.563c0-1.698-0.619-2.547-1.859-2.547c-0.641,0-1.17,0.241-1.59,0.723
		s-0.629,1.09-0.629,1.824v4.563H440v-8h1.281v1.328h0.031c0.604-1.01,1.479-1.516,2.625-1.516c0.875,0,1.545,0.283,2.008,0.848
		s0.695,1.381,0.695,2.449V303.525z"/>
	<path fill="#F26522" d="M458.297,297.713h-7.344v-1.031h7.344V297.713z M458.297,301.041h-7.344v-1.031h7.344V301.041z"/>
</g>
<g>
	<path fill="#F26522" d="M468.289,299.908c0,0.547-0.094,1.042-0.281,1.484c-0.188,0.443-0.455,0.823-0.801,1.141
		c-0.347,0.318-0.765,0.563-1.254,0.734c-0.49,0.172-1.034,0.258-1.633,0.258c-1.042,0-1.815-0.156-2.32-0.469v-1.359
		c0.76,0.49,1.539,0.734,2.336,0.734c0.406,0,0.771-0.06,1.098-0.18c0.325-0.12,0.603-0.286,0.832-0.5
		c0.229-0.213,0.404-0.471,0.527-0.773c0.122-0.302,0.184-0.633,0.184-0.992c0-0.729-0.245-1.301-0.734-1.715
		c-0.49-0.414-1.201-0.621-2.133-0.621c-0.151,0-0.311,0.003-0.477,0.008c-0.167,0.005-0.334,0.012-0.5,0.02
		c-0.167,0.008-0.33,0.017-0.488,0.027c-0.159,0.011-0.304,0.023-0.434,0.039l0.383-5.617h5.18v1.156h-4.07l-0.227,3.289
		c0.166-0.01,0.344-0.02,0.531-0.027s0.354-0.012,0.5-0.012c0.594,0,1.125,0.078,1.594,0.234s0.865,0.379,1.191,0.668
		c0.325,0.289,0.572,0.644,0.742,1.063C468.204,298.917,468.289,299.388,468.289,299.908z"/>
</g>
<g>
	<path fill="#F26522" d="M166.641,453.525h-1.281v-4.563c0-1.697-0.619-2.547-1.859-2.547c-0.641,0-1.17,0.24-1.59,0.723
		s-0.629,1.09-0.629,1.824v4.563H160v-8h1.281v1.328h0.031c0.604-1.01,1.479-1.516,2.625-1.516c0.875,0,1.545,0.283,2.008,0.848
		s0.695,1.381,0.695,2.449V453.525z"/>
	<path fill="#F26522" d="M178.297,447.713h-7.344v-1.031h7.344V447.713z M178.297,451.041h-7.344v-1.031h7.344V451.041z"/>
</g>
<g>
	<path fill="#F26522" d="M189.484,449.775c0,0.547-0.089,1.05-0.266,1.508c-0.177,0.459-0.422,0.854-0.734,1.188
		c-0.313,0.334-0.685,0.593-1.117,0.777c-0.433,0.185-0.901,0.277-1.406,0.277c-0.563,0-1.066-0.117-1.512-0.352
		s-0.823-0.571-1.133-1.012c-0.31-0.439-0.546-0.978-0.707-1.613c-0.162-0.635-0.242-1.352-0.242-2.148
		c0-0.974,0.108-1.857,0.324-2.652c0.216-0.794,0.523-1.474,0.922-2.039c0.398-0.564,0.879-1.001,1.441-1.309
		c0.563-0.307,1.19-0.461,1.883-0.461c0.771,0,1.391,0.107,1.859,0.32v1.211c-0.578-0.297-1.188-0.445-1.828-0.445
		c-0.5,0-0.951,0.112-1.352,0.336c-0.401,0.225-0.745,0.541-1.031,0.949c-0.287,0.409-0.507,0.902-0.66,1.48
		c-0.154,0.578-0.23,1.222-0.23,1.93h0.031c0.516-0.932,1.367-1.398,2.555-1.398c0.489,0,0.931,0.084,1.324,0.25
		c0.393,0.167,0.729,0.402,1.008,0.707c0.278,0.305,0.493,0.668,0.645,1.09C189.409,448.791,189.484,449.26,189.484,449.775z
		 M188.172,449.939c0-0.391-0.05-0.742-0.148-1.055c-0.099-0.313-0.241-0.578-0.426-0.797c-0.185-0.219-0.413-0.387-0.684-0.504
		c-0.271-0.117-0.578-0.176-0.922-0.176c-0.318,0-0.612,0.061-0.883,0.18c-0.271,0.12-0.505,0.283-0.703,0.488
		c-0.198,0.206-0.353,0.445-0.465,0.719c-0.112,0.273-0.168,0.564-0.168,0.871c0,0.386,0.055,0.746,0.164,1.082
		s0.263,0.629,0.461,0.879c0.198,0.25,0.434,0.447,0.707,0.59c0.273,0.144,0.577,0.215,0.91,0.215c0.323,0,0.617-0.061,0.883-0.184
		c0.266-0.122,0.492-0.293,0.68-0.512s0.333-0.48,0.438-0.785C188.12,450.646,188.172,450.31,188.172,449.939z"/>
</g>
<g>
	<path fill="#F26522" d="M446.641,453.525h-1.281v-4.563c0-1.697-0.619-2.547-1.859-2.547c-0.641,0-1.17,0.24-1.59,0.723
		s-0.629,1.09-0.629,1.824v4.563H440v-8h1.281v1.328h0.031c0.604-1.01,1.479-1.516,2.625-1.516c0.875,0,1.545,0.283,2.008,0.848
		s0.695,1.381,0.695,2.449V453.525z"/>
	<path fill="#F26522" d="M458.297,447.713h-7.344v-1.031h7.344V447.713z M458.297,451.041h-7.344v-1.031h7.344V451.041z"/>
</g>
<g>
	<path fill="#F26522" d="M462,450.221c0-0.297,0.047-0.595,0.141-0.895c0.094-0.299,0.228-0.579,0.402-0.84
		c0.174-0.26,0.391-0.497,0.648-0.711c0.258-0.213,0.551-0.383,0.879-0.508c-0.484-0.271-0.87-0.618-1.156-1.043
		c-0.287-0.424-0.43-0.895-0.43-1.41c0-0.411,0.079-0.791,0.238-1.141c0.158-0.349,0.379-0.65,0.66-0.906
		c0.281-0.255,0.614-0.454,1-0.598c0.385-0.143,0.802-0.215,1.25-0.215c0.453,0,0.872,0.073,1.258,0.219
		c0.385,0.146,0.719,0.347,1,0.602c0.281,0.256,0.5,0.558,0.656,0.906c0.156,0.35,0.234,0.727,0.234,1.133
		c0,0.516-0.144,0.986-0.43,1.41c-0.287,0.425-0.667,0.772-1.141,1.043c0.322,0.125,0.611,0.295,0.867,0.508
		c0.255,0.214,0.47,0.451,0.645,0.711c0.174,0.261,0.309,0.541,0.402,0.84c0.094,0.3,0.141,0.598,0.141,0.895
		c0,0.49-0.089,0.938-0.266,1.344c-0.178,0.406-0.426,0.754-0.746,1.043s-0.703,0.515-1.148,0.676s-0.937,0.242-1.473,0.242
		c-0.531,0-1.019-0.081-1.461-0.242c-0.443-0.161-0.826-0.387-1.148-0.676c-0.323-0.289-0.574-0.637-0.754-1.043
		S462,450.711,462,450.221z M463.391,450.111c0,0.35,0.053,0.664,0.16,0.945c0.106,0.281,0.258,0.521,0.453,0.719
		c0.195,0.198,0.432,0.351,0.711,0.457c0.278,0.107,0.587,0.16,0.926,0.16c0.328,0,0.63-0.055,0.906-0.164
		c0.275-0.109,0.514-0.263,0.715-0.461c0.2-0.197,0.356-0.438,0.469-0.719c0.111-0.281,0.168-0.594,0.168-0.938
		c0-0.313-0.054-0.605-0.16-0.879c-0.107-0.273-0.26-0.514-0.457-0.723c-0.198-0.208-0.436-0.372-0.711-0.492
		c-0.276-0.119-0.586-0.18-0.93-0.18c-0.323,0-0.621,0.057-0.895,0.168c-0.273,0.112-0.511,0.269-0.711,0.469
		c-0.201,0.201-0.358,0.44-0.473,0.719C463.447,449.473,463.391,449.778,463.391,450.111z M463.789,444.916
		c0,0.266,0.048,0.512,0.145,0.738c0.096,0.227,0.229,0.425,0.398,0.594c0.169,0.17,0.365,0.303,0.59,0.398
		c0.224,0.097,0.463,0.145,0.719,0.145c0.255,0,0.496-0.049,0.723-0.148c0.227-0.099,0.423-0.232,0.59-0.402
		c0.166-0.169,0.299-0.367,0.398-0.594c0.099-0.227,0.148-0.47,0.148-0.73c0-0.271-0.049-0.521-0.145-0.75
		c-0.097-0.229-0.229-0.427-0.395-0.594c-0.167-0.166-0.363-0.298-0.59-0.395c-0.227-0.096-0.471-0.145-0.73-0.145
		c-0.276,0-0.527,0.05-0.754,0.148c-0.227,0.1-0.422,0.233-0.586,0.402c-0.164,0.17-0.291,0.369-0.379,0.598
		C463.833,444.411,463.789,444.656,463.789,444.916z"/>
</g>
</svg>
